<?xml version="1.0" encoding="utf-8"?>
<!-- Generator: Adobe Illustrator 16.0.0, SVG Export Plug-In . SVG Version: 6.00 Build 0)  -->
<!DOCTYPE svg PUBLIC "-//W3C//DTD SVG 1.1//EN" "http://www.w3.org/Graphics/SVG/1.1/DTD/svg11.dtd">
<svg version="1.1"
	 id="svg12553" xmlns:dc="http://purl.org/dc/elements/1.1/" xmlns:cc="http://creativecommons.org/ns#" xmlns:rdf="http://www.w3.org/1999/02/22-rdf-syntax-ns#" xmlns:svg="http://www.w3.org/2000/svg" xmlns:sodipodi="http://sodipodi.sourceforge.net/DTD/sodipodi-0.dtd" xmlns:inkscape="http://www.inkscape.org/namespaces/inkscape" sodipodi:docname="SEQ3.svg" inkscape:version="0.92.2 5c3e80d, 2017-08-06"
	 xmlns="http://www.w3.org/2000/svg" xmlns:xlink="http://www.w3.org/1999/xlink" x="0px" y="0px" width="37.926px"
	 height="13.926px" viewBox="0 0 37.926 13.926" enable-background="new 0 0 37.926 13.926" xml:space="preserve">
<g>
	<path d="M7.418,8.819c-0.08,1.335-0.744,2.003-1.992,2.003H3.422c-0.544,0-1.014-0.196-1.41-0.588S1.418,9.37,1.418,8.819V3.827
		c0-0.544,0.194-1.014,0.582-1.41c0.388-0.396,0.862-0.594,1.422-0.594h2.004c1.256,0,1.92,0.668,1.992,2.004H6.422
		C6.342,3.155,6.01,2.819,5.426,2.819H4.418c-0.272,0-0.506,0.098-0.702,0.294C3.52,3.309,3.422,3.547,3.422,3.827v4.992
		c0,0.271,0.098,0.508,0.294,0.707c0.196,0.2,0.43,0.3,0.702,0.3h1.008c0.592,0,0.924-0.336,0.996-1.007H7.418z"/>
	<path d="M9.422,10.822V1.823h2.004v8.999H9.422z"/>
	<path d="M19.418,7.822h-3.996v0.997c0,0.271,0.098,0.508,0.294,0.707c0.196,0.2,0.43,0.3,0.702,0.3h1.008
		c0.664,0,0.996-0.336,0.996-1.007h0.996c-0.152,1.335-0.816,2.003-1.992,2.003h-2.004c-0.544,0-1.014-0.196-1.41-0.588
		s-0.594-0.864-0.594-1.415v-3c0-0.544,0.198-1.012,0.594-1.404s0.866-0.588,1.41-0.588h2.004c0.544,0,1.012,0.196,1.404,0.588
		c0.392,0.392,0.588,0.86,0.588,1.404V7.822z M15.422,6.827h2.004V5.819c0-0.272-0.098-0.506-0.294-0.702
		c-0.196-0.196-0.434-0.294-0.714-0.294c-0.272,0-0.506,0.098-0.702,0.294c-0.196,0.196-0.294,0.43-0.294,0.702V6.827z"/>
	<path d="M25.43,6.827V5.819c0-0.272-0.098-0.506-0.294-0.702c-0.196-0.196-0.434-0.294-0.714-0.294h-0.996
		c-0.592,0-0.924,0.332-0.996,0.996h-1.008c0.16-1.328,0.828-1.992,2.004-1.992h2.004c0.544,0,1.012,0.196,1.404,0.588
		c0.392,0.392,0.588,0.86,0.588,1.404v5.003H25.43V9.826c-0.08,0.664-0.416,0.996-1.008,0.996h-0.996
		c-0.544,0-1.014-0.196-1.41-0.588c-0.396-0.392-0.594-0.864-0.594-1.415c0-0.545,0.198-1.013,0.594-1.405
		c0.396-0.392,0.866-0.588,1.41-0.588H25.43z M25.43,7.822h-1.008c-0.272,0-0.506,0.099-0.702,0.294
		c-0.196,0.197-0.294,0.431-0.294,0.703c0,0.271,0.098,0.508,0.294,0.707c0.196,0.2,0.43,0.3,0.702,0.3c0.28,0,0.518-0.1,0.714-0.3
		c0.196-0.199,0.294-0.436,0.294-0.707V7.822z"/>
	<path d="M31.43,10.822h-2.004V3.827h2.004v1.992c0.08-0.664,0.286-1.162,0.618-1.494s0.794-0.498,1.386-0.498h0.996v1.992h-2.004
		c-0.272,0-0.506,0.098-0.702,0.294S31.43,6.547,31.43,6.827V10.822z"/>
</g>
</svg>
