<?xml version="1.0" encoding="utf-8"?>
<!-- Generator: Adobe Illustrator 16.0.0, SVG Export Plug-In . SVG Version: 6.00 Build 0)  -->
<!DOCTYPE svg PUBLIC "-//W3C//DTD SVG 1.1//EN" "http://www.w3.org/Graphics/SVG/1.1/DTD/svg11.dtd">
<svg version="1.1"
	 id="svg12553" xmlns:dc="http://purl.org/dc/elements/1.1/" xmlns:cc="http://creativecommons.org/ns#" xmlns:rdf="http://www.w3.org/1999/02/22-rdf-syntax-ns#" xmlns:svg="http://www.w3.org/2000/svg" xmlns:sodipodi="http://sodipodi.sourceforge.net/DTD/sodipodi-0.dtd" xmlns:inkscape="http://www.inkscape.org/namespaces/inkscape" inkscape:version="0.92.2 5c3e80d, 2017-08-06" sodipodi:docname="SEQ3.svg"
	 xmlns="http://www.w3.org/2000/svg" xmlns:xlink="http://www.w3.org/1999/xlink" x="0px" y="0px" width="37.926px"
	 height="16.211px" viewBox="0 0 37.926 16.211" enable-background="new 0 0 37.926 16.211" xml:space="preserve">
<rect x="-0.146" width="38.216" height="16.211"/>
<g>
	<path fill="#FFFFFF" d="M7.417,8.883c-0.08,1.335-0.744,2.003-1.992,2.003H3.421c-0.544,0-1.014-0.195-1.41-0.588
		S1.417,9.434,1.417,8.883V3.891c0-0.544,0.194-1.014,0.582-1.41s0.862-0.594,1.422-0.594h2.004c1.256,0,1.92,0.668,1.992,2.004
		H6.421c-0.08-0.672-0.412-1.008-0.996-1.008H4.417c-0.272,0-0.506,0.098-0.702,0.294C3.519,3.373,3.421,3.61,3.421,3.891v4.992
		c0,0.271,0.098,0.508,0.294,0.708c0.196,0.2,0.43,0.301,0.702,0.301h1.008c0.592,0,0.924-0.337,0.996-1.008L7.417,8.883
		L7.417,8.883z"/>
	<path fill="#FFFFFF" d="M9.421,10.887v-9h2.004v9H9.421z"/>
	<path fill="#FFFFFF" d="M19.417,7.885h-3.996v0.998c0,0.271,0.098,0.508,0.294,0.708c0.196,0.2,0.43,0.301,0.702,0.301h1.008
		c0.664,0,0.996-0.337,0.996-1.008h0.996c-0.152,1.335-0.816,2.003-1.992,2.003h-2.004c-0.544,0-1.014-0.196-1.41-0.588
		s-0.594-0.865-0.594-1.416v-3c0-0.544,0.198-1.012,0.594-1.404s0.866-0.588,1.41-0.588h2.004c0.544,0,1.012,0.196,1.404,0.588
		s0.588,0.86,0.588,1.404V7.885z M15.421,6.891h2.004V5.882c0-0.272-0.098-0.506-0.294-0.702c-0.196-0.196-0.434-0.294-0.714-0.294
		c-0.272,0-0.506,0.098-0.702,0.294c-0.196,0.196-0.294,0.43-0.294,0.702V6.891z"/>
	<path fill="#FFFFFF" d="M25.43,6.891V5.882c0-0.272-0.098-0.506-0.293-0.702c-0.197-0.196-0.435-0.294-0.715-0.294h-0.996
		c-0.592,0-0.924,0.332-0.996,0.996h-1.008c0.16-1.328,0.828-1.992,2.004-1.992h2.004c0.545,0,1.012,0.196,1.404,0.588
		s0.588,0.86,0.588,1.404v5.004H25.43V9.892c-0.08,0.664-0.416,0.995-1.008,0.995h-0.996c-0.544,0-1.014-0.196-1.41-0.588
		c-0.396-0.392-0.594-0.865-0.594-1.416c0-0.545,0.198-1.013,0.594-1.405c0.396-0.392,0.866-0.588,1.41-0.588L25.43,6.891
		L25.43,6.891z M25.43,7.885h-1.008c-0.271,0-0.506,0.099-0.701,0.294c-0.197,0.197-0.295,0.431-0.295,0.703
		c0,0.271,0.098,0.508,0.295,0.708c0.195,0.2,0.43,0.301,0.701,0.301c0.28,0,0.518-0.101,0.715-0.301
		c0.195-0.2,0.293-0.437,0.293-0.708V7.885L25.43,7.885z"/>
	<path fill="#FFFFFF" d="M31.43,10.887h-2.004V3.891h2.004v1.992c0.08-0.664,0.286-1.162,0.618-1.494s0.794-0.498,1.386-0.498h0.996
		v1.992h-2.004c-0.271,0-0.506,0.098-0.701,0.294C31.527,6.373,31.43,6.61,31.43,6.891V10.887z"/>
</g>
</svg>
