<?xml version="1.0" encoding="utf-8"?>
<!-- Generator: Adobe Illustrator 16.0.0, SVG Export Plug-In . SVG Version: 6.00 Build 0)  -->
<!DOCTYPE svg PUBLIC "-//W3C//DTD SVG 1.1//EN" "http://www.w3.org/Graphics/SVG/1.1/DTD/svg11.dtd">
<svg version="1.1"
	 id="svg12553" xmlns:dc="http://purl.org/dc/elements/1.1/" xmlns:cc="http://creativecommons.org/ns#" xmlns:rdf="http://www.w3.org/1999/02/22-rdf-syntax-ns#" xmlns:svg="http://www.w3.org/2000/svg" xmlns:sodipodi="http://sodipodi.sourceforge.net/DTD/sodipodi-0.dtd" xmlns:inkscape="http://www.inkscape.org/namespaces/inkscape" inkscape:version="0.92.2 5c3e80d, 2017-08-06" sodipodi:docname="SEQ3.svg"
	 xmlns="http://www.w3.org/2000/svg" xmlns:xlink="http://www.w3.org/1999/xlink" x="0px" y="0px" width="33.184px"
	 height="16.296px" viewBox="0 0 33.184 16.296" enable-background="new 0 0 33.184 16.296" xml:space="preserve">
<rect x="0" width="33.184" height="16.296"/>
<g>
	<path fill="#FFFFFF" d="M7.489,8.92c-0.079,1.336-0.743,2.004-1.991,2.004H3.493c-0.544,0-1.017-0.193-1.41-0.588
		C1.687,9.944,1.489,9.473,1.489,8.92V3.926c0-0.544,0.194-1.014,0.582-1.41C2.459,2.12,2.933,1.922,3.493,1.922h2.004
		c1.255,0,1.919,0.668,1.989,2.004H6.493c-0.08-0.672-0.412-1.008-0.996-1.008H4.489c-0.271,0-0.506,0.098-0.699,0.294
		C3.591,3.408,3.493,3.646,3.493,3.926V8.92c0,0.271,0.098,0.508,0.294,0.707c0.193,0.199,0.43,0.301,0.699,0.301h1.011
		c0.592,0,0.923-0.336,0.996-1.008H7.489L7.489,8.92z"/>
	<path fill="#FFFFFF" d="M11.497,3.926h2.004c0.544,0,1.012,0.196,1.401,0.588c0.395,0.392,0.591,0.86,0.591,1.404v3
		c0,0.545-0.196,1.017-0.591,1.41c-0.393,0.395-0.857,0.594-1.401,0.594h-2.004c-0.544,0-1.017-0.193-1.41-0.588
		C9.691,9.944,9.493,9.471,9.493,8.92v-3c0-0.544,0.195-1.012,0.594-1.404C10.483,4.124,10.953,3.926,11.497,3.926z M11.497,5.919v3
		c0,0.271,0.098,0.508,0.294,0.707c0.193,0.198,0.43,0.301,0.702,0.301c0.277,0,0.518-0.103,0.714-0.301
		c0.193-0.199,0.294-0.438,0.294-0.707v-3c0-0.272-0.101-0.506-0.294-0.702c-0.196-0.196-0.437-0.294-0.714-0.294
		c-0.272,0-0.509,0.098-0.702,0.294C11.595,5.414,11.497,5.647,11.497,5.919z"/>
	<path fill="#FFFFFF" d="M17.497,3.926h2.004v0.996c0-0.336,0.084-0.586,0.252-0.75s0.416-0.246,0.744-0.246h1.008
		c0.544,0,1.013,0.196,1.403,0.588c0.393,0.392,0.589,0.86,0.589,1.404v3c0,0.553-0.196,1.023-0.589,1.416
		c-0.394,0.395-0.859,0.588-1.403,0.588h-2.004v2.006h-2.004V3.926z M19.501,9.928h0.996c0.277,0,0.518-0.101,0.714-0.295
		c0.195-0.194,0.294-0.435,0.294-0.713v-3c0-0.272-0.099-0.506-0.294-0.702c-0.196-0.196-0.437-0.294-0.714-0.294
		c-0.272,0-0.507,0.098-0.702,0.294c-0.196,0.196-0.294,0.43-0.294,0.702V9.928z"/>
	<path fill="#FFFFFF" d="M26.509,11.922c0.048,0.672,0.38,1.008,0.996,1.008h0.996c0.28,0,0.519-0.1,0.714-0.295
		c0.195-0.193,0.294-0.434,0.294-0.713V9.928c-0.08,0.664-0.416,0.996-1.008,0.996h-0.996c-0.544,0-1.015-0.194-1.41-0.588
		C25.7,9.944,25.501,9.473,25.501,8.92V3.926h2.004V8.92c0,0.271,0.099,0.508,0.294,0.707s0.43,0.301,0.702,0.301
		c0.28,0,0.519-0.102,0.714-0.301s0.294-0.436,0.294-0.707V3.926h1.992v7.994c0,0.545-0.196,1.018-0.588,1.41
		c-0.395,0.396-0.86,0.596-1.404,0.596h-2.004c-1.177,0-1.845-0.668-2.004-2.006L26.509,11.922L26.509,11.922z"/>
</g>
</svg>
