<?xml version="1.0" encoding="utf-8"?>
<!-- Generator: Adobe Illustrator 16.0.0, SVG Export Plug-In . SVG Version: 6.00 Build 0)  -->
<!DOCTYPE svg PUBLIC "-//W3C//DTD SVG 1.1//EN" "http://www.w3.org/Graphics/SVG/1.1/DTD/svg11.dtd">
<svg version="1.1"
	 id="svg12553" xmlns:dc="http://purl.org/dc/elements/1.1/" xmlns:cc="http://creativecommons.org/ns#" xmlns:rdf="http://www.w3.org/1999/02/22-rdf-syntax-ns#" xmlns:svg="http://www.w3.org/2000/svg" xmlns:sodipodi="http://sodipodi.sourceforge.net/DTD/sodipodi-0.dtd" xmlns:inkscape="http://www.inkscape.org/namespaces/inkscape" inkscape:version="0.92.2 5c3e80d, 2017-08-06" sodipodi:docname="SEQ3.svg"
	 xmlns="http://www.w3.org/2000/svg" xmlns:xlink="http://www.w3.org/1999/xlink" x="0px" y="0px" width="235.758px"
	 height="288.129px" viewBox="0 0 235.758 288.129" enable-background="new 0 0 235.758 288.129" xml:space="preserve">
<rect x="0" width="9.723" height="16.464"/>
<rect x="2.497" y="18.438" stroke="#000000" stroke-miterlimit="10" width="151.778" height="231.333"/>
<g>
	<path fill="#FFFFFF" d="M4.107,7.886V6.89c0-0.832,0.433-1.508,1.296-2.028l0.168-0.096c0.36-0.216,0.54-0.508,0.54-0.876
		c0-0.272-0.098-0.508-0.294-0.708c-0.195-0.2-0.434-0.3-0.714-0.3H4.107c-0.615,0-0.947,0.336-0.996,1.008H2.103
		c0.16-1.336,0.828-2.004,2.004-2.004h2.004c0.544,0,1.013,0.196,1.404,0.588C7.907,2.866,8.103,3.337,8.103,3.89
		c0,0.864-0.38,1.464-1.14,1.8L6.807,5.761c-0.36,0.16-0.565,0.315-0.618,0.468C6.137,6.381,6.111,6.602,6.111,6.89v0.996H4.107z
		 M4.107,10.887V8.882h2.004v2.005H4.107z"/>
</g>
<rect x="0.496" y="16.464" fill="#FFFFFF" stroke="#000000" stroke-miterlimit="10" width="151.781" height="231.333"/>
<path d="M17.223,51.142h-1.992v-5.004c0-0.271-0.098-0.506-0.294-0.702c-0.196-0.196-0.434-0.294-0.714-0.294
	c-0.272,0-0.506,0.098-0.702,0.294c-0.196,0.196-0.294,0.431-0.294,0.702v5.004h-2.004v-6.996h2.004v0.996
	c0.04-0.336,0.144-0.586,0.312-0.75s0.396-0.246,0.684-0.246h1.008c0.68,0,1.18,0.236,1.5,0.708c0.16-0.24,0.364-0.418,0.612-0.534
	c0.247-0.115,0.544-0.174,0.888-0.174h0.996c0.544,0,1.014,0.196,1.41,0.588c0.396,0.393,0.594,0.86,0.594,1.404v5.004h-2.004
	v-5.004c0-0.264-0.098-0.496-0.294-0.696c-0.196-0.199-0.431-0.3-0.702-0.3s-0.508,0.098-0.708,0.294
	c-0.2,0.196-0.3,0.431-0.3,0.702V51.142L17.223,51.142z"/>
<path d="M27.231,47.146v-1.008c0-0.271-0.098-0.506-0.294-0.702c-0.196-0.196-0.435-0.294-0.714-0.294h-0.996
	c-0.592,0-0.924,0.332-0.996,0.996h-1.008c0.16-1.328,0.828-1.992,2.004-1.992h2.004c0.544,0,1.012,0.196,1.404,0.588
	c0.392,0.393,0.588,0.86,0.588,1.404v5.004h-1.992v-0.996c-0.08,0.664-0.416,0.996-1.008,0.996h-0.996
	c-0.544,0-1.014-0.196-1.41-0.588s-0.594-0.864-0.594-1.416c0-0.544,0.197-1.012,0.594-1.404c0.396-0.392,0.866-0.588,1.41-0.588
	H27.231z M27.231,48.142h-1.008c-0.271,0-0.506,0.098-0.702,0.294c-0.196,0.196-0.294,0.431-0.294,0.702s0.098,0.508,0.294,0.708
	s0.431,0.3,0.702,0.3c0.279,0,0.518-0.1,0.714-0.3s0.294-0.437,0.294-0.708V48.142z"/>
<path d="M36.231,46.138h-0.996c-0.08-0.664-0.416-0.996-1.008-0.996c-0.271,0-0.506,0.098-0.702,0.294
	c-0.196,0.196-0.294,0.431-0.294,0.702v3c0,0.271,0.098,0.508,0.294,0.708c0.196,0.2,0.431,0.3,0.702,0.3
	c0.592,0,0.928-0.336,1.008-1.008h0.996c-0.08,1.336-0.748,2.004-2.004,2.004h-0.996c-0.544,0-1.014-0.196-1.41-0.588
	s-0.594-0.864-0.594-1.416v-3c0-0.544,0.197-1.012,0.594-1.404c0.396-0.392,0.866-0.588,1.41-0.588h0.996
	C35.49,44.146,36.158,44.81,36.231,46.138z"/>
<path d="M44.223,51.142h-1.992v-0.996c-0.08,0.664-0.416,0.996-1.008,0.996h-0.996c-0.544,0-1.014-0.196-1.41-0.588
	s-0.594-0.864-0.594-1.416v-3c0-0.544,0.197-1.012,0.594-1.404c0.396-0.392,0.866-0.588,1.41-0.588h2.004v-2.004h1.992V51.142
	L44.223,51.142z M42.231,45.142h-1.008c-0.271,0-0.506,0.098-0.702,0.294c-0.196,0.196-0.294,0.431-0.294,0.702v3
	c0,0.271,0.098,0.508,0.294,0.708s0.431,0.3,0.702,0.3c0.279,0,0.518-0.1,0.714-0.3s0.294-0.437,0.294-0.708V45.142z"/>
<path d="M48.231,51.142h-2.004v-6.996h2.004v1.992c0.08-0.664,0.286-1.162,0.618-1.494c0.331-0.332,0.794-0.498,1.386-0.498h0.996
	v1.992h-2.004c-0.271,0-0.506,0.098-0.702,0.294c-0.196,0.196-0.294,0.434-0.294,0.714V51.142z"/>
<path d="M58.227,44.146v6.996h-1.992v-0.996c-0.08,0.664-0.416,0.996-1.008,0.996h-0.996c-0.544,0-1.014-0.196-1.41-0.588
	s-0.594-0.864-0.594-1.416v-4.992h2.004v4.992c0,0.271,0.098,0.508,0.294,0.708c0.196,0.2,0.431,0.3,0.702,0.3
	c0.279,0,0.518-0.1,0.714-0.3c0.196-0.2,0.294-0.437,0.294-0.708v-4.992H58.227z"/>
<path d="M66.231,51.142h-1.992v-5.004c0-0.271-0.098-0.506-0.294-0.702c-0.196-0.196-0.435-0.294-0.714-0.294
	c-0.271,0-0.506,0.098-0.702,0.294c-0.196,0.196-0.294,0.431-0.294,0.702v5.004h-2.004v-6.996h2.004v0.996
	c0.04-0.336,0.145-0.586,0.312-0.75s0.396-0.246,0.684-0.246h1.008c0.68,0,1.18,0.236,1.5,0.708c0.16-0.24,0.364-0.418,0.612-0.534
	c0.247-0.115,0.544-0.174,0.888-0.174h0.996c0.544,0,1.014,0.196,1.41,0.588c0.396,0.393,0.594,0.86,0.594,1.404v5.004h-2.004
	v-5.004c0-0.264-0.098-0.496-0.294-0.696c-0.196-0.199-0.431-0.3-0.702-0.3c-0.271,0-0.508,0.098-0.708,0.294
	c-0.2,0.196-0.3,0.431-0.3,0.702V51.142L66.231,51.142z"/>
<path d="M77.235,46.138h-0.996c-0.088-0.664-0.404-0.996-0.947-0.996c-0.353,0-0.617,0.07-0.793,0.21
	c-0.176,0.14-0.264,0.346-0.264,0.618c0,0.288,0.484,0.692,1.452,1.212c0.792,0.424,1.248,0.776,1.368,1.056
	c0.119,0.28,0.18,0.58,0.18,0.9c0,0.552-0.196,1.024-0.588,1.416c-0.393,0.392-0.864,0.588-1.416,0.588h-0.996
	c-1.336,0-2.004-0.668-2.004-2.004h1.008c0.08,0.672,0.393,1.008,0.936,1.008c0.36,0,0.629-0.07,0.805-0.21
	c0.176-0.14,0.264-0.35,0.264-0.63c0-0.28-0.484-0.68-1.451-1.2c-0.793-0.424-1.25-0.775-1.375-1.056
	c-0.123-0.28-0.186-0.58-0.186-0.9c0-0.552,0.197-1.023,0.594-1.416c0.396-0.392,0.866-0.588,1.41-0.588h0.996
	C76.487,44.146,77.155,44.81,77.235,46.138z"/>
<path d="M16.227,58.927h-0.996c-0.08-0.664-0.416-0.996-1.008-0.996c-0.272,0-0.506,0.098-0.702,0.294
	c-0.196,0.196-0.294,0.431-0.294,0.702v3c0,0.271,0.098,0.508,0.294,0.708c0.196,0.2,0.43,0.3,0.702,0.3
	c0.592,0,0.928-0.336,1.008-1.008h0.996c-0.08,1.336-0.748,2.004-2.004,2.004h-0.996c-0.544,0-1.014-0.196-1.41-0.588
	c-0.396-0.392-0.594-0.864-0.594-1.416v-3c0-0.544,0.198-1.012,0.594-1.404s0.866-0.588,1.41-0.588h0.996
	C15.487,56.935,16.155,57.599,16.227,58.927z"/>
<path d="M20.223,56.935h2.004c0.544,0,1.012,0.196,1.404,0.588c0.392,0.393,0.588,0.86,0.588,1.404v3
	c0,0.544-0.196,1.014-0.588,1.41c-0.393,0.396-0.86,0.594-1.404,0.594h-2.004c-0.544,0-1.014-0.196-1.41-0.588
	c-0.396-0.392-0.594-0.864-0.594-1.416v-3c0-0.544,0.197-1.012,0.594-1.404C19.209,57.131,19.679,56.935,20.223,56.935z
	 M20.223,58.927v3c0,0.271,0.098,0.508,0.294,0.708c0.196,0.2,0.431,0.3,0.702,0.3c0.279,0,0.518-0.1,0.714-0.3
	c0.196-0.2,0.294-0.437,0.294-0.708v-3c0-0.271-0.098-0.506-0.294-0.702c-0.196-0.196-0.435-0.294-0.714-0.294
	c-0.271,0-0.506,0.098-0.702,0.294C20.321,58.421,20.223,58.655,20.223,58.927z"/>
<path d="M32.223,63.931h-1.992v-0.996c-0.08,0.664-0.416,0.996-1.008,0.996h-0.996c-0.544,0-1.014-0.196-1.41-0.588
	c-0.396-0.392-0.594-0.864-0.594-1.416v-3c0-0.544,0.197-1.012,0.594-1.404c0.396-0.392,0.866-0.588,1.41-0.588h2.004v-2.004h1.992
	V63.931z M30.231,57.931h-1.008c-0.271,0-0.506,0.098-0.702,0.294c-0.196,0.196-0.294,0.431-0.294,0.702v3
	c0,0.271,0.098,0.508,0.294,0.708c0.196,0.2,0.431,0.3,0.702,0.3c0.279,0,0.518-0.1,0.714-0.3c0.196-0.2,0.294-0.437,0.294-0.708
	V57.931z"/>
<path d="M40.227,60.931h-3.996v0.996c0,0.271,0.098,0.508,0.294,0.708c0.196,0.2,0.431,0.3,0.702,0.3h1.008
	c0.664,0,0.996-0.336,0.996-1.008h0.996c-0.152,1.336-0.816,2.004-1.992,2.004h-2.004c-0.544,0-1.014-0.196-1.41-0.588
	c-0.396-0.392-0.594-0.864-0.594-1.416v-3c0-0.544,0.197-1.012,0.594-1.404c0.396-0.392,0.866-0.588,1.41-0.588h2.004
	c0.544,0,1.012,0.196,1.404,0.588c0.392,0.393,0.588,0.86,0.588,1.404V60.931L40.227,60.931z M36.231,59.935h2.004v-1.008
	c0-0.271-0.098-0.506-0.294-0.702c-0.196-0.196-0.435-0.294-0.714-0.294c-0.271,0-0.506,0.098-0.702,0.294
	c-0.196,0.196-0.294,0.431-0.294,0.702V59.935z"/>
<path d="M48.231,63.931h-1.992v-0.996c-0.08,0.664-0.416,0.996-1.008,0.996h-0.996c-0.544,0-1.014-0.196-1.41-0.588
	c-0.396-0.392-0.594-0.864-0.594-1.416v-3c0-0.544,0.197-1.012,0.594-1.404c0.396-0.392,0.866-0.588,1.41-0.588h2.004v-2.004h1.992
	V63.931z M46.239,57.931h-1.008c-0.271,0-0.506,0.098-0.702,0.294c-0.196,0.196-0.294,0.431-0.294,0.702v3
	c0,0.271,0.098,0.508,0.294,0.708c0.196,0.2,0.431,0.3,0.702,0.3c0.279,0,0.518-0.1,0.714-0.3c0.196-0.2,0.294-0.437,0.294-0.708
	V57.931z"/>
<path d="M53.235,55.927v-0.996h2.004v0.996H53.235z M53.235,63.931v-6.996h2.004v6.996H53.235z"/>
<path d="M57.231,63.931v-6.996h2.004v0.996c0.04-0.336,0.145-0.586,0.312-0.75s0.396-0.246,0.684-0.246h1.008
	c0.544,0,1.012,0.196,1.404,0.588c0.392,0.393,0.588,0.86,0.588,1.404v5.004h-1.992v-5.004c0-0.271-0.098-0.506-0.294-0.702
	c-0.196-0.196-0.435-0.294-0.714-0.294c-0.271,0-0.506,0.098-0.702,0.294c-0.196,0.196-0.294,0.431-0.294,0.702v5.004H57.231z"/>
<path d="M70.239,63.931v-6.996h-0.996v-1.008l1.992-0.996h1.008v9H70.239z"/>
<path d="M80.246,59.935c-0.08,0.664-0.416,0.996-1.008,0.996h-0.996c-0.544,0-1.014-0.196-1.41-0.588
	c-0.396-0.392-0.594-0.864-0.594-1.416v-1.992c0-0.544,0.197-1.014,0.594-1.41c0.396-0.396,0.866-0.594,1.41-0.594h2.004
	c0.544,0,1.012,0.198,1.404,0.594s0.588,0.866,0.588,1.41v3.492c0,0.96-0.342,1.784-1.025,2.472
	c-0.685,0.688-1.507,1.032-2.467,1.032h-1.5v-0.996h0.996c0.552,0,1.023-0.198,1.416-0.594c0.393-0.396,0.588-0.866,0.588-1.41
	V59.935L80.246,59.935z M78.242,56.935v1.992c0,0.271,0.098,0.508,0.294,0.708c0.196,0.2,0.431,0.3,0.702,0.3
	c0.279,0,0.518-0.1,0.714-0.3c0.196-0.2,0.294-0.437,0.294-0.708v-1.992c0-0.28-0.098-0.518-0.294-0.714
	c-0.196-0.196-0.435-0.294-0.714-0.294c-0.271,0-0.506,0.1-0.702,0.3C78.34,56.427,78.242,56.663,78.242,56.935z"/>
<path d="M88.25,59.431c0.664,0,1.162,0.216,1.494,0.648c0.332,0.432,0.498,0.884,0.498,1.355v0.492c0,0.448-0.191,0.894-0.576,1.338
	c-0.384,0.444-0.855,0.666-1.416,0.666h-2.004c-0.561,0-1.034-0.222-1.422-0.666c-0.389-0.444-0.582-0.89-0.582-1.338v-0.492
	c0-0.472,0.168-0.924,0.504-1.355c0.336-0.433,0.836-0.648,1.5-0.648c-0.664-0.08-1.164-0.286-1.5-0.618s-0.504-0.794-0.504-1.386
	v-0.492c0-0.544,0.197-1.014,0.594-1.41c0.396-0.396,0.866-0.594,1.41-0.594h2.004c0.544,0,1.012,0.198,1.404,0.594
	c0.392,0.396,0.588,0.866,0.588,1.41v0.492c0,0.592-0.166,1.054-0.498,1.386S88.914,59.351,88.25,59.431z M88.25,57.931v-0.996
	c0-0.28-0.098-0.518-0.294-0.714c-0.196-0.196-0.435-0.294-0.714-0.294c-0.271,0-0.506,0.098-0.702,0.294
	c-0.196,0.196-0.294,0.434-0.294,0.714v0.996c0,0.272,0.098,0.506,0.294,0.702c0.196,0.196,0.431,0.294,0.702,0.294
	c0.279,0,0.518-0.098,0.714-0.294C88.152,58.437,88.25,58.203,88.25,57.931z M88.25,61.927v-0.996c0-0.664-0.336-0.996-1.008-0.996
	c-0.664,0-0.996,0.332-0.996,0.996v0.996c0,0.28,0.098,0.518,0.294,0.714c0.196,0.196,0.431,0.294,0.702,0.294
	c0.279,0,0.518-0.098,0.714-0.294C88.152,62.445,88.25,62.207,88.25,61.927z"/>
<path d="M92.246,54.931h6v2.004l-0.492,0.996l-0.504,0.996c-0.664,1.408-0.996,2.408-0.996,3v2.004H94.25v-2.004
	c0-0.664,0.332-1.664,0.996-3l1.008-1.992v-1.008h-4.008V54.931z"/>
<path d="M12.231,78.331v-6h-1.008v-0.996h1.008v-0.096c0-0.521,0.188-0.968,0.564-1.344s0.824-0.564,1.344-0.564h2.088v0.996h-1.092
	c-0.248,0-0.462,0.09-0.642,0.27c-0.18,0.181-0.27,0.395-0.27,0.643v0.096h1.008v0.996h-1.008v6L12.231,78.331L12.231,78.331z"/>
<path d="M19.227,71.335h2.004c0.544,0,1.012,0.196,1.404,0.588c0.392,0.393,0.588,0.86,0.588,1.404v3
	c0,0.544-0.196,1.014-0.588,1.41c-0.393,0.396-0.86,0.594-1.404,0.594h-2.004c-0.544,0-1.014-0.196-1.41-0.588
	c-0.396-0.392-0.594-0.864-0.594-1.416v-3c0-0.544,0.197-1.012,0.594-1.404C18.213,71.531,18.683,71.335,19.227,71.335z
	 M19.227,73.327v3c0,0.271,0.098,0.508,0.294,0.708c0.196,0.2,0.431,0.3,0.702,0.3c0.279,0,0.518-0.1,0.714-0.3
	c0.196-0.2,0.294-0.437,0.294-0.708v-3c0-0.271-0.098-0.506-0.294-0.702s-0.435-0.294-0.714-0.294c-0.271,0-0.506,0.098-0.702,0.294
	S19.227,73.056,19.227,73.327z"/>
<path d="M27.231,78.331h-2.004v-6.996h2.004v1.992c0.08-0.664,0.286-1.162,0.618-1.494c0.331-0.332,0.794-0.498,1.386-0.498h0.996
	v1.992h-2.004c-0.271,0-0.506,0.098-0.702,0.294c-0.196,0.196-0.294,0.434-0.294,0.714V78.331z"/>
<path d="M40.227,78.331h-1.992v-5.004c0-0.271-0.098-0.506-0.294-0.702c-0.196-0.196-0.435-0.294-0.714-0.294
	c-0.271,0-0.506,0.098-0.702,0.294c-0.196,0.196-0.294,0.431-0.294,0.702v5.004h-2.004v-6.996h2.004v0.996
	c0.04-0.336,0.145-0.586,0.312-0.75s0.396-0.246,0.684-0.246h1.008c0.68,0,1.18,0.236,1.5,0.708c0.16-0.24,0.364-0.418,0.612-0.534
	c0.247-0.115,0.544-0.174,0.888-0.174h0.996c0.544,0,1.014,0.196,1.41,0.588c0.396,0.393,0.594,0.86,0.594,1.404v5.004h-2.004
	v-5.004c0-0.264-0.098-0.496-0.294-0.696c-0.196-0.199-0.431-0.3-0.702-0.3s-0.508,0.098-0.708,0.294
	c-0.2,0.196-0.3,0.431-0.3,0.702V78.331z"/>
<path d="M50.235,74.335v-1.008c0-0.271-0.098-0.506-0.294-0.702c-0.196-0.196-0.435-0.294-0.714-0.294h-0.996
	c-0.592,0-0.924,0.332-0.996,0.996h-1.008c0.16-1.328,0.828-1.992,2.004-1.992h2.004c0.544,0,1.012,0.196,1.404,0.588
	c0.392,0.393,0.588,0.86,0.588,1.404v5.004h-1.992v-0.996c-0.08,0.664-0.416,0.996-1.008,0.996h-0.996
	c-0.544,0-1.014-0.196-1.41-0.588c-0.396-0.392-0.594-0.864-0.594-1.416c0-0.544,0.197-1.012,0.594-1.404
	c0.396-0.392,0.866-0.588,1.41-0.588H50.235z M50.235,75.331h-1.008c-0.271,0-0.506,0.098-0.702,0.294
	c-0.196,0.196-0.294,0.431-0.294,0.702s0.098,0.508,0.294,0.708c0.196,0.2,0.431,0.3,0.702,0.3c0.279,0,0.518-0.1,0.714-0.3
	c0.196-0.2,0.294-0.437,0.294-0.708V75.331z"/>
<path d="M59.235,73.327h-0.996c-0.08-0.664-0.416-0.996-1.008-0.996c-0.271,0-0.506,0.098-0.702,0.294
	c-0.196,0.196-0.294,0.431-0.294,0.702v3c0,0.271,0.098,0.508,0.294,0.708c0.196,0.2,0.431,0.3,0.702,0.3
	c0.592,0,0.928-0.336,1.008-1.008h0.996c-0.08,1.336-0.748,2.004-2.004,2.004h-0.996c-0.544,0-1.014-0.196-1.41-0.588
	c-0.396-0.392-0.594-0.864-0.594-1.416v-3c0-0.544,0.197-1.012,0.594-1.404c0.396-0.392,0.866-0.588,1.41-0.588h0.996
	C58.494,71.335,59.162,71.999,59.235,73.327z"/>
<path d="M66.231,73.327c0.04-0.328,0.145-0.576,0.312-0.744s0.396-0.252,0.684-0.252h1.008c0.544,0,1.012,0.196,1.404,0.588
	c0.392,0.393,0.588,0.864,0.588,1.416v1.992c0,0.544-0.196,1.014-0.588,1.41c-0.393,0.396-0.86,0.594-1.404,0.594h-2.004
	c-0.544,0-1.014-0.198-1.41-0.594s-0.594-0.866-0.594-1.41v-3.492c0-0.96,0.346-1.784,1.038-2.472s1.514-1.032,2.466-1.032h1.5
	v0.996h-0.996c-0.552,0-1.023,0.198-1.416,0.594s-0.588,0.866-0.588,1.41V73.327z M68.235,76.327v-1.992
	c0-0.28-0.098-0.518-0.294-0.714c-0.196-0.196-0.435-0.294-0.714-0.294c-0.271,0-0.506,0.098-0.702,0.294
	c-0.196,0.196-0.294,0.434-0.294,0.714v1.992c0,0.271,0.098,0.508,0.294,0.708c0.196,0.2,0.431,0.3,0.702,0.3
	c0.279,0,0.518-0.1,0.714-0.3C68.137,76.835,68.235,76.599,68.235,76.327z"/>
<path d="M76.239,73.831c0.664,0,1.162,0.216,1.494,0.648s0.498,0.884,0.498,1.355v0.492c0,0.448-0.191,0.894-0.576,1.338
	c-0.384,0.444-0.855,0.666-1.416,0.666h-2.004c-0.561,0-1.034-0.222-1.422-0.666c-0.389-0.444-0.582-0.89-0.582-1.338v-0.492
	c0-0.472,0.168-0.924,0.504-1.355c0.336-0.433,0.836-0.648,1.5-0.648c-0.664-0.08-1.164-0.286-1.5-0.618s-0.504-0.794-0.504-1.386
	v-0.492c0-0.544,0.197-1.014,0.594-1.41c0.396-0.396,0.866-0.594,1.41-0.594h2.004c0.544,0,1.012,0.198,1.404,0.594
	s0.588,0.866,0.588,1.41v0.492c0,0.592-0.166,1.054-0.498,1.386S76.903,73.751,76.239,73.831z M76.239,72.331v-0.996
	c0-0.28-0.098-0.518-0.294-0.714c-0.196-0.196-0.435-0.294-0.714-0.294c-0.271,0-0.506,0.098-0.702,0.294
	c-0.196,0.196-0.294,0.434-0.294,0.714v0.996c0,0.272,0.098,0.506,0.294,0.702c0.196,0.196,0.431,0.294,0.702,0.294
	c0.279,0,0.518-0.098,0.714-0.294C76.141,72.837,76.239,72.604,76.239,72.331z M76.239,76.327v-0.996
	c0-0.664-0.336-0.996-1.008-0.996c-0.664,0-0.996,0.332-0.996,0.996v0.996c0,0.28,0.098,0.518,0.294,0.714
	c0.196,0.196,0.431,0.294,0.702,0.294c0.279,0,0.518-0.098,0.714-0.294C76.141,76.845,76.239,76.607,76.239,76.327z"/>
<path d="M82.239,69.331h2.004c0.544,0,1.012,0.198,1.404,0.594s0.588,0.866,0.588,1.41v4.992c0,0.544-0.196,1.014-0.588,1.41
	c-0.393,0.396-0.86,0.594-1.404,0.594h-2.004c-0.544,0-1.014-0.196-1.41-0.588c-0.396-0.392-0.594-0.864-0.594-1.416v-4.992
	c0-0.552,0.197-1.023,0.594-1.416C81.225,69.527,81.695,69.331,82.239,69.331z M84.231,71.155c-0.145-0.552-0.477-0.828-0.996-0.828
	c-0.271,0-0.506,0.098-0.702,0.294c-0.196,0.196-0.294,0.434-0.294,0.714v3.396L84.231,71.155z M82.262,76.495
	c0.049,0.272,0.154,0.479,0.318,0.624c0.164,0.144,0.383,0.216,0.654,0.216c0.279,0,0.518-0.1,0.714-0.3
	c0.196-0.2,0.294-0.437,0.294-0.708v-3.396L82.262,76.495z"/>
<path d="M90.242,69.331h2.004c0.544,0,1.012,0.198,1.404,0.594s0.588,0.866,0.588,1.41v4.992c0,0.544-0.196,1.014-0.588,1.41
	c-0.393,0.396-0.86,0.594-1.404,0.594h-2.004c-0.544,0-1.014-0.196-1.41-0.588c-0.396-0.392-0.594-0.864-0.594-1.416v-4.992
	c0-0.552,0.197-1.023,0.594-1.416C89.229,69.527,89.698,69.331,90.242,69.331z M92.235,71.155c-0.145-0.552-0.477-0.828-0.996-0.828
	c-0.271,0-0.506,0.098-0.702,0.294c-0.196,0.196-0.294,0.434-0.294,0.714v3.396L92.235,71.155z M90.266,76.495
	c0.049,0.272,0.154,0.479,0.318,0.624c0.164,0.144,0.383,0.216,0.654,0.216c0.279,0,0.518-0.1,0.714-0.3
	c0.196-0.2,0.294-0.437,0.294-0.708v-3.396L90.266,76.495z"/>
<path d="M98.246,69.331h2.004c0.544,0,1.012,0.198,1.404,0.594c0.392,0.396,0.588,0.866,0.588,1.41v4.992
	c0,0.544-0.196,1.014-0.588,1.41c-0.393,0.396-0.86,0.594-1.404,0.594h-2.004c-0.544,0-1.014-0.196-1.41-0.588
	c-0.396-0.392-0.594-0.864-0.594-1.416v-4.992c0-0.552,0.197-1.023,0.594-1.416C97.233,69.527,97.702,69.331,98.246,69.331z
	 M100.239,71.155c-0.145-0.552-0.477-0.828-0.996-0.828c-0.271,0-0.506,0.098-0.702,0.294c-0.196,0.196-0.294,0.434-0.294,0.714
	v3.396L100.239,71.155z M98.27,76.495c0.049,0.272,0.154,0.479,0.318,0.624c0.164,0.144,0.383,0.216,0.654,0.216
	c0.279,0,0.518-0.1,0.714-0.3c0.196-0.2,0.294-0.437,0.294-0.708v-3.396L98.27,76.495z"/>
<path d="M11.223,92.73v-9h2.004v3c0.04-0.336,0.144-0.586,0.312-0.75s0.396-0.246,0.684-0.246h1.008
	c0.544,0,1.012,0.196,1.404,0.588c0.392,0.393,0.588,0.86,0.588,1.404v3c0,0.544-0.196,1.014-0.588,1.41
	c-0.392,0.396-0.86,0.594-1.404,0.594H11.223z M13.227,91.734h0.996c0.28,0,0.518-0.1,0.714-0.3c0.196-0.2,0.294-0.437,0.294-0.708
	v-3c0-0.271-0.098-0.506-0.294-0.702c-0.196-0.196-0.434-0.294-0.714-0.294c-0.272,0-0.506,0.098-0.702,0.294
	c-0.196,0.196-0.294,0.431-0.294,0.702V91.734z"/>
<path d="M20.235,93.727c0.048,0.672,0.38,1.008,0.996,1.008h0.996c0.279,0,0.518-0.098,0.714-0.294
	c0.196-0.196,0.294-0.434,0.294-0.714v-1.992c-0.08,0.664-0.416,0.996-1.008,0.996h-0.996c-0.544,0-1.014-0.196-1.41-0.588
	s-0.594-0.864-0.594-1.416v-4.992h2.004v4.992c0,0.271,0.098,0.508,0.294,0.708c0.196,0.2,0.431,0.3,0.702,0.3
	c0.279,0,0.518-0.1,0.714-0.3c0.196-0.2,0.294-0.437,0.294-0.708v-4.992h1.992v7.992c0,0.544-0.196,1.014-0.588,1.41
	c-0.393,0.396-0.86,0.594-1.404,0.594h-2.004c-1.176,0-1.844-0.668-2.004-2.004H20.235L20.235,93.727z"/>
<path d="M11.223,107.131v-9h2.004v3.672l3.24-3.672h1.764l-4.008,4.5l4.008,4.5h-2.004l-3-3.504v3.504H11.223z"/>
<path d="M22.227,107.131h-2.004v-6.996h2.004v1.992c0.08-0.664,0.286-1.162,0.618-1.494c0.331-0.332,0.794-0.498,1.386-0.498h0.996
	v1.992h-2.004c-0.271,0-0.506,0.098-0.702,0.294c-0.196,0.196-0.294,0.434-0.294,0.714V107.131z"/>
<path d="M26.223,99.127v-0.996h2.004v0.996H26.223z M26.223,107.131v-6.996h2.004v6.996H26.223z"/>
<path d="M35.223,102.127h-0.996c-0.088-0.664-0.404-0.996-0.947-0.996c-0.353,0-0.617,0.07-0.793,0.21
	c-0.176,0.14-0.264,0.346-0.264,0.618c0,0.288,0.484,0.692,1.452,1.212c0.792,0.424,1.248,0.776,1.368,1.056
	c0.119,0.28,0.18,0.58,0.18,0.9c0,0.552-0.196,1.024-0.588,1.416c-0.393,0.392-0.864,0.588-1.416,0.588h-0.996
	c-1.336,0-2.004-0.668-2.004-2.004h1.008c0.08,0.672,0.393,1.008,0.936,1.008c0.36,0,0.629-0.07,0.805-0.21
	c0.176-0.14,0.264-0.35,0.264-0.63c0-0.28-0.484-0.68-1.451-1.2c-0.793-0.424-1.25-0.775-1.375-1.056
	c-0.123-0.28-0.186-0.58-0.186-0.9c0-0.552,0.197-1.023,0.594-1.416c0.396-0.392,0.866-0.588,1.41-0.588h0.996
	C34.475,100.135,35.143,100.799,35.223,102.127z"/>
<path d="M40.215,107.131v-9h2.004v8.004h3v0.996H40.215z"/>
<path d="M47.211,99.127v-0.996h2.004v0.996H47.211z M47.211,107.131v-6.996h2.004v6.996H47.211z"/>
<path d="M55.215,100.135h1.992v3.576c0,0.936-0.334,1.74-1.002,2.412s-1.471,1.008-2.406,1.008h-2.592v-6.996h2.004v6h0.996
	c0.279,0,0.518-0.1,0.714-0.3c0.196-0.2,0.294-0.437,0.294-0.708V100.135z"/>
<path d="M59.211,99.127v-0.996h2.004v0.996H59.211z M59.211,107.131v-6.996h2.004v6.996H59.211z"/>
<path d="M63.207,107.131v-6.996h2.004v0.996c0.04-0.336,0.145-0.586,0.312-0.75s0.396-0.246,0.684-0.246h1.008
	c0.544,0,1.012,0.196,1.404,0.588c0.392,0.393,0.588,0.86,0.588,1.404v5.004h-1.992v-5.004c0-0.271-0.098-0.506-0.294-0.702
	c-0.196-0.196-0.435-0.294-0.714-0.294c-0.271,0-0.506,0.098-0.702,0.294c-0.196,0.196-0.294,0.431-0.294,0.702v5.004H63.207z"/>
<path d="M77.211,100.135v7.992c0,0.544-0.196,1.014-0.588,1.41c-0.393,0.396-0.86,0.594-1.404,0.594h-2.004
	c-1.176,0-1.844-0.668-2.004-2.004h1.008c0.048,0.672,0.38,1.008,0.996,1.008h0.996c0.279,0,0.518-0.098,0.714-0.294
	c0.196-0.196,0.294-0.434,0.294-0.714v-1.992c-0.08,0.664-0.416,0.996-1.008,0.996h-0.996c-0.544,0-1.014-0.196-1.41-0.588
	s-0.594-0.864-0.594-1.416v-3c0-0.544,0.197-1.012,0.594-1.404c0.396-0.392,0.866-0.588,1.41-0.588H77.211z M75.219,101.131h-1.008
	c-0.271,0-0.506,0.098-0.702,0.294c-0.196,0.196-0.294,0.431-0.294,0.702v3c0,0.271,0.098,0.508,0.294,0.708
	c0.196,0.2,0.431,0.3,0.702,0.3c0.279,0,0.518-0.1,0.714-0.3c0.196-0.2,0.294-0.437,0.294-0.708
	C75.219,105.127,75.219,101.131,75.219,101.131z"/>
<path d="M84.219,102.127h-0.996c-0.088-0.664-0.404-0.996-0.947-0.996c-0.353,0-0.617,0.07-0.793,0.21
	c-0.176,0.14-0.264,0.346-0.264,0.618c0,0.288,0.484,0.692,1.452,1.212c0.792,0.424,1.248,0.776,1.368,1.056
	c0.119,0.28,0.18,0.58,0.18,0.9c0,0.552-0.196,1.024-0.588,1.416c-0.393,0.392-0.864,0.588-1.416,0.588h-0.996
	c-1.336,0-2.004-0.668-2.004-2.004h1.008c0.08,0.672,0.393,1.008,0.936,1.008c0.36,0,0.629-0.07,0.805-0.21
	c0.176-0.14,0.264-0.35,0.264-0.63c0-0.28-0.484-0.68-1.451-1.2c-0.793-0.424-1.25-0.775-1.375-1.056
	c-0.123-0.28-0.186-0.58-0.186-0.9c0-0.552,0.197-1.023,0.594-1.416c0.396-0.392,0.866-0.588,1.41-0.588h0.996
	C83.471,100.135,84.139,100.799,84.219,102.127z"/>
<path d="M87.219,98.131h1.992v2.004h1.008v0.996h-1.008v3.996c0,0.328,0.107,0.578,0.324,0.75c0.216,0.172,0.412,0.258,0.588,0.258
	h0.096v0.996h-1.008c-0.545,0-1.012-0.196-1.404-0.588s-0.588-0.864-0.588-1.416v-3.996h-1.008v-0.996h1.008
	C87.219,100.135,87.219,98.131,87.219,98.131z"/>
<path d="M94.215,100.135h2.004c0.544,0,1.012,0.196,1.404,0.588c0.392,0.393,0.588,0.86,0.588,1.404v3
	c0,0.544-0.196,1.014-0.588,1.41c-0.393,0.396-0.86,0.594-1.404,0.594h-2.004c-0.544,0-1.014-0.196-1.41-0.588
	s-0.594-0.864-0.594-1.416v-3c0-0.544,0.197-1.012,0.594-1.404C93.201,100.331,93.671,100.135,94.215,100.135z M94.215,102.127v3
	c0,0.271,0.098,0.508,0.294,0.708c0.196,0.2,0.431,0.3,0.702,0.3c0.279,0,0.518-0.1,0.714-0.3c0.196-0.2,0.294-0.437,0.294-0.708v-3
	c0-0.271-0.098-0.506-0.294-0.702c-0.196-0.196-0.435-0.294-0.714-0.294c-0.271,0-0.506,0.098-0.702,0.294
	C94.313,101.621,94.215,101.855,94.215,102.127z"/>
<path d="M100.215,107.131v-6.996h2.004v0.996c0.04-0.336,0.145-0.586,0.312-0.75s0.396-0.246,0.684-0.246h1.008
	c0.544,0,1.012,0.196,1.404,0.588c0.392,0.393,0.588,0.86,0.588,1.404v5.004h-1.992v-5.004c0-0.271-0.098-0.506-0.294-0.702
	c-0.196-0.196-0.435-0.294-0.714-0.294c-0.271,0-0.506,0.098-0.702,0.294c-0.196,0.196-0.294,0.431-0.294,0.702v5.004H100.215z"/>
<path d="M18.231,115.531h0.996v0.996c0,0.576-0.189,1.054-0.57,1.434c-0.38,0.381-0.826,0.57-1.338,0.57h-0.096v0.996
	c0,0.448-0.192,0.894-0.576,1.338c-0.384,0.444-0.856,0.666-1.416,0.666h-2.004c-0.56,0-1.034-0.222-1.422-0.666
	c-0.388-0.444-0.582-0.89-0.582-1.338v-0.996c0-0.448,0.168-0.894,0.504-1.338c0.336-0.444,0.836-0.666,1.5-0.666
	c-1.336-0.152-2.004-0.816-2.004-1.992c0-0.544,0.198-1.014,0.594-1.41s0.866-0.594,1.41-0.594h2.004
	c0.544,0,1.012,0.198,1.404,0.594c0.392,0.396,0.588,0.866,0.588,1.41v0.996h-1.992v-0.996c0-0.28-0.098-0.518-0.294-0.714
	c-0.196-0.196-0.434-0.294-0.714-0.294c-0.272,0-0.506,0.098-0.702,0.294c-0.196,0.196-0.294,0.434-0.294,0.714v0.492
	c0,0.592,0.332,0.928,0.996,1.008v0.996c-0.664,0.088-0.996,0.42-0.996,0.996v1.5c0,0.336,0.098,0.588,0.294,0.756
	s0.43,0.252,0.702,0.252c0.28,0,0.518-0.084,0.714-0.252s0.294-0.42,0.294-0.756v-1.992h1.992c0.279,0,0.518-0.098,0.714-0.294
	c0.196-0.196,0.294-0.434,0.294-0.714V115.531z"/>
<path d="M12.231,135.931v-8.004h-2.004v-0.996h6v0.996h-2.004v8.004H12.231z"/>
<path d="M19.227,128.935h2.004c0.544,0,1.012,0.196,1.404,0.588c0.392,0.393,0.588,0.86,0.588,1.404v3
	c0,0.544-0.196,1.014-0.588,1.41c-0.393,0.396-0.86,0.594-1.404,0.594h-2.004c-0.544,0-1.014-0.196-1.41-0.588
	c-0.396-0.392-0.594-0.864-0.594-1.416v-3c0-0.544,0.197-1.012,0.594-1.404C18.213,129.131,18.683,128.935,19.227,128.935z
	 M19.227,130.927v3c0,0.271,0.098,0.508,0.294,0.708c0.196,0.2,0.431,0.3,0.702,0.3c0.279,0,0.518-0.1,0.714-0.3
	c0.196-0.2,0.294-0.437,0.294-0.708v-3c0-0.271-0.098-0.506-0.294-0.702c-0.196-0.196-0.435-0.294-0.714-0.294
	c-0.271,0-0.506,0.098-0.702,0.294C19.325,130.421,19.227,130.655,19.227,130.927z"/>
<path d="M31.227,135.931h-1.992v-5.004c0-0.271-0.098-0.506-0.294-0.702c-0.196-0.196-0.435-0.294-0.714-0.294
	c-0.271,0-0.506,0.098-0.702,0.294c-0.196,0.196-0.294,0.431-0.294,0.702v5.004h-2.004v-6.996h2.004v0.996
	c0.04-0.336,0.145-0.586,0.312-0.75s0.396-0.246,0.684-0.246h1.008c0.68,0,1.18,0.236,1.5,0.708c0.16-0.24,0.364-0.418,0.612-0.534
	c0.247-0.115,0.544-0.174,0.888-0.174h0.996c0.544,0,1.014,0.196,1.41,0.588c0.396,0.393,0.594,0.86,0.594,1.404v5.004h-2.004
	v-5.004c0-0.264-0.098-0.496-0.294-0.696c-0.196-0.199-0.431-0.3-0.702-0.3s-0.508,0.098-0.708,0.294
	c-0.2,0.196-0.3,0.431-0.3,0.702V135.931L31.227,135.931z"/>
<path d="M46.227,133.927c-0.08,1.336-0.744,2.004-1.992,2.004h-2.004c-0.544,0-1.014-0.196-1.41-0.588
	c-0.396-0.392-0.594-0.864-0.594-1.416v-4.992c0-0.544,0.193-1.014,0.582-1.41c0.388-0.396,0.861-0.594,1.422-0.594h2.004
	c1.256,0,1.92,0.668,1.992,2.004h-0.996c-0.08-0.672-0.412-1.008-0.996-1.008h-1.008c-0.271,0-0.506,0.098-0.702,0.294
	c-0.196,0.196-0.294,0.434-0.294,0.714v4.992c0,0.271,0.098,0.508,0.294,0.708c0.196,0.2,0.431,0.3,0.702,0.3h1.008
	c0.592,0,0.924-0.336,0.996-1.008H46.227z"/>
<path d="M52.239,131.935v-1.008c0-0.271-0.098-0.506-0.294-0.702c-0.196-0.196-0.435-0.294-0.714-0.294h-0.996
	c-0.592,0-0.924,0.332-0.996,0.996h-1.008c0.16-1.328,0.828-1.992,2.004-1.992h2.004c0.544,0,1.012,0.196,1.404,0.588
	c0.392,0.393,0.588,0.86,0.588,1.404v5.004h-1.992v-0.996c-0.08,0.664-0.416,0.996-1.008,0.996h-0.996
	c-0.544,0-1.014-0.196-1.41-0.588c-0.396-0.392-0.594-0.864-0.594-1.416c0-0.544,0.197-1.012,0.594-1.404
	c0.396-0.392,0.866-0.588,1.41-0.588H52.239z M52.239,132.931h-1.008c-0.271,0-0.506,0.098-0.702,0.294
	c-0.196,0.196-0.294,0.431-0.294,0.702c0,0.271,0.098,0.508,0.294,0.708c0.196,0.2,0.431,0.3,0.702,0.3c0.279,0,0.518-0.1,0.714-0.3
	c0.196-0.2,0.294-0.437,0.294-0.708V132.931z"/>
<path d="M60.242,128.935h1.992v3.576c0,0.938-0.334,1.74-1.002,2.412c-0.668,0.672-1.471,1.008-2.406,1.008h-2.592v-6.996h2.004v6
	h0.996c0.279,0,0.518-0.1,0.714-0.3c0.196-0.2,0.294-0.437,0.294-0.708V128.935z"/>
<path d="M68.246,131.935v-1.008c0-0.271-0.098-0.506-0.294-0.702c-0.196-0.196-0.435-0.294-0.714-0.294h-0.996
	c-0.592,0-0.924,0.332-0.996,0.996h-1.008c0.16-1.328,0.828-1.992,2.004-1.992h2.004c0.544,0,1.012,0.196,1.404,0.588
	c0.392,0.393,0.588,0.86,0.588,1.404v5.004h-1.992v-0.996c-0.08,0.664-0.416,0.996-1.008,0.996h-0.996
	c-0.544,0-1.014-0.196-1.41-0.588c-0.396-0.392-0.594-0.864-0.594-1.416c0-0.544,0.197-1.012,0.594-1.404
	c0.396-0.392,0.866-0.588,1.41-0.588H68.246z M68.246,132.931h-1.008c-0.271,0-0.506,0.098-0.702,0.294
	c-0.196,0.196-0.294,0.431-0.294,0.702c0,0.271,0.098,0.508,0.294,0.708c0.196,0.2,0.431,0.3,0.702,0.3c0.279,0,0.518-0.1,0.714-0.3
	c0.196-0.2,0.294-0.437,0.294-0.708V132.931z"/>
<path d="M72.242,135.931v-6.996h2.004v0.996c0.04-0.336,0.145-0.586,0.312-0.75s0.396-0.246,0.684-0.246h1.008
	c0.544,0,1.012,0.196,1.404,0.588c0.392,0.393,0.588,0.86,0.588,1.404v5.004H76.25v-5.004c0-0.271-0.098-0.506-0.294-0.702
	c-0.196-0.196-0.435-0.294-0.714-0.294c-0.271,0-0.506,0.098-0.702,0.294c-0.196,0.196-0.294,0.431-0.294,0.702v5.004H72.242z"/>
<path d="M84.254,131.935v-1.008c0-0.271-0.098-0.506-0.294-0.702c-0.196-0.196-0.435-0.294-0.714-0.294H82.25
	c-0.592,0-0.924,0.332-0.996,0.996h-1.008c0.16-1.328,0.828-1.992,2.004-1.992h2.004c0.544,0,1.012,0.196,1.404,0.588
	c0.392,0.393,0.588,0.86,0.588,1.404v5.004h-1.992v-0.996c-0.08,0.664-0.416,0.996-1.008,0.996H82.25
	c-0.544,0-1.014-0.196-1.41-0.588c-0.396-0.392-0.594-0.864-0.594-1.416c0-0.544,0.197-1.012,0.594-1.404
	c0.396-0.392,0.866-0.588,1.41-0.588H84.254z M84.254,132.931h-1.008c-0.271,0-0.506,0.098-0.702,0.294
	c-0.196,0.196-0.294,0.431-0.294,0.702c0,0.271,0.098,0.508,0.294,0.708c0.196,0.2,0.431,0.3,0.702,0.3c0.279,0,0.518-0.1,0.714-0.3
	c0.196-0.2,0.294-0.437,0.294-0.708V132.931z"/>
<path d="M94.25,128.935v6.996h-1.992v-0.996c-0.08,0.664-0.416,0.996-1.008,0.996h-0.996c-0.544,0-1.014-0.196-1.41-0.588
	c-0.396-0.392-0.594-0.864-0.594-1.416v-4.992h2.004v4.992c0,0.271,0.098,0.508,0.294,0.708c0.196,0.2,0.431,0.3,0.702,0.3
	c0.279,0,0.518-0.1,0.714-0.3c0.196-0.2,0.294-0.437,0.294-0.708v-4.992H94.25z"/>
<path d="M102.254,128.935v7.992c0,0.544-0.196,1.014-0.588,1.41c-0.393,0.396-0.86,0.594-1.404,0.594h-2.004
	c-1.176,0-1.844-0.668-2.004-2.004h1.008c0.048,0.672,0.38,1.008,0.996,1.008h0.996c0.279,0,0.518-0.098,0.714-0.294
	c0.196-0.196,0.294-0.434,0.294-0.714v-1.992c-0.08,0.664-0.416,0.996-1.008,0.996h-0.996c-0.544,0-1.014-0.196-1.41-0.588
	c-0.396-0.392-0.594-0.864-0.594-1.416v-3c0-0.544,0.197-1.012,0.594-1.404c0.396-0.392,0.866-0.588,1.41-0.588H102.254z
	 M100.262,129.931h-1.008c-0.271,0-0.506,0.098-0.702,0.294c-0.196,0.196-0.294,0.431-0.294,0.702v3
	c0,0.271,0.098,0.508,0.294,0.708c0.196,0.2,0.431,0.3,0.702,0.3c0.279,0,0.518-0.1,0.714-0.3c0.196-0.2,0.294-0.437,0.294-0.708
	V129.931z"/>
<path d="M104.258,135.931v-9h2.004v3c0.04-0.336,0.145-0.586,0.312-0.75s0.396-0.246,0.684-0.246h1.008
	c0.544,0,1.012,0.196,1.404,0.588c0.392,0.393,0.588,0.86,0.588,1.404v5.004h-1.992v-5.004c0-0.271-0.098-0.506-0.294-0.702
	c-0.196-0.196-0.435-0.294-0.714-0.294c-0.271,0-0.506,0.098-0.702,0.294c-0.196,0.196-0.294,0.431-0.294,0.702v5.004H104.258z"/>
<path d="M13.227,175.736h-2.004v-6.995h2.004v1.991c0.08-0.664,0.286-1.162,0.618-1.493c0.332-0.332,0.794-0.498,1.386-0.498h0.996
	v1.991h-2.004c-0.272,0-0.506,0.1-0.702,0.295s-0.294,0.434-0.294,0.714V175.736z"/>
<path d="M23.223,172.736h-3.996v0.996c0,0.271,0.098,0.509,0.294,0.709c0.196,0.199,0.431,0.3,0.702,0.3h1.008
	c0.664,0,0.996-0.337,0.996-1.009h0.996c-0.152,1.336-0.816,2.004-1.992,2.004h-2.004c-0.544,0-1.014-0.195-1.41-0.588
	c-0.396-0.392-0.594-0.863-0.594-1.416v-3c0-0.543,0.197-1.012,0.594-1.403c0.396-0.392,0.866-0.588,1.41-0.588h2.004
	c0.544,0,1.012,0.196,1.404,0.588c0.392,0.394,0.588,0.86,0.588,1.403V172.736z M19.227,171.741h2.004v-1.009
	c0-0.271-0.098-0.506-0.294-0.701s-0.435-0.295-0.714-0.295c-0.271,0-0.506,0.1-0.702,0.295s-0.294,0.432-0.294,0.701V171.741
	L19.227,171.741z"/>
<path d="M25.227,172.736v-0.995h5.004v0.995H25.227z"/>
<path d="M37.227,170.734h-0.996c-0.08-0.664-0.416-0.996-1.008-0.996c-0.271,0-0.506,0.098-0.702,0.294s-0.294,0.431-0.294,0.702v3
	c0,0.271,0.098,0.508,0.294,0.707c0.196,0.201,0.431,0.301,0.702,0.301c0.592,0,0.928-0.336,1.008-1.008h0.996
	c-0.08,1.336-0.748,2.004-2.004,2.004h-0.996c-0.544,0-1.014-0.195-1.41-0.588c-0.396-0.394-0.594-0.864-0.594-1.416v-3
	c0-0.545,0.197-1.012,0.594-1.404c0.396-0.393,0.866-0.588,1.41-0.588h0.996C36.487,168.741,37.155,169.404,37.227,170.734z"/>
<path d="M41.223,168.741h2.004c0.544,0,1.012,0.196,1.404,0.588c0.392,0.394,0.588,0.86,0.588,1.403v3
	c0,0.545-0.196,1.016-0.588,1.41c-0.393,0.396-0.86,0.594-1.404,0.594h-2.004c-0.544,0-1.014-0.195-1.41-0.588
	c-0.396-0.392-0.594-0.863-0.594-1.416v-3c0-0.543,0.197-1.012,0.594-1.403C40.209,168.938,40.679,168.741,41.223,168.741z
	 M41.223,170.734v3c0,0.271,0.098,0.508,0.294,0.707c0.196,0.201,0.431,0.301,0.702,0.301c0.279,0,0.518-0.1,0.714-0.301
	c0.196-0.199,0.294-0.437,0.294-0.707v-3c0-0.271-0.098-0.506-0.294-0.702c-0.196-0.196-0.435-0.294-0.714-0.294
	c-0.271,0-0.506,0.098-0.702,0.294C41.321,170.229,41.223,170.462,41.223,170.734z"/>
<path d="M53.223,175.736h-1.992v-0.995c-0.08,0.663-0.416,0.995-1.008,0.995h-0.996c-0.544,0-1.014-0.195-1.41-0.588
	c-0.396-0.392-0.594-0.863-0.594-1.416v-3c0-0.543,0.197-1.012,0.594-1.403c0.396-0.392,0.866-0.588,1.41-0.588h2.004v-2.005h1.992
	V175.736L53.223,175.736z M51.231,169.736h-1.008c-0.271,0-0.506,0.1-0.702,0.295s-0.294,0.432-0.294,0.701v3
	c0,0.271,0.098,0.509,0.294,0.709c0.196,0.199,0.431,0.3,0.702,0.3c0.279,0,0.518-0.101,0.714-0.3
	c0.196-0.2,0.294-0.438,0.294-0.709V169.736z"/>
<path d="M61.227,172.736h-3.996v0.996c0,0.271,0.098,0.509,0.294,0.709c0.196,0.199,0.431,0.3,0.702,0.3h1.008
	c0.664,0,0.996-0.337,0.996-1.009h0.996c-0.152,1.336-0.816,2.004-1.992,2.004h-2.004c-0.544,0-1.014-0.195-1.41-0.588
	c-0.396-0.392-0.594-0.863-0.594-1.416v-3c0-0.543,0.197-1.012,0.594-1.403c0.396-0.392,0.866-0.588,1.41-0.588h2.004
	c0.544,0,1.012,0.196,1.404,0.588c0.392,0.394,0.588,0.86,0.588,1.403V172.736L61.227,172.736z M57.231,171.741h2.004v-1.009
	c0-0.271-0.098-0.506-0.294-0.701c-0.196-0.195-0.435-0.295-0.714-0.295c-0.271,0-0.506,0.1-0.702,0.295
	c-0.196,0.195-0.294,0.432-0.294,0.701V171.741z"/>
<path d="M69.231,175.736h-1.992v-0.995c-0.08,0.663-0.416,0.995-1.008,0.995h-0.996c-0.544,0-1.014-0.195-1.41-0.588
	c-0.396-0.392-0.594-0.863-0.594-1.416v-3c0-0.543,0.197-1.012,0.594-1.403c0.396-0.392,0.866-0.588,1.41-0.588h2.004v-2.005h1.992
	V175.736z M67.239,169.736h-1.008c-0.271,0-0.506,0.1-0.702,0.295c-0.196,0.195-0.294,0.432-0.294,0.701v3
	c0,0.271,0.098,0.509,0.294,0.709c0.196,0.199,0.431,0.3,0.702,0.3c0.279,0,0.518-0.101,0.714-0.3
	c0.196-0.2,0.294-0.438,0.294-0.709V169.736z"/>
<path d="M74.235,167.734v-0.996h2.004v0.996H74.235z M74.235,175.736v-6.995h2.004v6.995H74.235z"/>
<path d="M78.231,175.736v-6.995h2.004v0.995c0.04-0.336,0.145-0.586,0.312-0.75c0.167-0.163,0.396-0.245,0.684-0.245h1.008
	c0.544,0,1.012,0.196,1.404,0.588c0.392,0.394,0.588,0.86,0.588,1.403v5.004h-1.992v-5.004c0-0.271-0.098-0.506-0.294-0.701
	c-0.196-0.195-0.435-0.295-0.714-0.295c-0.271,0-0.506,0.1-0.702,0.295c-0.196,0.195-0.294,0.432-0.294,0.701v5.004H78.231z"/>
<path d="M90.242,168.741h-1.008c0.16-1.337,0.828-2.005,2.004-2.005h2.004c0.544,0,1.012,0.199,1.404,0.596
	c0.392,0.395,0.588,0.865,0.588,1.409v0.491c0,0.697-0.645,1.597-1.932,2.701l-0.133,0.106c-1.287,1.104-1.932,1.974-1.932,2.604
	v0.096h3.996v0.996h-6v-0.996c0-0.695,0.648-1.596,1.943-2.699l0.133-0.107c1.287-1.104,1.932-2.004,1.932-2.699v-0.492
	c0-0.28-0.1-0.52-0.3-0.715c-0.2-0.194-0.437-0.293-0.708-0.293h-0.996C90.622,167.734,90.29,168.068,90.242,168.741z"/>
<path d="M99.242,166.736h2.004c0.544,0,1.012,0.199,1.404,0.596c0.392,0.395,0.588,0.865,0.588,1.409v4.991
	c0,0.545-0.196,1.016-0.588,1.41c-0.393,0.396-0.86,0.594-1.404,0.594h-2.004c-0.544,0-1.014-0.195-1.41-0.588
	c-0.396-0.392-0.594-0.863-0.594-1.416v-4.991c0-0.552,0.197-1.022,0.594-1.416C98.229,166.934,98.698,166.736,99.242,166.736z
	 M101.235,168.562c-0.145-0.554-0.477-0.828-0.996-0.828c-0.271,0-0.506,0.098-0.702,0.293c-0.196,0.197-0.294,0.436-0.294,0.715
	v3.396L101.235,168.562z M99.266,173.902c0.049,0.271,0.154,0.479,0.318,0.623s0.383,0.217,0.654,0.217
	c0.279,0,0.518-0.1,0.714-0.301c0.196-0.199,0.294-0.437,0.294-0.707v-3.396L99.266,173.902z"/>
<path d="M107.246,175.736v-6.995h-0.996v-1.009l1.992-0.996h1.008v9H107.246z"/>
<path d="M117.254,171.236c0.664,0,1.163,0.217,1.495,0.647c0.332,0.433,0.498,0.886,0.498,1.355v0.491
	c0,0.447-0.19,0.896-0.576,1.338c-0.384,0.443-0.855,0.666-1.417,0.666h-2.004c-0.561,0-1.034-0.223-1.422-0.666
	c-0.389-0.442-0.582-0.891-0.582-1.338v-0.491c0-0.474,0.168-0.925,0.504-1.355c0.336-0.433,0.836-0.647,1.5-0.647
	c-0.664-0.079-1.164-0.285-1.5-0.617s-0.504-0.794-0.504-1.387v-0.491c0-0.544,0.197-1.015,0.594-1.409
	c0.396-0.396,0.866-0.596,1.41-0.596h2.004c0.544,0,1.012,0.199,1.405,0.596c0.391,0.395,0.588,0.865,0.588,1.409v0.491
	c0,0.593-0.166,1.055-0.498,1.387S117.918,171.157,117.254,171.236z M117.254,169.736v-0.995c0-0.28-0.098-0.519-0.294-0.714
	s-0.435-0.295-0.714-0.295c-0.271,0-0.506,0.1-0.702,0.295c-0.196,0.195-0.294,0.434-0.294,0.714v0.995
	c0,0.272,0.098,0.507,0.294,0.703c0.196,0.194,0.431,0.293,0.702,0.293c0.279,0,0.518-0.099,0.714-0.293
	C117.156,170.243,117.254,170.009,117.254,169.736z M117.254,173.734v-0.996c0-0.664-0.336-0.996-1.008-0.996
	c-0.664,0-0.996,0.332-0.996,0.996v0.996c0,0.279,0.098,0.518,0.294,0.714c0.196,0.196,0.431,0.294,0.702,0.294
	c0.279,0,0.518-0.098,0.714-0.294S117.254,174.014,117.254,173.734z"/>
<path d="M12.231,190.139v-6h-1.008v-0.996h1.008v-0.097c0-0.521,0.188-0.969,0.564-1.345s0.824-0.562,1.344-0.562h2.088v0.995
	h-1.092c-0.248,0-0.462,0.091-0.642,0.271c-0.18,0.182-0.27,0.395-0.27,0.643v0.098h1.008v0.994h-1.008v6H12.231L12.231,190.139z"/>
<path d="M19.227,183.143h2.004c0.544,0,1.012,0.194,1.404,0.588c0.392,0.393,0.588,0.858,0.588,1.403v3
	c0,0.543-0.196,1.015-0.588,1.41c-0.393,0.396-0.86,0.595-1.404,0.595h-2.004c-0.544,0-1.014-0.197-1.41-0.589
	c-0.396-0.393-0.594-0.864-0.594-1.416v-3c0-0.545,0.197-1.012,0.594-1.403C18.213,183.337,18.683,183.143,19.227,183.143z
	 M19.227,185.134v3c0,0.271,0.098,0.509,0.294,0.707c0.196,0.201,0.431,0.302,0.702,0.302c0.279,0,0.518-0.101,0.714-0.302
	c0.196-0.198,0.294-0.437,0.294-0.707v-3c0-0.271-0.098-0.506-0.294-0.702c-0.196-0.195-0.435-0.293-0.714-0.293
	c-0.271,0-0.506,0.098-0.702,0.293C19.325,184.628,19.227,184.861,19.227,185.134z"/>
<path d="M27.231,190.139h-2.004v-6.996h2.004v1.991c0.08-0.663,0.286-1.161,0.618-1.493c0.331-0.332,0.794-0.498,1.386-0.498h0.996
	v1.991h-2.004c-0.271,0-0.506,0.099-0.702,0.293c-0.196,0.197-0.294,0.435-0.294,0.716V190.139z"/>
<path d="M38.235,181.139h1.992v5.579c0,0.937-0.334,1.74-1.002,2.412s-1.471,1.009-2.406,1.009h-2.592v-9h2.004v8.004h0.996
	c0.279,0,0.518-0.101,0.714-0.302c0.196-0.198,0.294-0.437,0.294-0.707V181.139z"/>
<path d="M48.231,188.134c-0.08,1.337-0.744,2.005-1.992,2.005h-2.004c-0.544,0-1.014-0.197-1.41-0.589
	c-0.396-0.393-0.594-0.864-0.594-1.416v-4.991c0-0.545,0.193-1.015,0.582-1.41c0.388-0.396,0.861-0.594,1.422-0.594h2.004
	c1.256,0,1.92,0.668,1.992,2.004h-0.996c-0.08-0.672-0.412-1.009-0.996-1.009h-1.008c-0.271,0-0.506,0.099-0.702,0.293
	c-0.196,0.197-0.294,0.435-0.294,0.716v4.991c0,0.271,0.098,0.509,0.294,0.707c0.196,0.201,0.431,0.302,0.702,0.302h1.008
	c0.592,0,0.924-0.336,0.996-1.009H48.231z"/>
<path d="M54.242,181.139h1.992v5.579c0,0.937-0.334,1.74-1.002,2.412s-1.471,1.009-2.406,1.009h-2.592v-9h2.004v8.004h0.996
	c0.279,0,0.518-0.101,0.714-0.302c0.196-0.198,0.294-0.437,0.294-0.707V181.139z"/>
<path d="M58.239,187.139v-0.996h5.004v0.996H58.239z"/>
<path d="M65.235,190.139v-9h4.008c0.544,0,1.012,0.196,1.404,0.594c0.392,0.396,0.588,0.865,0.588,1.41v0.539
	c0,0.448-0.152,0.879-0.456,1.291c-0.304,0.411-0.815,0.616-1.536,0.616h0.996c0.271,0,0.506,0.099,0.702,0.295
	c0.196,0.195,0.294,0.435,0.294,0.714v3.541h-1.992v-3c0-0.271-0.098-0.507-0.294-0.703c-0.196-0.194-0.435-0.293-0.714-0.293
	h-0.996v3.996H65.235z M67.239,185.134h0.996c0.279,0,0.518-0.099,0.714-0.295c0.196-0.194,0.294-0.43,0.294-0.7v-0.996
	c0-0.281-0.098-0.519-0.294-0.716c-0.196-0.194-0.435-0.293-0.714-0.293h-0.996V185.134z"/>
<path d="M77.246,186.143v-1.009c0-0.271-0.098-0.506-0.294-0.702c-0.196-0.195-0.435-0.293-0.714-0.293h-0.996
	c-0.592,0-0.924,0.332-0.996,0.995h-1.008c0.16-1.327,0.828-1.991,2.004-1.991h2.004c0.544,0,1.012,0.194,1.404,0.588
	c0.392,0.393,0.588,0.858,0.588,1.403v5.005h-1.992v-0.996c-0.08,0.664-0.416,0.996-1.008,0.996h-0.996
	c-0.544,0-1.014-0.197-1.41-0.589c-0.396-0.393-0.594-0.864-0.594-1.416c0-0.545,0.197-1.012,0.594-1.403
	c0.396-0.394,0.866-0.588,1.41-0.588H77.246z M77.246,187.139h-1.008c-0.271,0-0.506,0.098-0.702,0.293
	c-0.196,0.196-0.294,0.432-0.294,0.702s0.098,0.509,0.294,0.707c0.196,0.201,0.431,0.302,0.702,0.302
	c0.279,0,0.518-0.101,0.714-0.302c0.196-0.198,0.294-0.437,0.294-0.707V187.139z"/>
<path d="M86.246,185.134H85.25c-0.08-0.663-0.416-0.995-1.008-0.995c-0.271,0-0.506,0.098-0.702,0.293
	c-0.196,0.196-0.294,0.432-0.294,0.702v3c0,0.271,0.098,0.509,0.294,0.707c0.196,0.201,0.431,0.302,0.702,0.302
	c0.592,0,0.928-0.336,1.008-1.009h0.996c-0.08,1.337-0.748,2.005-2.004,2.005h-0.996c-0.544,0-1.014-0.197-1.41-0.589
	c-0.396-0.393-0.594-0.864-0.594-1.416v-3c0-0.545,0.197-1.012,0.594-1.403c0.396-0.394,0.866-0.588,1.41-0.588h0.996
	C85.506,183.143,86.174,183.807,86.246,185.134z"/>
<path d="M88.239,190.139v-9h2.004v4.5l3-2.496h2.004l-4.188,3.491l4.188,3.505h-2.004l-3-2.496v2.496H88.239z"/>
<path d="M11.223,204.539v-9h2.004v3c0.04-0.337,0.144-0.587,0.312-0.75c0.168-0.164,0.396-0.246,0.684-0.246h1.008
	c0.544,0,1.012,0.195,1.404,0.588c0.392,0.393,0.588,0.859,0.588,1.403v3c0,0.544-0.196,1.015-0.588,1.409
	c-0.392,0.396-0.86,0.596-1.404,0.596H11.223z M13.227,203.542h0.996c0.28,0,0.518-0.101,0.714-0.301
	c0.196-0.199,0.294-0.438,0.294-0.708v-3c0-0.271-0.098-0.506-0.294-0.702c-0.196-0.194-0.434-0.293-0.714-0.293
	c-0.272,0-0.506,0.099-0.702,0.293c-0.196,0.196-0.294,0.433-0.294,0.702V203.542z"/>
<path d="M20.235,205.534c0.048,0.673,0.38,1.009,0.996,1.009h0.996c0.279,0,0.518-0.1,0.714-0.295
	c0.196-0.195,0.294-0.434,0.294-0.714v-1.991c-0.08,0.664-0.416,0.995-1.008,0.995h-0.996c-0.544,0-1.014-0.196-1.41-0.588
	s-0.594-0.864-0.594-1.416v-4.991h2.004v4.991c0,0.271,0.098,0.509,0.294,0.708c0.196,0.199,0.431,0.301,0.702,0.301
	c0.279,0,0.518-0.102,0.714-0.301c0.196-0.199,0.294-0.438,0.294-0.708v-4.991h1.992v7.991c0,0.544-0.196,1.015-0.588,1.409
	c-0.393,0.396-0.86,0.595-1.404,0.595h-2.004c-1.176,0-1.844-0.668-2.004-2.004H20.235z"/>
<path d="M35.235,199.534h-0.996c-0.08-0.664-0.416-0.995-1.008-0.995c-0.271,0-0.506,0.098-0.702,0.293
	c-0.196,0.195-0.294,0.432-0.294,0.702v3c0,0.271,0.098,0.509,0.294,0.708c0.196,0.199,0.431,0.301,0.702,0.301
	c0.592,0,0.928-0.336,1.008-1.009h0.996c-0.08,1.336-0.748,2.005-2.004,2.005h-0.996c-0.544,0-1.014-0.197-1.41-0.589
	s-0.594-0.864-0.594-1.416v-3c0-0.544,0.197-1.013,0.594-1.403c0.396-0.393,0.866-0.588,1.41-0.588h0.996
	C34.494,197.542,35.162,198.207,35.235,199.534z"/>
<path d="M38.235,204.539v-6h-1.008v-0.996h1.008v-0.098c0-0.521,0.188-0.967,0.564-1.344c0.375-0.375,0.824-0.562,1.344-0.562h2.088
	v0.995h-1.092c-0.248,0-0.463,0.091-0.643,0.271c-0.18,0.182-0.27,0.396-0.27,0.644v0.096h1.008v0.996h-1.008v6L38.235,204.539
	L38.235,204.539z"/>
<path d="M16.227,213.934h-0.996c-0.08-0.664-0.416-0.996-1.008-0.996c-0.272,0-0.506,0.099-0.702,0.295
	c-0.196,0.194-0.294,0.432-0.294,0.701v3c0,0.271,0.098,0.508,0.294,0.709c0.196,0.198,0.43,0.299,0.702,0.299
	c0.592,0,0.928-0.336,1.008-1.008h0.996c-0.08,1.336-0.748,2.004-2.004,2.004h-0.996c-0.544,0-1.014-0.195-1.41-0.588
	c-0.396-0.392-0.594-0.863-0.594-1.416v-3c0-0.543,0.198-1.013,0.594-1.403c0.396-0.392,0.866-0.589,1.41-0.589h0.996
	C15.487,211.941,16.155,212.605,16.227,213.934z"/>
<path d="M18.219,217.938v-2.006h2.004v2.006H18.219z"/>
<path d="M23.223,218.938v-6h-1.008v-0.996h1.008v-0.096c0-0.521,0.188-0.968,0.564-1.345c0.375-0.375,0.824-0.563,1.344-0.563h2.088
	v0.996h-1.092c-0.248,0-0.463,0.09-0.643,0.271c-0.18,0.18-0.27,0.396-0.27,0.644v0.096h1.008v0.996h-1.008v6L23.223,218.938
	L23.223,218.938z"/>
<path d="M30.219,211.941h2.004c0.544,0,1.012,0.197,1.404,0.588c0.392,0.395,0.588,0.861,0.588,1.404v3
	c0,0.545-0.196,1.015-0.588,1.409c-0.393,0.396-0.86,0.595-1.404,0.595h-2.004c-0.544,0-1.014-0.195-1.41-0.588
	c-0.396-0.392-0.594-0.863-0.594-1.416v-3c0-0.543,0.197-1.013,0.594-1.404C29.205,212.139,29.675,211.941,30.219,211.941z
	 M30.219,213.934v3c0,0.271,0.098,0.508,0.294,0.709c0.196,0.198,0.431,0.299,0.702,0.299c0.279,0,0.518-0.101,0.714-0.299
	c0.196-0.201,0.294-0.438,0.294-0.709v-3c0-0.271-0.098-0.507-0.294-0.701c-0.196-0.196-0.435-0.295-0.714-0.295
	c-0.271,0-0.506,0.099-0.702,0.295C30.317,213.427,30.219,213.662,30.219,213.934z"/>
<path d="M42.219,211.941v6.996h-1.992v-0.996c-0.08,0.664-0.416,0.996-1.008,0.996h-0.996c-0.544,0-1.014-0.195-1.41-0.588
	c-0.396-0.392-0.594-0.863-0.594-1.416v-4.992h2.004v4.992c0,0.271,0.098,0.508,0.294,0.709c0.196,0.198,0.431,0.299,0.702,0.299
	c0.279,0,0.518-0.101,0.714-0.299c0.196-0.201,0.294-0.438,0.294-0.709v-4.992H42.219z"/>
<path d="M44.223,218.938v-9h2.004v9H44.223z"/>
<path d="M53.223,213.934h-0.996c-0.08-0.664-0.416-0.996-1.008-0.996c-0.271,0-0.506,0.099-0.702,0.295
	c-0.196,0.194-0.294,0.432-0.294,0.701v3c0,0.271,0.098,0.508,0.294,0.709c0.196,0.198,0.431,0.299,0.702,0.299
	c0.592,0,0.928-0.336,1.008-1.008h0.996c-0.08,1.336-0.748,2.004-2.004,2.004h-0.996c-0.544,0-1.014-0.195-1.41-0.588
	c-0.396-0.392-0.594-0.863-0.594-1.416v-3c0-0.543,0.197-1.013,0.594-1.403c0.396-0.392,0.866-0.589,1.41-0.589h0.996
	C52.483,211.941,53.151,212.605,53.223,213.934z"/>
<path d="M62.223,218.938h-3.504c-0.952,0-1.773-0.345-2.466-1.031c-0.692-0.688-1.038-1.512-1.038-2.473v-1.992
	c0-0.959,0.346-1.783,1.038-2.471c0.692-0.688,1.514-1.033,2.466-1.033h2.004c0.952,0,1.771,0.345,2.46,1.033
	c0.688,0.688,1.032,1.512,1.032,2.471v2.496c0,0.272-0.096,0.506-0.288,0.703c-0.192,0.194-0.429,0.293-0.708,0.293h-2.004
	c-0.584,0-0.916-0.332-0.996-0.996c-0.032,0.336-0.145,0.586-0.336,0.75c-0.191,0.164-0.473,0.246-0.84,0.246
	c-0.424,0-0.834-0.193-1.23-0.582c-0.396-0.388-0.594-0.857-0.594-1.41v-1.008c0-0.543,0.198-1.013,0.594-1.404
	c0.396-0.391,0.866-0.588,1.41-0.588h1.992v3.492c0,0.336,0.168,0.504,0.504,0.504h0.996c0.336,0,0.504-0.168,0.504-0.504v-1.992
	c0-0.672-0.244-1.258-0.732-1.758c-0.488-0.5-1.076-0.75-1.764-0.75h-2.004c-0.672,0-1.256,0.243-1.752,0.731
	c-0.496,0.487-0.744,1.079-0.744,1.774v1.992c0,0.672,0.244,1.258,0.732,1.758c0.487,0.5,1.076,0.75,1.764,0.75h3.504V218.938
	L62.223,218.938z M60.219,212.938h-0.996c-0.271,0-0.508,0.099-0.708,0.295c-0.2,0.194-0.3,0.432-0.3,0.701v1.008
	c0,0.272,0.098,0.507,0.294,0.703c0.196,0.194,0.434,0.293,0.714,0.293c0.271,0,0.506-0.099,0.702-0.293
	c0.196-0.196,0.294-0.431,0.294-0.703V212.938z"/>
<path d="M72.219,211.941v7.992c0,0.545-0.196,1.015-0.588,1.409c-0.393,0.396-0.86,0.595-1.404,0.595h-2.004
	c-1.176,0-1.844-0.668-2.004-2.004h1.008c0.048,0.672,0.38,1.008,0.996,1.008h0.996c0.279,0,0.518-0.099,0.714-0.293
	c0.196-0.196,0.294-0.435,0.294-0.715v-1.992c-0.08,0.664-0.416,0.996-1.008,0.996h-0.996c-0.544,0-1.014-0.195-1.41-0.588
	c-0.396-0.392-0.594-0.863-0.594-1.416v-3c0-0.543,0.197-1.013,0.594-1.404c0.396-0.391,0.866-0.588,1.41-0.588H72.219z
	 M70.227,212.938h-1.008c-0.271,0-0.506,0.099-0.702,0.295c-0.196,0.194-0.294,0.432-0.294,0.701v3c0,0.271,0.098,0.508,0.294,0.709
	c0.196,0.198,0.431,0.299,0.702,0.299c0.279,0,0.518-0.101,0.714-0.299c0.196-0.201,0.294-0.438,0.294-0.709V212.938z"/>
<path d="M80.223,218.938h-1.992v-5.004c0-0.271-0.098-0.507-0.294-0.701c-0.196-0.196-0.435-0.295-0.714-0.295
	c-0.271,0-0.506,0.099-0.702,0.295c-0.196,0.194-0.294,0.432-0.294,0.701v5.004h-2.004v-6.996h2.004v0.996
	c0.04-0.336,0.145-0.586,0.312-0.75s0.396-0.246,0.684-0.246h1.008c0.68,0,1.18,0.235,1.5,0.709c0.16-0.24,0.364-0.418,0.612-0.534
	c0.247-0.114,0.544-0.175,0.888-0.175h0.996c0.544,0,1.014,0.197,1.41,0.588c0.396,0.395,0.594,0.861,0.594,1.404v5.004h-2.004
	v-5.004c0-0.265-0.098-0.496-0.294-0.695c-0.196-0.199-0.431-0.301-0.702-0.301s-0.508,0.099-0.708,0.295
	c-0.2,0.194-0.3,0.432-0.3,0.701V218.938z"/>
<path d="M90.231,214.941v-1.008c0-0.271-0.098-0.507-0.294-0.701c-0.196-0.196-0.435-0.295-0.714-0.295h-0.996
	c-0.592,0-0.924,0.332-0.996,0.996h-1.008c0.16-1.328,0.828-1.992,2.004-1.992h2.004c0.544,0,1.012,0.197,1.404,0.588
	c0.392,0.395,0.588,0.861,0.588,1.404v5.004h-1.992v-0.996c-0.08,0.664-0.416,0.996-1.008,0.996h-0.996
	c-0.544,0-1.014-0.195-1.41-0.588c-0.396-0.392-0.594-0.863-0.594-1.416c0-0.543,0.197-1.013,0.594-1.404
	c0.396-0.391,0.866-0.588,1.41-0.588H90.231L90.231,214.941z M90.231,215.938h-1.008c-0.271,0-0.506,0.099-0.702,0.295
	c-0.196,0.194-0.294,0.432-0.294,0.701c0,0.271,0.098,0.508,0.294,0.709c0.196,0.198,0.431,0.299,0.702,0.299
	c0.279,0,0.518-0.101,0.714-0.299c0.196-0.201,0.294-0.438,0.294-0.709V215.938z"/>
<path d="M94.227,210.934v-0.996h2.004v0.996H94.227z M94.227,218.938v-6.996h2.004v6.996H94.227z"/>
<path d="M98.223,218.938v-9h2.004v9H98.223z"/>
<path d="M102.219,217.938v-2.006h2.004v2.006H102.219z"/>
<path d="M111.219,213.934h-0.996c-0.08-0.664-0.416-0.996-1.008-0.996c-0.271,0-0.506,0.099-0.702,0.295
	c-0.196,0.194-0.294,0.432-0.294,0.701v3c0,0.271,0.098,0.508,0.294,0.709c0.196,0.198,0.431,0.299,0.702,0.299
	c0.592,0,0.928-0.336,1.008-1.008h0.996c-0.08,1.336-0.748,2.004-2.004,2.004h-0.996c-0.544,0-1.014-0.195-1.41-0.588
	c-0.396-0.392-0.594-0.863-0.594-1.416v-3c0-0.543,0.197-1.013,0.594-1.403c0.396-0.392,0.866-0.589,1.41-0.589h0.996
	C110.479,211.941,111.147,212.605,111.219,213.934z"/>
<path d="M115.215,211.941h2.004c0.544,0,1.012,0.197,1.405,0.588c0.392,0.395,0.588,0.861,0.588,1.404v3
	c0,0.545-0.196,1.015-0.588,1.409c-0.394,0.396-0.86,0.595-1.405,0.595h-2.004c-0.544,0-1.014-0.195-1.41-0.588
	c-0.396-0.392-0.594-0.863-0.594-1.416v-3c0-0.543,0.197-1.013,0.594-1.404C114.201,212.139,114.671,211.941,115.215,211.941z
	 M115.215,213.934v3c0,0.271,0.098,0.508,0.294,0.709c0.196,0.198,0.431,0.299,0.702,0.299c0.279,0,0.518-0.101,0.714-0.299
	c0.196-0.201,0.294-0.438,0.294-0.709v-3c0-0.271-0.098-0.507-0.294-0.701c-0.196-0.196-0.435-0.295-0.714-0.295
	c-0.271,0-0.506,0.099-0.702,0.295C115.313,213.427,115.215,213.662,115.215,213.934z"/>
<path d="M127.215,218.938h-1.992v-5.004c0-0.271-0.098-0.507-0.293-0.701c-0.197-0.196-0.436-0.295-0.715-0.295
	c-0.271,0-0.506,0.099-0.701,0.295c-0.197,0.194-0.295,0.432-0.295,0.701v5.004h-2.004v-6.996h2.004v0.996
	c0.039-0.336,0.145-0.586,0.312-0.75c0.167-0.164,0.396-0.246,0.685-0.246h1.009c0.68,0,1.18,0.235,1.5,0.709
	c0.159-0.24,0.362-0.418,0.61-0.534c0.248-0.114,0.545-0.175,0.89-0.175h0.996c0.543,0,1.014,0.197,1.409,0.588
	c0.396,0.395,0.595,0.861,0.595,1.404v5.004h-2.004v-5.004c0-0.265-0.099-0.496-0.296-0.695c-0.194-0.199-0.43-0.301-0.7-0.301
	c-0.271,0-0.509,0.099-0.709,0.295c-0.199,0.194-0.3,0.432-0.3,0.701L127.215,218.938L127.215,218.938z"/>
<path d="M11.223,231.727v-1.992h2.004v1.992H11.223z M11.223,236.73v-2.004h2.004v2.004H11.223z"/>
<path d="M15.219,226.734h0.084c0.728,0,1.396,0.306,2.004,0.912c0.607,0.607,0.912,1.437,0.912,2.482v4.199
	c0,1.049-0.305,1.877-0.912,2.484c-0.608,0.606-1.276,0.912-2.004,0.912h-0.084v-0.996c0.672-0.08,1.008-0.412,1.008-0.996v-7.008
	c0-0.593-0.336-0.925-1.008-0.996V226.734z"/>
<g>
	<path d="M14.375,152.227h-0.072c-0.728,0-1.398-0.305-2.01-0.912c-0.612-0.606-0.918-1.436-0.918-2.483v-4.199
		c0-1.048,0.306-1.876,0.918-2.484s1.282-0.912,2.01-0.912h0.072v0.996c-0.664,0.08-0.996,0.412-0.996,0.996v7.008
		c0,0.592,0.332,0.924,0.996,0.996V152.227z"/>
	<path d="M22.379,149.227c-0.08,1.336-0.744,2.004-1.992,2.004h-2.004c-0.544,0-1.014-0.195-1.41-0.588
		c-0.396-0.392-0.594-0.863-0.594-1.416v-4.992c0-0.544,0.194-1.014,0.582-1.41c0.388-0.396,0.862-0.594,1.422-0.594h2.004
		c1.256,0,1.92,0.668,1.992,2.004h-0.996c-0.08-0.672-0.412-1.008-0.996-1.008h-1.008c-0.272,0-0.506,0.098-0.702,0.294
		c-0.196,0.196-0.294,0.434-0.294,0.714v4.992c0,0.271,0.098,0.508,0.294,0.709c0.196,0.199,0.43,0.299,0.702,0.299h1.008
		c0.592,0,0.924-0.336,0.996-1.008H22.379L22.379,149.227z"/>
	<path d="M26.387,144.235h2.004c0.544,0,1.012,0.196,1.404,0.588c0.392,0.393,0.588,0.86,0.588,1.403v3
		c0,0.545-0.196,1.015-0.588,1.41c-0.392,0.396-0.86,0.594-1.404,0.594h-2.004c-0.544,0-1.014-0.195-1.41-0.588
		c-0.396-0.392-0.594-0.863-0.594-1.416v-3c0-0.543,0.198-1.012,0.594-1.403C25.373,144.431,25.843,144.235,26.387,144.235z
		 M26.387,146.227v3c0,0.271,0.098,0.508,0.294,0.709c0.196,0.199,0.43,0.299,0.702,0.299c0.28,0,0.518-0.1,0.714-0.299
		c0.196-0.201,0.294-0.438,0.294-0.709v-3c0-0.271-0.098-0.506-0.294-0.701c-0.196-0.196-0.434-0.295-0.714-0.295
		c-0.272,0-0.506,0.099-0.702,0.295C26.484,145.721,26.387,145.956,26.387,146.227z"/>
	<path d="M38.387,151.23h-1.992v-0.996c-0.08,0.664-0.416,0.996-1.008,0.996h-0.996c-0.544,0-1.014-0.195-1.41-0.588
		c-0.396-0.392-0.594-0.863-0.594-1.416v-3c0-0.543,0.198-1.012,0.594-1.403c0.396-0.392,0.866-0.588,1.41-0.588h2.004v-2.004h1.992
		V151.23L38.387,151.23z M36.395,145.23h-1.008c-0.272,0-0.506,0.099-0.702,0.295c-0.196,0.195-0.294,0.431-0.294,0.701v3
		c0,0.271,0.098,0.508,0.294,0.709c0.196,0.199,0.43,0.299,0.702,0.299c0.28,0,0.518-0.1,0.714-0.299
		c0.196-0.201,0.294-0.438,0.294-0.709V145.23z"/>
	<path d="M44.398,147.234v-1.008c0-0.271-0.098-0.506-0.294-0.701c-0.196-0.196-0.434-0.295-0.714-0.295h-0.996
		c-0.592,0-0.924,0.332-0.996,0.996H40.39c0.16-1.328,0.828-1.992,2.004-1.992h2.004c0.544,0,1.012,0.196,1.404,0.588
		c0.392,0.393,0.588,0.86,0.588,1.403v5.004h-1.992v-0.996c-0.08,0.664-0.416,0.996-1.008,0.996h-0.996
		c-0.544,0-1.014-0.195-1.41-0.588c-0.396-0.392-0.594-0.863-0.594-1.416c0-0.543,0.198-1.012,0.594-1.403s0.866-0.589,1.41-0.589
		H44.398z M44.398,148.23H43.39c-0.272,0-0.506,0.099-0.702,0.295c-0.196,0.195-0.294,0.431-0.294,0.701
		c0,0.271,0.098,0.508,0.294,0.709c0.196,0.199,0.43,0.299,0.702,0.299c0.28,0,0.518-0.1,0.714-0.299
		c0.196-0.201,0.294-0.438,0.294-0.709V148.23z"/>
	<path d="M48.395,148.23v-0.996h5.004v0.996H48.395z"/>
	<path d="M55.391,142.231h2.004v8.003h0.996c0.28,0,0.518-0.1,0.714-0.299c0.196-0.201,0.294-0.438,0.294-0.709v-6.996h1.992v8.003
		h1.008c0.272,0,0.506-0.1,0.702-0.299c0.196-0.201,0.294-0.438,0.294-0.709v-6.996h2.004v5.58c0,0.937-0.334,1.74-1.002,2.412
		s-1.474,1.008-2.418,1.008h-2.58v-0.312c-0.384,0.208-0.856,0.312-1.416,0.312h-2.592V142.231z"/>
	<path d="M73.391,148.23h-3.996v0.996c0,0.271,0.098,0.508,0.294,0.709c0.196,0.199,0.43,0.299,0.702,0.299h1.008
		c0.664,0,0.996-0.336,0.996-1.008h0.996c-0.152,1.336-0.816,2.004-1.992,2.004h-2.004c-0.544,0-1.014-0.195-1.41-0.588
		c-0.396-0.392-0.594-0.863-0.594-1.416v-3c0-0.543,0.198-1.012,0.594-1.403c0.396-0.392,0.866-0.588,1.41-0.588h2.004
		c0.544,0,1.012,0.196,1.404,0.588c0.392,0.393,0.588,0.86,0.588,1.403V148.23z M69.395,147.234h2.004v-1.008
		c0-0.271-0.098-0.506-0.294-0.701c-0.196-0.196-0.434-0.295-0.714-0.295c-0.272,0-0.506,0.099-0.702,0.295
		c-0.196,0.195-0.294,0.431-0.294,0.701V147.234z"/>
	<path d="M75.395,151.23v-6.996h2.004v0.996c0.04-0.336,0.144-0.586,0.312-0.75c0.168-0.164,0.396-0.246,0.684-0.246h1.008
		c0.544,0,1.012,0.196,1.404,0.588c0.392,0.393,0.588,0.86,0.588,1.403v5.004h-1.992v-5.004c0-0.271-0.098-0.506-0.294-0.701
		c-0.196-0.196-0.434-0.295-0.714-0.295c-0.272,0-0.506,0.099-0.702,0.295c-0.196,0.195-0.294,0.431-0.294,0.701v5.004H75.395z"/>
	<path d="M89.398,144.235v7.992c0,0.545-0.196,1.015-0.588,1.41c-0.392,0.396-0.86,0.594-1.404,0.594h-2.004
		c-1.176,0-1.844-0.668-2.004-2.004h1.008c0.048,0.672,0.38,1.008,0.996,1.008h0.996c0.28,0,0.518-0.098,0.714-0.293
		c0.196-0.196,0.294-0.435,0.294-0.715v-1.992c-0.08,0.664-0.416,0.996-1.008,0.996h-0.996c-0.544,0-1.014-0.195-1.41-0.588
		c-0.396-0.392-0.594-0.863-0.594-1.416v-3c0-0.543,0.198-1.012,0.594-1.403c0.396-0.392,0.866-0.588,1.41-0.588H89.398z
		 M87.406,145.23h-1.008c-0.272,0-0.506,0.099-0.702,0.295c-0.196,0.195-0.294,0.431-0.294,0.701v3c0,0.271,0.098,0.508,0.294,0.709
		c0.196,0.199,0.43,0.299,0.702,0.299c0.28,0,0.518-0.1,0.714-0.299c0.196-0.201,0.294-0.438,0.294-0.709V145.23z"/>
	<path d="M97.402,148.23h-3.996v0.996c0,0.271,0.098,0.508,0.294,0.709c0.196,0.199,0.43,0.299,0.702,0.299h1.008
		c0.664,0,0.996-0.336,0.996-1.008h0.996c-0.152,1.336-0.816,2.004-1.992,2.004h-2.004c-0.544,0-1.014-0.195-1.41-0.588
		c-0.396-0.392-0.594-0.863-0.594-1.416v-3c0-0.543,0.198-1.012,0.594-1.403c0.396-0.392,0.866-0.588,1.41-0.588h2.004
		c0.544,0,1.012,0.196,1.404,0.588c0.392,0.393,0.588,0.86,0.588,1.403V148.23z M93.406,147.234h2.004v-1.008
		c0-0.271-0.098-0.506-0.294-0.701c-0.196-0.196-0.434-0.295-0.714-0.295c-0.272,0-0.506,0.099-0.702,0.295
		c-0.196,0.195-0.294,0.431-0.294,0.701V147.234z"/>
	<path d="M101.41,151.23h-2.004v-6.996h2.004v1.992c0.08-0.664,0.286-1.162,0.618-1.494c0.332-0.332,0.794-0.498,1.386-0.498h0.996
		v1.992h-2.004c-0.272,0-0.506,0.099-0.702,0.295c-0.196,0.195-0.294,0.434-0.294,0.713V151.23z"/>
	<path d="M105.406,141.235h0.084c0.728,0,1.396,0.304,2.004,0.912s0.912,1.436,0.912,2.484v4.199c0,1.049-0.304,1.877-0.912,2.484
		c-0.608,0.606-1.276,0.912-2.004,0.912h-0.084v-0.996c0.672-0.08,1.008-0.412,1.008-0.996v-7.008c0-0.592-0.336-0.924-1.008-0.996
		V141.235z"/>
</g>
<g>
	<path d="M11.445,31.542v-9h2.004v3c0.04-0.336,0.144-0.586,0.312-0.75s0.396-0.246,0.684-0.246h1.008
		c0.544,0,1.012,0.196,1.404,0.588c0.392,0.392,0.588,0.86,0.588,1.404v3c0,0.544-0.196,1.014-0.588,1.41
		c-0.392,0.396-0.86,0.594-1.404,0.594H11.445z M13.449,30.545h0.996c0.28,0,0.518-0.1,0.714-0.3c0.196-0.2,0.294-0.436,0.294-0.708
		v-3c0-0.272-0.098-0.506-0.294-0.702c-0.196-0.196-0.434-0.294-0.714-0.294c-0.272,0-0.506,0.098-0.702,0.294
		c-0.196,0.196-0.294,0.43-0.294,0.702V30.545z"/>
	<path d="M23.457,27.545v-1.008c0-0.272-0.098-0.506-0.294-0.702c-0.196-0.196-0.434-0.294-0.714-0.294h-0.996
		c-0.592,0-0.924,0.332-0.996,0.996h-1.008c0.16-1.328,0.828-1.992,2.004-1.992h2.004c0.544,0,1.012,0.196,1.404,0.588
		c0.392,0.392,0.588,0.86,0.588,1.404v5.004h-1.992v-0.996c-0.08,0.664-0.416,0.996-1.008,0.996h-0.996
		c-0.544,0-1.014-0.196-1.41-0.588s-0.594-0.864-0.594-1.416c0-0.544,0.198-1.012,0.594-1.404c0.396-0.392,0.866-0.588,1.41-0.588
		H23.457z M23.457,28.542h-1.008c-0.272,0-0.506,0.098-0.702,0.294c-0.196,0.196-0.294,0.43-0.294,0.702s0.098,0.508,0.294,0.708
		c0.196,0.2,0.43,0.3,0.702,0.3c0.28,0,0.518-0.1,0.714-0.3c0.196-0.2,0.294-0.436,0.294-0.708V28.542z"/>
	<path d="M32.457,26.538H31.46c-0.088-0.664-0.404-0.996-0.948-0.996c-0.352,0-0.616,0.07-0.792,0.21
		c-0.176,0.14-0.264,0.346-0.264,0.618c0,0.288,0.484,0.692,1.452,1.212c0.792,0.424,1.248,0.776,1.368,1.056
		c0.12,0.28,0.18,0.58,0.18,0.9c0,0.552-0.196,1.024-0.588,1.416c-0.392,0.392-0.864,0.588-1.416,0.588h-0.996
		c-1.336,0-2.004-0.668-2.004-2.004h1.008c0.08,0.672,0.392,1.008,0.936,1.008c0.36,0,0.628-0.07,0.804-0.21
		c0.176-0.14,0.264-0.35,0.264-0.63c0-0.28-0.484-0.68-1.452-1.2c-0.792-0.424-1.25-0.776-1.374-1.056
		c-0.124-0.28-0.186-0.58-0.186-0.9c0-0.552,0.198-1.024,0.594-1.416c0.396-0.392,0.866-0.588,1.41-0.588h0.996
		C31.708,24.545,32.376,25.209,32.457,26.538z"/>
	<path d="M40.449,28.542h-3.996v0.996c0,0.272,0.098,0.508,0.294,0.708c0.196,0.2,0.43,0.3,0.702,0.3h1.008
		c0.664,0,0.996-0.336,0.996-1.008h0.996c-0.152,1.336-0.816,2.004-1.992,2.004h-2.004c-0.544,0-1.014-0.196-1.41-0.588
		s-0.594-0.864-0.594-1.416v-3c0-0.544,0.198-1.012,0.594-1.404c0.396-0.392,0.866-0.588,1.41-0.588h2.004
		c0.544,0,1.012,0.196,1.404,0.588c0.392,0.392,0.588,0.86,0.588,1.404V28.542z M36.453,27.545h2.004v-1.008
		c0-0.272-0.098-0.506-0.294-0.702c-0.196-0.196-0.434-0.294-0.714-0.294c-0.272,0-0.506,0.098-0.702,0.294
		c-0.196,0.196-0.294,0.43-0.294,0.702V27.545z"/>
	<path d="M48.453,31.542H46.46v-0.996c-0.08,0.664-0.416,0.996-1.008,0.996h-0.996c-0.544,0-1.014-0.196-1.41-0.588
		s-0.594-0.864-0.594-1.416v-3c0-0.544,0.198-1.012,0.594-1.404c0.396-0.392,0.866-0.588,1.41-0.588h2.004v-2.004h1.992V31.542z
		 M46.46,25.542h-1.008c-0.272,0-0.506,0.098-0.702,0.294c-0.196,0.196-0.294,0.43-0.294,0.702v3c0,0.272,0.098,0.508,0.294,0.708
		c0.196,0.2,0.43,0.3,0.702,0.3c0.28,0,0.518-0.1,0.714-0.3c0.196-0.2,0.294-0.436,0.294-0.708V25.542z"/>
	<path d="M55.46,24.545h2.004c0.544,0,1.012,0.196,1.404,0.588c0.392,0.392,0.588,0.86,0.588,1.404v3
		c0,0.544-0.196,1.014-0.588,1.41c-0.392,0.396-0.86,0.594-1.404,0.594H55.46c-0.544,0-1.014-0.196-1.41-0.588
		s-0.594-0.864-0.594-1.416v-3c0-0.544,0.198-1.012,0.594-1.404C54.446,24.742,54.917,24.545,55.46,24.545z M55.46,26.538v3
		c0,0.272,0.098,0.508,0.294,0.708c0.196,0.2,0.43,0.3,0.702,0.3c0.28,0,0.518-0.1,0.714-0.3c0.196-0.2,0.294-0.436,0.294-0.708v-3
		c0-0.272-0.098-0.506-0.294-0.702c-0.196-0.196-0.434-0.294-0.714-0.294c-0.272,0-0.506,0.098-0.702,0.294
		C55.558,26.032,55.46,26.266,55.46,26.538z"/>
	<path d="M61.46,31.542v-6.996h2.004v0.996c0.04-0.336,0.144-0.586,0.312-0.75s0.396-0.246,0.684-0.246h1.008
		c0.544,0,1.012,0.196,1.404,0.588c0.392,0.392,0.588,0.86,0.588,1.404v5.004h-1.992v-5.004c0-0.272-0.098-0.506-0.294-0.702
		c-0.196-0.196-0.434-0.294-0.714-0.294c-0.272,0-0.506,0.098-0.702,0.294c-0.196,0.196-0.294,0.43-0.294,0.702v5.004H61.46z"/>
</g>
</svg>
