<?xml version="1.0" encoding="utf-8"?>
<!-- Generator: Adobe Illustrator 16.0.0, SVG Export Plug-In . SVG Version: 6.00 Build 0)  -->
<!DOCTYPE svg PUBLIC "-//W3C//DTD SVG 1.1//EN" "http://www.w3.org/Graphics/SVG/1.1/DTD/svg11.dtd">
<svg version="1.1"
	 id="svg12553" xmlns:dc="http://purl.org/dc/elements/1.1/" xmlns:cc="http://creativecommons.org/ns#" xmlns:rdf="http://www.w3.org/1999/02/22-rdf-syntax-ns#" xmlns:svg="http://www.w3.org/2000/svg" xmlns:sodipodi="http://sodipodi.sourceforge.net/DTD/sodipodi-0.dtd" xmlns:inkscape="http://www.inkscape.org/namespaces/inkscape" inkscape:version="0.92.2 5c3e80d, 2017-08-06" sodipodi:docname="SEQ3.svg"
	 xmlns="http://www.w3.org/2000/svg" xmlns:xlink="http://www.w3.org/1999/xlink" x="0px" y="0px" width="33.184px"
	 height="13.926px" viewBox="0 0 33.184 13.926" enable-background="new 0 0 33.184 13.926" xml:space="preserve">
<g>
	<path d="M4.107,7.886V6.89c0-0.832,0.432-1.508,1.296-2.028l0.168-0.096c0.36-0.216,0.54-0.508,0.54-0.876
		c0-0.272-0.098-0.508-0.294-0.708c-0.196-0.2-0.434-0.3-0.714-0.3H4.107c-0.616,0-0.948,0.336-0.996,1.008H2.103
		c0.16-1.336,0.828-2.004,2.004-2.004h2.004c0.544,0,1.012,0.196,1.404,0.588C7.906,2.866,8.103,3.338,8.103,3.89
		c0,0.864-0.38,1.464-1.14,1.8L6.807,5.762c-0.36,0.16-0.566,0.315-0.618,0.468C6.136,6.382,6.111,6.602,6.111,6.89v0.997H4.107z
		 M4.107,10.887V8.882h2.004v2.005H4.107z"/>
</g>
</svg>
