<?xml version="1.0" encoding="utf-8"?>
<!-- Generator: Adobe Illustrator 16.0.0, SVG Export Plug-In . SVG Version: 6.00 Build 0)  -->
<!DOCTYPE svg PUBLIC "-//W3C//DTD SVG 1.1//EN" "http://www.w3.org/Graphics/SVG/1.1/DTD/svg11.dtd">
<svg version="1.1"
	 id="svg12553" xmlns:dc="http://purl.org/dc/elements/1.1/" xmlns:cc="http://creativecommons.org/ns#" xmlns:rdf="http://www.w3.org/1999/02/22-rdf-syntax-ns#" xmlns:svg="http://www.w3.org/2000/svg" xmlns:sodipodi="http://sodipodi.sourceforge.net/DTD/sodipodi-0.dtd" xmlns:inkscape="http://www.inkscape.org/namespaces/inkscape" sodipodi:docname="SEQ3.svg" inkscape:version="0.92.2 5c3e80d, 2017-08-06"
	 xmlns="http://www.w3.org/2000/svg" xmlns:xlink="http://www.w3.org/1999/xlink" x="0px" y="0px" width="31.759px"
	 height="17.63px" viewBox="0 0 31.759 17.63" enable-background="new 0 0 31.759 17.63" xml:space="preserve">
<g>
	<path fill="#FFFFFF" stroke="#000000" stroke-width="3" stroke-miterlimit="10" d="M30.592,13.452c0,1.565-1.27,2.835-2.836,2.835
		H4.428c-1.566,0-2.836-1.27-2.836-2.835v-9.33c0-1.566,1.27-2.835,2.836-2.835h23.328c1.566,0,2.836,1.269,2.836,2.835V13.452z"/>
	<path d="M9.971,12.787c0.666-1,1.331-1.494,2.018-2.033c-0.332-1.061-0.669-2.366-1.25-4.227c1.036,0.933,1.381,1.128,1.321,1.075
		c1.359-0.238,2.394-0.551,3.442-0.639c1.101-0.092,2.213-0.05,4.515-0.05c-1.724-1.124-2.513-1.654-3.299-2.168
		c0.121-0.229,0.242-0.464,0.363-0.693c0.628,0.113,1.467,0.028,1.92,0.372c1.41,1.068,3.09,2.294,4.09,3.461c0,0.667,0,1.333,0,2
		c-1,0.076-2.055,0.604-3.051,0.68c0.42,0.754,0.645,1.223,0.93,2.223c-0.668,0-1.334,0-2.001,0c-1.872-2-4.126-2-5.999,0
		C11.971,12.787,10.971,12.787,9.971,12.787z"/>
</g>
</svg>
