<?xml version="1.0" encoding="utf-8"?>
<!-- Generator: Adobe Illustrator 16.0.0, SVG Export Plug-In . SVG Version: 6.00 Build 0)  -->
<!DOCTYPE svg PUBLIC "-//W3C//DTD SVG 1.1//EN" "http://www.w3.org/Graphics/SVG/1.1/DTD/svg11.dtd">
<svg version="1.1"
	 id="svg12553" xmlns:dc="http://purl.org/dc/elements/1.1/" xmlns:cc="http://creativecommons.org/ns#" xmlns:rdf="http://www.w3.org/1999/02/22-rdf-syntax-ns#" xmlns:svg="http://www.w3.org/2000/svg" xmlns:sodipodi="http://sodipodi.sourceforge.net/DTD/sodipodi-0.dtd" xmlns:inkscape="http://www.inkscape.org/namespaces/inkscape" inkscape:version="0.92.2 5c3e80d, 2017-08-06" sodipodi:docname="SEQ3.svg"
	 xmlns="http://www.w3.org/2000/svg" xmlns:xlink="http://www.w3.org/1999/xlink" x="0px" y="0px" width="31.758px"
	 height="17.629px" viewBox="0 0 31.758 17.629" enable-background="new 0 0 31.758 17.629" xml:space="preserve">
<path stroke="#000000" stroke-width="3" stroke-miterlimit="10" d="M30.592,13.452c0,1.565-1.271,2.836-2.836,2.836H4.428
	c-1.566,0-2.836-1.271-2.836-2.836v-9.33c0-1.566,1.27-2.835,2.836-2.835h23.328c1.564,0,2.836,1.269,2.836,2.835V13.452z"/>
<path fill="#FFFFFF" d="M9.971,12.788c0.666-1,1.331-1.494,2.018-2.033c-0.332-1.062-0.669-2.366-1.25-4.228
	c1.036,0.933,1.381,1.128,1.321,1.075c1.359-0.238,2.394-0.551,3.442-0.639c1.102-0.092,2.213-0.05,4.516-0.05
	c-1.725-1.124-2.514-1.654-3.301-2.168c0.121-0.229,0.242-0.464,0.363-0.693C17.709,4.165,18.547,4.08,19,4.424
	c1.41,1.068,3.09,2.294,4.09,3.461c0,0.667,0,1.333,0,2c-1,0.076-2.055,0.604-3.051,0.68c0.42,0.754,0.646,1.224,0.932,2.224
	c-0.67,0-1.334,0-2.002,0c-1.871-2-4.126-2-5.999,0C11.971,12.788,10.971,12.788,9.971,12.788z"/>
<path fill="none" stroke="#FFFFFF" stroke-miterlimit="10" d="M30.592,13.452c0,1.565-1.271,2.836-2.836,2.836H4.428
	c-1.566,0-2.836-1.271-2.836-2.836v-9.33c0-1.566,1.27-2.835,2.836-2.835h23.328c1.564,0,2.836,1.269,2.836,2.835V13.452z"/>
</svg>
