<?xml version="1.0" encoding="utf-8"?>
<!-- Generator: Adobe Illustrator 16.0.0, SVG Export Plug-In . SVG Version: 6.00 Build 0)  -->
<!DOCTYPE svg PUBLIC "-//W3C//DTD SVG 1.1//EN" "http://www.w3.org/Graphics/SVG/1.1/DTD/svg11.dtd">
<svg version="1.1"
	 id="svg12553" xmlns:dc="http://purl.org/dc/elements/1.1/" xmlns:cc="http://creativecommons.org/ns#" xmlns:rdf="http://www.w3.org/1999/02/22-rdf-syntax-ns#" xmlns:svg="http://www.w3.org/2000/svg" xmlns:sodipodi="http://sodipodi.sourceforge.net/DTD/sodipodi-0.dtd" xmlns:inkscape="http://www.inkscape.org/namespaces/inkscape" inkscape:version="0.92.2 5c3e80d, 2017-08-06" sodipodi:docname="SEQ3.svg"
	 xmlns="http://www.w3.org/2000/svg" xmlns:xlink="http://www.w3.org/1999/xlink" x="0px" y="0px" width="38.217px"
	 height="18.213px" viewBox="0 0 38.217 18.213" enable-background="new 0 0 38.217 18.213" xml:space="preserve">
<rect width="38.217" height="16.211"/>
<path fill="#FFFFFF" d="M1.501,10.885v-9h4.008c0.544,0,1.012,0.198,1.404,0.594s0.588,0.866,0.588,1.41v0.996
	c0,0.544-0.196,1.014-0.588,1.41s-0.86,0.595-1.404,0.595H3.505v3.994H1.501z M3.505,5.882h0.996c0.28,0,0.518-0.098,0.714-0.294
	c0.196-0.196,0.294-0.43,0.294-0.702V3.89c0-0.28-0.098-0.518-0.294-0.714C5.019,2.979,4.781,2.881,4.501,2.881H3.505V5.882z"/>
<path fill="#FFFFFF" d="M13.513,6.891V5.882c0-0.272-0.098-0.506-0.294-0.702c-0.196-0.196-0.434-0.294-0.714-0.294h-0.996
	c-0.592,0-0.924,0.332-0.996,0.996H9.505c0.16-1.328,0.828-1.992,2.004-1.992h2.004c0.544,0,1.012,0.196,1.404,0.588
	s0.588,0.86,0.588,1.404v5.004h-1.992V9.893c-0.08,0.664-0.416,0.994-1.008,0.994h-0.996c-0.544,0-1.014-0.193-1.41-0.588
	C9.703,9.905,9.505,9.436,9.505,8.883c0-0.545,0.198-1.012,0.594-1.404s0.866-0.588,1.41-0.588L13.513,6.891L13.513,6.891z
	 M13.513,7.887h-1.008c-0.272,0-0.506,0.099-0.702,0.295c-0.196,0.195-0.294,0.43-0.294,0.701s0.098,0.509,0.294,0.709
	c0.196,0.199,0.43,0.299,0.702,0.299c0.28,0,0.518-0.101,0.714-0.299c0.196-0.2,0.294-0.438,0.294-0.709V7.887z"/>
<path fill="#FFFFFF" d="M22.515,5.882h-0.996c-0.088-0.664-0.401-0.996-0.949-0.996c-0.352,0-0.612,0.07-0.791,0.21
	c-0.173,0.14-0.261,0.346-0.261,0.618c0,0.288,0.483,0.692,1.451,1.212c0.792,0.424,1.248,0.777,1.368,1.057
	c0.12,0.28,0.183,0.581,0.183,0.9c0,0.553-0.197,1.022-0.59,1.416c-0.393,0.395-0.863,0.588-1.416,0.588h-0.996
	c-1.337,0-2.006-0.668-2.006-2.003h1.009c0.08,0.674,0.393,1.009,0.937,1.009c0.356,0,0.628-0.07,0.804-0.211
	c0.18-0.14,0.268-0.351,0.268-0.63s-0.484-0.681-1.455-1.201c-0.792-0.425-1.25-0.775-1.374-1.056
	c-0.124-0.279-0.187-0.58-0.187-0.9c0-0.552,0.198-1.024,0.595-1.416c0.394-0.392,0.864-0.588,1.409-0.588h0.995
	C21.767,3.89,22.435,4.554,22.515,5.882z"/>
<path fill="#FFFFFF" d="M25.515,1.885h1.991V3.89h1.009v0.996h-1.009v3.996c0,0.328,0.108,0.578,0.324,0.75
	c0.216,0.172,0.411,0.26,0.588,0.26h0.097v0.994h-1.009c-0.544,0-1.012-0.193-1.403-0.588c-0.393-0.392-0.588-0.861-0.588-1.416
	V4.885h-1.009V3.89h1.009V1.885z"/>
<path fill="#FFFFFF" d="M36.478,7.887h-3.996v0.995c0,0.271,0.101,0.51,0.295,0.709c0.195,0.199,0.432,0.3,0.701,0.3h1.008
	c0.664,0,0.996-0.337,0.996-1.009h0.996c-0.149,1.335-0.813,2.003-1.992,2.003h-2.004c-0.543,0-1.014-0.193-1.41-0.588
	c-0.396-0.392-0.594-0.861-0.594-1.416v-3c0-0.544,0.197-1.012,0.594-1.404c0.397-0.392,0.867-0.588,1.41-0.588h2.004
	c0.545,0,1.015,0.196,1.404,0.588c0.395,0.392,0.588,0.86,0.588,1.404V7.887z M32.481,6.891h2.004V5.882
	c0-0.272-0.098-0.506-0.293-0.702c-0.196-0.196-0.438-0.294-0.715-0.294c-0.271,0-0.506,0.098-0.701,0.294
	c-0.196,0.196-0.295,0.43-0.295,0.702V6.891L32.481,6.891z"/>
</svg>
