<?xml version="1.0" encoding="utf-8"?>
<!-- Generator: Adobe Illustrator 16.0.0, SVG Export Plug-In . SVG Version: 6.00 Build 0)  -->
<!DOCTYPE svg PUBLIC "-//W3C//DTD SVG 1.1//EN" "http://www.w3.org/Graphics/SVG/1.1/DTD/svg11.dtd">
<svg version="1.1"
	 id="svg12553" xmlns:dc="http://purl.org/dc/elements/1.1/" xmlns:cc="http://creativecommons.org/ns#" xmlns:rdf="http://www.w3.org/1999/02/22-rdf-syntax-ns#" xmlns:svg="http://www.w3.org/2000/svg" xmlns:sodipodi="http://sodipodi.sourceforge.net/DTD/sodipodi-0.dtd" xmlns:inkscape="http://www.inkscape.org/namespaces/inkscape" inkscape:version="0.92.2 5c3e80d, 2017-08-06" sodipodi:docname="SEQ3.svg"
	 xmlns="http://www.w3.org/2000/svg" xmlns:xlink="http://www.w3.org/1999/xlink" x="0px" y="0px" width="100.917px"
	 height="81.238px" viewBox="0 0 100.917 81.238" enable-background="new 0 0 100.917 81.238" xml:space="preserve">
<path stroke="#FFFFFF" stroke-miterlimit="10" d="M77.38,55.214c0.234,12.793-11.405,24.133-24.932,24.064
	c-13.169-0.067-24.87-11.231-24.666-24.369c0.193-12.428,11.364-23.701,24.968-23.636C66.001,31.337,77.525,42.452,77.38,55.214z"/>
<path fill="#FFFFFF" stroke="#FFFFFF" stroke-miterlimit="10" d="M-31.803,45.517c0.267-0.241,0.604-0.44,0.789-0.733
	c0.623-0.979,1.159-2.521,2.509-1.979c1.367,0.536,1.229,2.312,0.646,3.293c-1.257,2.145-0.49,3.938,0.367,5.812
	c0.312,0.688,1.329,1.562,0.076,1.979c-1.021,0.342-1.83-0.65-1.862-1.704c-0.078-2.661-0.375-5.354,0.538-8.016
	c-2.344,2.515-4.122,5.279-5.386,9.672c-0.488-3.708,0.244-6.047,1.402-8.317C-32.416,45.642-32.109,45.635-31.803,45.517z"/>
<path fill="#FFFFFF" stroke="#FFFFFF" stroke-miterlimit="10" d="M-22.326,53.269c-2.363,1.138-3.875,0.743-3.675-2.541
	c0.119-1.972,1.029-2.866,2.854-2.562c2.873,0.481,1.733,3.186,2.508,4.844c0.322,0.69,0.33,0.969-0.416,0.93
	C-21.417,53.921-21.756,53.584-22.326,53.269z"/>
<path fill="#FFFFFF" stroke="#FFFFFF" stroke-miterlimit="10" d="M-36.984,46.374c0.595,3.06-2.114,4.796-2.805,8.514
	c-0.86-3.711,0.388-5.809,1.148-8.032c0.577-1.693-0.158-2.38-2.225-2.38c0.114-0.22,0.168-0.517,0.342-0.625
	c0.797-0.499,1.625-0.944,2.406-1.39c1.148,1.192-0.646,3.155,1.256,4.024L-36.984,46.374z"/>
<path fill="#FFFFFF" stroke="#FFFFFF" stroke-miterlimit="10" d="M-14.696,48.411c-0.929,1.644-2.949-0.567-2.851,1.752
	c0.043,0.949-0.174,2.345,0.347,2.753c1.127,0.883,1.627-1.041,2.926-1.158c-0.104,2.52-1.903,2.533-3.433,2.155
	c-1.971-0.483-1.717-2.366-1.48-3.812C-18.758,47.454-16.889,48.112-14.696,48.411z"/>
<path fill="#FFFFFF" stroke="#FFFFFF" stroke-miterlimit="10" d="M-31.803,45.517c-0.304,0.63-0.61,0.63-0.917,0.005
	c0-0.658,0-1.316,0-2.342c-1.865,0.746-2.486,2.82-4.262,3.192c-0.001,0,0.123,0.111,0.122,0.111
	c0.35-2.771,2.473-3.867,4.846-5.438C-31.928,42.86-31.867,44.19-31.803,45.517z"/>
<path stroke="#FFFFFF" stroke-miterlimit="10" d="M-22.629,50.417c0.107,1.219-0.016,2.074-1.424,1.908
	c-0.584-0.068-1.271-0.326-0.973-0.873c0.461-0.838,0.344-2.273,1.648-2.379C-22.367,48.991-22.734,50.002-22.629,50.417z"/>
<path fill="#FFFFFF" stroke="#FFFFFF" stroke-width="1.5" stroke-miterlimit="10" d="M36.883,55.51
	c0.636-0.097,1.391-0.168,2.219-0.168c1.499,0,2.566,0.35,3.274,1.009c0.72,0.658,1.14,1.595,1.14,2.901
	c0,1.319-0.408,2.397-1.164,3.143c-0.755,0.756-2.003,1.164-3.574,1.164c-0.744,0-1.367-0.035-1.895-0.098V55.51L36.883,55.51z
	 M37.927,62.659c0.264,0.049,0.647,0.062,1.055,0.062c2.231,0,3.442-1.247,3.442-3.431c0.012-1.907-1.067-3.119-3.274-3.119
	c-0.54,0-0.947,0.05-1.223,0.107V62.659L37.927,62.659z"/>
<path fill="#FFFFFF" stroke="#FFFFFF" stroke-width="1.5" stroke-miterlimit="10" d="M44.839,59.493
	c0-0.688-0.012-1.271-0.048-1.812h0.923l0.036,1.141h0.048c0.264-0.774,0.899-1.271,1.607-1.271c0.12,0,0.204,0.016,0.3,0.036v0.994
	c-0.108-0.022-0.216-0.035-0.359-0.035c-0.744,0-1.271,0.562-1.416,1.354c-0.024,0.146-0.048,0.312-0.048,0.49v3.096h-1.043V59.493
	L44.839,59.493z"/>
<path fill="#FFFFFF" stroke="#FFFFFF" stroke-width="1.5" stroke-miterlimit="10" d="M53.621,61.905
	c0,0.604,0.012,1.127,0.047,1.582h-0.937l-0.06-0.94h-0.024c-0.274,0.469-0.888,1.073-1.917,1.073c-0.912,0-2.003-0.504-2.003-2.543
	v-3.395h1.056v3.215c0,1.104,0.336,1.848,1.294,1.848c0.707,0,1.198-0.486,1.391-0.961c0.061-0.149,0.096-0.348,0.096-0.539v-3.562
	h1.057V61.905L53.621,61.905z"/>
<path fill="#FFFFFF" stroke="#FFFFFF" stroke-width="1.5" stroke-miterlimit="10" d="M55.375,59.254c0-0.601-0.013-1.093-0.047-1.57
	h0.922l0.049,0.936h0.035c0.324-0.551,0.865-1.062,1.824-1.062c0.791,0,1.391,0.479,1.643,1.163h0.023
	c0.18-0.324,0.407-0.575,0.646-0.757c0.349-0.27,0.73-0.406,1.283-0.406c0.769,0,1.906,0.504,1.906,2.521v3.418h-1.031v-3.287
	c0-1.11-0.408-1.784-1.26-1.784c-0.6,0-1.066,0.44-1.246,0.961c-0.049,0.146-0.084,0.336-0.084,0.524v3.586h-1.031v-3.479
	c0-0.924-0.407-1.596-1.211-1.596c-0.66,0-1.141,0.524-1.309,1.057c-0.061,0.154-0.084,0.336-0.084,0.52V63.5h-1.031L55.375,59.254
	L55.375,59.254z"/>
<path fill="#FFFFFF" stroke="#FFFFFF" stroke-width="1.5" stroke-miterlimit="10" d="M65.237,62.407
	c0.312,0.203,0.865,0.42,1.394,0.42c0.768,0,1.127-0.383,1.127-0.863c0-0.504-0.301-0.778-1.079-1.065
	c-1.044-0.371-1.534-0.947-1.534-1.645c0-0.937,0.754-1.703,2.002-1.703c0.588,0,1.104,0.168,1.428,0.358l-0.264,0.77
	c-0.229-0.145-0.648-0.337-1.188-0.337c-0.625,0-0.974,0.36-0.974,0.792c0,0.479,0.349,0.695,1.104,0.982
	c1.006,0.385,1.521,0.889,1.521,1.752c0,1.021-0.791,1.738-2.17,1.738c-0.637,0-1.225-0.156-1.631-0.396L65.237,62.407z"/>
<path fill="#FFFFFF" stroke="#FFFFFF" stroke-miterlimit="10" d="M36.883,55.51c0.636-0.097,1.391-0.168,2.219-0.168
	c1.499,0,2.566,0.35,3.274,1.009c0.72,0.658,1.14,1.595,1.14,2.901c0,1.319-0.408,2.397-1.164,3.143
	c-0.755,0.756-2.003,1.164-3.574,1.164c-0.744,0-1.367-0.035-1.895-0.098V55.51L36.883,55.51z M37.927,62.659
	c0.264,0.049,0.647,0.062,1.055,0.062c2.231,0,3.442-1.247,3.442-3.431c0.012-1.907-1.067-3.119-3.274-3.119
	c-0.54,0-0.947,0.05-1.223,0.107V62.659L37.927,62.659z"/>
<path fill="#FFFFFF" stroke="#FFFFFF" stroke-miterlimit="10" d="M44.839,59.493c0-0.688-0.012-1.271-0.048-1.812h0.923l0.036,1.141
	h0.048c0.264-0.774,0.899-1.271,1.607-1.271c0.12,0,0.204,0.016,0.3,0.036v0.994c-0.108-0.022-0.216-0.035-0.359-0.035
	c-0.744,0-1.271,0.562-1.416,1.354c-0.024,0.146-0.048,0.312-0.048,0.49v3.096h-1.043V59.493L44.839,59.493z"/>
<path fill="#FFFFFF" stroke="#FFFFFF" stroke-miterlimit="10" d="M53.621,61.905c0,0.604,0.012,1.127,0.047,1.582h-0.937l-0.06-0.94
	h-0.024c-0.274,0.469-0.888,1.073-1.917,1.073c-0.912,0-2.003-0.504-2.003-2.543v-3.395h1.056v3.215
	c0,1.104,0.336,1.848,1.294,1.848c0.707,0,1.198-0.486,1.391-0.961c0.061-0.149,0.096-0.348,0.096-0.539v-3.562h1.057V61.905
	L53.621,61.905z"/>
<path fill="#FFFFFF" stroke="#FFFFFF" stroke-miterlimit="10" d="M55.375,59.254c0-0.601-0.013-1.093-0.047-1.57h0.922l0.049,0.936
	h0.035c0.324-0.551,0.865-1.062,1.824-1.062c0.791,0,1.391,0.479,1.643,1.163h0.023c0.18-0.324,0.407-0.575,0.646-0.757
	c0.349-0.27,0.73-0.406,1.283-0.406c0.769,0,1.906,0.504,1.906,2.521v3.418h-1.031v-3.287c0-1.11-0.408-1.784-1.26-1.784
	c-0.6,0-1.066,0.44-1.246,0.961c-0.049,0.146-0.084,0.336-0.084,0.524v3.586h-1.031v-3.479c0-0.924-0.407-1.596-1.211-1.596
	c-0.66,0-1.141,0.524-1.309,1.057c-0.061,0.154-0.084,0.336-0.084,0.52V63.5h-1.031L55.375,59.254L55.375,59.254z"/>
<path fill="#FFFFFF" stroke="#FFFFFF" stroke-miterlimit="10" d="M65.237,62.407c0.312,0.203,0.865,0.42,1.394,0.42
	c0.768,0,1.127-0.383,1.127-0.863c0-0.504-0.301-0.778-1.079-1.065c-1.044-0.371-1.534-0.947-1.534-1.645
	c0-0.937,0.754-1.703,2.002-1.703c0.588,0,1.104,0.168,1.428,0.358l-0.264,0.77c-0.229-0.145-0.648-0.337-1.188-0.337
	c-0.625,0-0.974,0.36-0.974,0.792c0,0.479,0.349,0.695,1.104,0.982c1.006,0.385,1.521,0.889,1.521,1.752
	c0,1.021-0.791,1.738-2.17,1.738c-0.637,0-1.225-0.156-1.631-0.396L65.237,62.407z"/>
<g>
	<path fill="#FFFFFF" stroke="#FFFFFF" stroke-miterlimit="10" d="M46.774,53.528v0.075c-0.15,0.22-0.335,0.33-0.555,0.33
		c-0.17,0-0.315-0.075-0.435-0.226c-0.09-0.359-0.752-0.944-1.987-1.755c-1.235-0.81-2.053-1.215-2.453-1.215c-0.07,0-0.16,0-0.27,0
		c-0.14,0.01-0.235,0.015-0.285,0.015v0.585c0,0.2,0.025,0.465,0.075,0.795c0.05,0.4,0.105,0.646,0.165,0.735
		c0.18,0.24,0.27,0.39,0.27,0.45c0,0.18-0.07,0.327-0.21,0.442s-0.3,0.173-0.48,0.173c-0.38,0-0.675-0.136-0.885-0.405
		c-0.2-0.24-0.3-1.23-0.3-2.97c-0.21,0-0.43-0.065-0.66-0.195c-0.26-0.16-0.39-0.33-0.39-0.51c0-0.37,0.335-0.635,1.005-0.795
		c0.04-0.311,0.075-0.735,0.105-1.275c0.02-0.609,0.045-1.035,0.075-1.275c0.06-0.319,0.135-0.801,0.225-1.44h-0.12
		c-0.4,0.01-0.6-0.165-0.6-0.525c0-0.31,0.12-0.506,0.36-0.586c0.17-0.05,0.34-0.1,0.51-0.149c0.2-0.181,0.357-0.298,0.472-0.353
		c0.115-0.056,0.297-0.083,0.548-0.083c0.18,0,0.27,0.08,0.27,0.24c0,0.05,0.125,0.075,0.375,0.075c1.17,0,2.165,0.234,2.985,0.706
		c1.01,0.569,1.515,1.395,1.515,2.476c0,0.83-0.26,1.515-0.78,2.055c-0.35,0.37-0.97,0.785-1.86,1.245
		c0.71,0.45,1.415,0.9,2.115,1.351C46.384,52.128,46.784,52.799,46.774,53.528z M44.719,46.808c0-0.641-0.325-1.126-0.975-1.456
		c-0.52-0.271-1.13-0.405-1.83-0.405c-0.09,0-0.305,0.015-0.645,0.045c0.01,0.36-0.085,0.98-0.285,1.861
		c-0.11,0.53-0.185,1.305-0.225,2.324c0.58,0.2,0.94,0.301,1.08,0.301c0.12,0,0.295-0.035,0.525-0.105
		c0.66-0.2,1.2-0.505,1.62-0.915C44.474,47.988,44.719,47.438,44.719,46.808z"/>
	<path fill="#FFFFFF" stroke="#FFFFFF" stroke-miterlimit="10" d="M53.314,51.233c0,1.29-0.039,2.2-0.119,2.729
		c-0.051,0.311-0.26,0.465-0.631,0.465c-0.56,0-0.81-0.279-0.75-0.84c-0.5,0.24-1.02,0.36-1.56,0.36c-0.52,0-1.015-0.13-1.485-0.39
		c-0.56-0.311-0.84-0.705-0.84-1.186c0-0.47,0.32-0.91,0.96-1.32c0.58-0.369,1.125-0.555,1.635-0.555h1.275v-0.359
		c0.011-1.051-0.3-1.575-0.93-1.575c-0.79,0-1.185,0.37-1.185,1.109c0,0.25-0.14,0.375-0.42,0.375c-0.17,0-0.348-0.077-0.533-0.232
		c-0.185-0.154-0.277-0.317-0.277-0.487c0-0.56,0.2-1.02,0.6-1.38c0.4-0.36,0.88-0.54,1.44-0.54
		C52.375,47.408,53.314,48.683,53.314,51.233z M51.799,51.773c0-0.2-0.149-0.3-0.45-0.3c-1.25,0-1.875,0.295-1.875,0.885
		c0,0.32,0.275,0.479,0.825,0.479c0.34,0,0.66-0.095,0.96-0.285C51.62,52.343,51.799,52.083,51.799,51.773z"/>
	<path fill="#FFFFFF" stroke="#FFFFFF" stroke-miterlimit="10" d="M59.66,52.088c0,0.311-0.235,0.676-0.705,1.096
		c-0.42,0.39-0.798,0.635-1.133,0.734s-0.652,0.15-0.953,0.15c-0.789,0-1.406-0.25-1.852-0.75s-0.668-1.146-0.668-1.936
		c0-0.77,0.205-1.63,0.615-2.58c0.49-1.14,1.061-1.71,1.71-1.71c0.36,0,0.795,0.141,1.306,0.421c0.539,0.31,0.854,0.62,0.944,0.93
		c0.08,0.27,0.12,0.575,0.12,0.915c0,0.31-0.065,0.66-0.195,1.05c-0.16,0.5-0.359,0.75-0.6,0.75c-0.17,0-0.33-0.05-0.48-0.15
		c-0.18-0.109-0.27-0.244-0.27-0.404c0-0.01,0.045-0.125,0.135-0.346c0.05-0.1,0.075-0.375,0.075-0.824
		c0-0.37-0.015-0.61-0.045-0.721c-0.06-0.31-0.2-0.465-0.421-0.465c-0.489,0-0.869,0.426-1.139,1.275
		c-0.201,0.63-0.301,1.265-0.301,1.904c0,1.07,0.34,1.605,1.02,1.605c0.271,0,0.58-0.14,0.931-0.42
		c0.319-0.26,0.545-0.525,0.675-0.795c0.16-0.32,0.355-0.48,0.585-0.48c0.15,0,0.295,0.088,0.435,0.263
		C59.589,51.775,59.66,51.938,59.66,52.088z"/>
	<path fill="#FFFFFF" stroke="#FFFFFF" stroke-miterlimit="10" d="M66.289,54.248c-0.38,0.28-0.68,0.42-0.899,0.42
		c-0.29,0-0.71-0.3-1.261-0.899c-0.389-0.42-0.774-0.846-1.154-1.275c-0.221-0.26-0.57-0.625-1.051-1.095l-0.045,0.029v1.32
		c0,0.08,0.033,0.197,0.098,0.353c0.065,0.155,0.098,0.277,0.098,0.367c0,0.141-0.072,0.263-0.217,0.368
		c-0.146,0.104-0.293,0.157-0.443,0.157c-0.26,0-0.475-0.085-0.645-0.255s-0.255-0.385-0.255-0.646v-1.979
		c0-0.12,0.015-0.303,0.045-0.548s0.045-0.427,0.045-0.547v-4.036c0-0.61-0.042-1.101-0.124-1.47
		c-0.037-0.17-0.057-0.301-0.057-0.392c0-0.189,0.115-0.359,0.346-0.51c0.199-0.14,0.4-0.21,0.6-0.21
		c0.15,0,0.312,0.058,0.488,0.173c0.174,0.114,0.262,0.242,0.262,0.382c0,0.04-0.031,0.182-0.096,0.421
		c-0.064,0.24-0.096,0.61-0.096,1.11c0,0.16-0.016,1.496-0.049,4.006c0.041-0.04,0.583-0.535,1.627-1.485
		c0.863-0.8,1.37-1.199,1.521-1.199c0.532,0,0.788,0.324,0.769,0.975v0.15c-0.433,0.25-0.99,0.645-1.674,1.185
		c-0.864,0.67-1.297,1.115-1.297,1.335c0,0.021,0.271,0.335,0.814,0.945c0.512,0.58,0.833,0.939,0.963,1.08
		c0.604,0.63,1.166,1.06,1.688,1.29V54.248z"/>
</g>
</svg>
