<?xml version="1.0" encoding="utf-8"?>
<!-- Generator: Adobe Illustrator 16.0.0, SVG Export Plug-In . SVG Version: 6.00 Build 0)  -->
<!DOCTYPE svg PUBLIC "-//W3C//DTD SVG 1.1//EN" "http://www.w3.org/Graphics/SVG/1.1/DTD/svg11.dtd">
<svg version="1.1"
	 id="svg12553" xmlns:osb="http://www.openswatchbook.org/uri/2009/osb" xmlns:dc="http://purl.org/dc/elements/1.1/" xmlns:cc="http://creativecommons.org/ns#" xmlns:rdf="http://www.w3.org/1999/02/22-rdf-syntax-ns#" xmlns:svg="http://www.w3.org/2000/svg" xmlns:sodipodi="http://sodipodi.sourceforge.net/DTD/sodipodi-0.dtd" xmlns:inkscape="http://www.inkscape.org/namespaces/inkscape" inkscape:version="0.92.3 (2405546, 2018-03-11)" sodipodi:docname="DTROY.svg"
	 xmlns="http://www.w3.org/2000/svg" xmlns:xlink="http://www.w3.org/1999/xlink" x="0px" y="0px" width="510px" height="380px"
	 viewBox="0 0 510 380" enable-background="new 0 0 510 380" xml:space="preserve">
<rect stroke="#000000" stroke-miterlimit="10" width="510" height="380"/>
<path fill="#939598" stroke="#000000" stroke-miterlimit="10" d="M510.001,368.661c0,6.263-5.076,11.339-11.338,11.339H11.338
	C5.077,380,0,374.924,0,368.661V11.338C0,5.077,5.077,0,11.338,0h487.325c6.262,0,11.338,5.077,11.338,11.338V368.661
	L510.001,368.661z"/>
<path d="M507.5,363.668c0,1.564-1.27,2.835-2.835,2.835h-78.33c-1.565,0-2.835-1.271-2.835-2.835v-41.74
	c0-1.562,1.27-2.835,2.835-2.835h78.33c1.565,0,2.835,1.271,2.835,2.835V363.668L507.5,363.668z"/>
<sodipodi:namedview  id="namedview118" guidetolerance="10" objecttolerance="10" inkscape:cx="277.68841" bordercolor="#666666" inkscape:zoom="1.5750457" pagecolor="#ffffff" gridtolerance="10" showgrid="true" borderopacity="1" inkscape:cy="153.58191" inkscape:window-height="1017" inkscape:window-y="-8" inkscape:snap-grids="false" inkscape:window-x="-8" inkscape:pageshadow="2" inkscape:window-width="1920" inkscape:pageopacity="0" inkscape:window-maximized="1" inkscape:current-layer="svg12553">
	<inkscape:grid  type="xygrid" id="grid929"></inkscape:grid>
</sodipodi:namedview>
<g id="text4860">
</g>
<rect x="131.373" y="26.563" fill="#FFFFFF" stroke="#000000" stroke-miterlimit="10" width="72.497" height="72.497"/>
<rect x="203.751" y="26.563" fill="#FFFFFF" stroke="#000000" stroke-miterlimit="10" width="72.496" height="72.497"/>
<rect x="276.128" y="26.563" fill="#FFFFFF" stroke="#000000" stroke-miterlimit="10" width="72.496" height="72.497"/>
<rect x="348.508" y="26.563" fill="#FFFFFF" stroke="#000000" stroke-miterlimit="10" width="72.493" height="72.497"/>
<rect x="131.373" y="98.607" fill="#C7C8CA" stroke="#000000" stroke-miterlimit="10" width="72.497" height="72.497"/>
<rect x="203.751" y="98.607" fill="#C7C8CA" stroke="#000000" stroke-miterlimit="10" width="72.496" height="72.497"/>
<rect x="276.128" y="98.607" fill="#C7C8CA" stroke="#000000" stroke-miterlimit="10" width="72.496" height="72.497"/>
<rect x="348.508" y="98.607" fill="#C7C8CA" stroke="#000000" stroke-miterlimit="10" width="72.493" height="72.497"/>
<rect x="131.373" y="170.654" fill="#939598" stroke="#000000" stroke-miterlimit="10" width="72.497" height="72.493"/>
<rect x="203.751" y="170.654" fill="#939598" stroke="#000000" stroke-miterlimit="10" width="72.496" height="72.493"/>
<rect x="276.128" y="170.654" fill="#939598" stroke="#000000" stroke-miterlimit="10" width="72.496" height="72.493"/>
<rect x="348.508" y="170.654" fill="#939598" stroke="#000000" stroke-miterlimit="10" width="72.493" height="72.493"/>
<rect x="131.373" y="242.698" fill="#636466" stroke="#000000" stroke-miterlimit="10" width="72.497" height="72.493"/>
<rect x="203.751" y="242.698" fill="#636466" stroke="#000000" stroke-miterlimit="10" width="72.496" height="72.493"/>
<rect x="276.128" y="242.698" fill="#636466" stroke="#000000" stroke-miterlimit="10" width="72.496" height="72.493"/>
<rect x="348.508" y="242.698" fill="#636466" stroke="#000000" stroke-miterlimit="10" width="72.493" height="72.493"/>
<rect x="421.548" y="26.735" fill="#FFFFFF" stroke="#000000" stroke-miterlimit="10" width="89.453" height="18.125"/>
<rect x="421.548" y="44.746" fill="#FFFFFF" stroke="#000000" stroke-miterlimit="10" width="89.453" height="18.125"/>
<rect x="421.548" y="62.257" fill="#FFFFFF" stroke="#000000" stroke-miterlimit="10" width="89.453" height="19.125"/>
<rect x="421.548" y="80.768" fill="#FFFFFF" stroke="#000000" stroke-miterlimit="10" width="89.453" height="18.125"/>
<rect x="421.548" y="98.779" fill="#FFFFFF" stroke="#000000" stroke-miterlimit="10" width="89.453" height="18.125"/>
<rect x="421.548" y="116.791" fill="#FFFFFF" stroke="#000000" stroke-miterlimit="10" width="89.453" height="18.125"/>
<rect x="421.548" y="134.301" fill="#FFFFFF" stroke="#000000" stroke-miterlimit="10" width="89.453" height="19.125"/>
<rect x="421.548" y="152.812" fill="#FFFFFF" stroke="#000000" stroke-miterlimit="10" width="89.453" height="18.125"/>
<rect x="421.548" y="170.824" fill="#FFFFFF" stroke="#000000" stroke-miterlimit="10" width="89.453" height="18.125"/>
<rect x="421.548" y="188.834" fill="#FFFFFF" stroke="#000000" stroke-miterlimit="10" width="89.453" height="18.127"/>
<rect x="421.548" y="206.348" fill="#FFFFFF" stroke="#000000" stroke-miterlimit="10" width="89.453" height="19.125"/>
<rect x="421.548" y="224.859" fill="#FFFFFF" stroke="#000000" stroke-miterlimit="10" width="89.453" height="18.123"/>
<rect x="421.548" y="242.87" fill="#FFFFFF" stroke="#000000" stroke-miterlimit="10" width="89.453" height="18.124"/>
<rect x="421.548" y="260.881" fill="#FFFFFF" stroke="#000000" stroke-miterlimit="10" width="89.453" height="18.124"/>
<polyline fill="#FFFFFF" stroke="#000000" stroke-miterlimit="10" points="421.548,297.518 421.548,278.393 511.001,278.393 
	511.001,297.518 "/>
<rect x="421.548" y="296.904" fill="#FFFFFF" stroke="#000000" stroke-miterlimit="10" width="89.453" height="18.123"/>
<path fill="#FFFFFF" stroke="#000000" stroke-width="3" stroke-miterlimit="10" d="M131.988,98.607
	c-7.764-15.724-8.887-58.158,0-72.044"/>
<path fill="#C7C8CA" stroke="#000000" stroke-width="3" stroke-miterlimit="10" d="M131.988,170.653
	c-7.764-15.724-8.887-58.158,0-72.044"/>
<path fill="#939598" stroke="#000000" stroke-width="3" stroke-miterlimit="10" d="M131.988,242.695
	c-7.764-15.725-8.887-58.153,0-72.042"/>
<path fill="#636466" stroke="#000000" stroke-width="3" stroke-miterlimit="10" d="M131.988,314.742
	c-7.764-15.725-8.887-58.154,0-72.04"/>
<rect x="136.32" y="321.053" stroke="#000000" stroke-miterlimit="10" width="281.711" height="11.6"/>
<rect x="134.836" y="320.094" fill="#FFFFFF" stroke="#000000" stroke-miterlimit="10" width="281.712" height="11.6"/>
<path d="M73.111,236.918c1.711,4.795,0.276,9.751,0.741,14.609c0.338,3.527-0.726,7.158,0.769,10.604
	c-0.002,0.217-0.006,0.43-0.006,0.643c-1.343,3.539-1.243,3.771,2.606,3.998c3.607,0.229,7.233-0.096,10.82,0.771
	c2.398,0.568,3.85,1.832,3.638,4.293c-0.327,3.79,1.773,8.229-2.748,11.014c-0.489,0.312-0.304,1.021-0.196,1.571
	c2.154,10.929-1.607,19.687-9.835,26.8c-0.525,0.411-1.058,0.801-1.777,0.473c-7.063,3.654-14.383,5.31-22.334,3.354
	c-7.482-1.836-12.68-6.43-16.442-12.905c-0.399-0.688-0.514-1.476-1.605-0.83c-0.974,0.567-3.376,0.229-2.761,1.646
	c1,2.309-0.685,4.925,1.513,7.07c1.214,1.188,1.109,3.354-0.412,4.707c-2.88-3.071-3.384-6.875-3.214-10.854
	c0.057-1.356,0.079-2.474-1.881-2.342c-1.679,0.106-3.09,0.202-3.175,2.358c-0.117,3.021,0.075,6.06-0.789,9.039
	c-0.483,1.674-1.248,2.351-3.121,1.881c2.549-3.771,1.155-7.891,1.206-11.854c0.012-1.021-1.158-1.431-2.256-1.396
	c-1.259,0.037-2.626,0.324-3.759-0.057c-3.701-1.229-4.169,0.607-3.903,3.604c0.168,1.899,0.381,3.896-1.562,5.271
	c-1.157,0.82-0.474,3.967-2.558,3.071c-1.367-0.58,0.374-2.604,0.867-3.896c1.438-3.756,3.302-7.386-0.673-10.886
	c-0.585-0.521-0.233-2.146-0.234-3.267c-0.015-8.108,0.221-16.233-0.111-24.35c-0.149-3.599,1.505-4.289,4.388-4.847
	c5.688-1.084,11.442-0.665,18.333-0.854c-2.75-1.688-4.562-2.814-6.288-3.883c-4.969-3.062-5.38-3.025-2.79-7.684
	c2.135-3.827,5.2-7.111,7.185-11.104c0.688-1.385,2.379-1.021,3.444-0.713c5.307,1.521,10.309,3.771,14.955,7.188
	c1.227-4.021-0.77-8.354,1.098-12.271c2.276,2.828,1.089,6.162,1.282,9.271c0.139,2.25,0.127,4.35,1.823,6.188
	c1.912,2.088,1.393,4.645,0.19,7.354c5.409,0.479,10.381,0.267,15.345,0.168c2.388-0.048,2.916-1.587,2.901-3.688
	c-0.034-4.73-0.026-9.479,0.023-14.219C71.824,240.223,71.597,238.336,73.111,236.918z"/>
<path fill="#FEFEFE" d="M73.111,236.918c-0.031,7.12-0.159,14.239-0.039,21.355c0.038,2.328-0.551,3.093-2.968,3.021
	c-6.138-0.174-12.283-0.058-18.485-0.058c0.021-1.521,0.936-2.438,1.74-3.526c0.737-1,0.857-2.942,0.103-3.562
	c-5.258-4.271-2.406-10.062-3.116-15.146c-0.097-0.688-0.072-1.393-0.104-2.088c0.325-0.324,0.649-0.646,0.974-0.977
	c6.975-0.521,13.95-0.521,20.924,0C72.464,236.271,72.788,236.596,73.111,236.918z"/>
<path d="M93.941,265.361c0.037,13.714,0.074,27.427,0.11,41.143c0.267,0.532,0.121,0.907-0.437,1.122
	c-1.133-0.153-1.771-0.858-2.132-1.887c-0.895-7.63-0.562-15.3-0.266-22.931c0.166-4.312,0.166-8.617,0.249-12.938
	c0.025-1.229-0.264-2.509,0.478-3.646c0.173-0.195,0.35-0.396,0.524-0.603c0.229-0.136,0.457-0.271,0.688-0.396
	C93.42,265.282,93.68,265.32,93.941,265.361z"/>
<path d="M95.65,259.625c5.167-0.507,9.725,2.348,14.824,3.092c-5.436,1.311-10.758,3.193-16.533,2.645l0.123,0.146
	c1.272-2.357,1.272-2.357,6.152-2.812c-1.5-0.354-2.669,0.354-3.879,0.104c-1.84-0.36-1.796-1.396-1.064-2.729
	C95.396,259.915,95.523,259.77,95.65,259.625z"/>
<path d="M74.621,262.132c4.371,0.663,8.29-1.47,12.444-2.14c1.517-0.246,2.982-0.301,4.479-0.367
	c0.03,0.193,0.062,0.386,0.094,0.578c-0.724,3.052-2.979,2.626-5.247,2.232c2.159,1.328,5.89-1.021,6.738,3.062l0.12-0.118
	c-2.969,2.182-6.12,0.646-9.194,0.428c-2.196-0.158-4.37-0.562-6.524-0.996c-1.46-0.295-3.087-0.646-2.792-2.806L74.621,262.132z"/>
<path d="M92.241,306.564c0.593,0.291,1.185,0.584,1.776,0.873c1.62,0.586,2.931,1.393,2.487,3.463
	c-3.555,1.299-7.758,0.334-10.888,3.119c-1.145-3.021,2.302-3.979,2.8-6.252C89.459,306.63,90.523,305.55,92.241,306.564z"/>
<path d="M88.943,308.182c0.17,2.676-3.262,3.299-3.325,5.84c-2.575-1.711-5.798-1.062-8.495-2.342
	c0.324-0.326,0.648-0.65,0.973-0.974c2.234-1.354,4.567-2.472,7.106-3.157C86.586,307.173,87.883,306.852,88.943,308.182z"/>
<path d="M96.505,310.9c-0.829-1.153-1.658-2.312-2.487-3.463c0.012-0.312,0.023-0.623,0.034-0.938
	c0.859-0.34,1.577-0.584,2.389,0.351c1.462,1.68,3.262,3.076,4.63,4.82c0.598,0.768,2.87,1.124,1.477,2.604
	c-0.956,1.021-2.52,0.025-3.529-0.668C98.029,312.923,97.331,311.818,96.505,310.9z"/>
<path d="M72.14,235.947c-6.974,0-13.949,0-20.924,0C58.19,234.716,65.164,234.716,72.14,235.947z"/>
<path d="M91.545,259.625c1.351-1.588,1.951-3.438,1.89-5.607c0.54,2.025,0.743,4.066,2.216,5.607l0.1-0.125
	c-1.436,0.715-2.869,0.715-4.304,0L91.545,259.625z"/>
<path fill="#FEFEFE" d="M30.177,286.073c0,3.757,0.027,7.514-0.017,11.271c-0.013,1.117,0.535,2.54-1.61,2.582
	c-2.109,0.043-1.725-1.291-1.726-2.479c-0.013-7.652,0.004-15.307-0.015-22.959c-0.002-1.312-0.127-2.454,1.85-2.373
	c1.809,0.072,1.509,1.213,1.513,2.27C30.187,278.281,30.177,282.178,30.177,286.073z"/>
<path fill="#FEFEFE" d="M25.103,298.296c-0.035,0.537,1.626,1.429-0.282,1.56c-1.041,0.069-2.277,0.396-2.229-1.498
	c0.098-3.771,0.026-7.551,0.026-11.328c0-4.336,0.01-8.672-0.005-13.008c-0.004-1.049,0.025-1.938,1.49-1.879
	c1.063,0.043,1.902,0.043,1.886,1.487c-0.089,7.535-0.118,15.073-0.213,22.608c-0.003,0.345-0.438,0.683-0.673,1.025
	C24.301,297.605,24.405,297.951,25.103,298.296z"/>
<path fill="#FEFEFE" d="M35.288,253.594c2.394-0.857,2.7-3.589,4.516-5.046c0.95-0.765,0.787-2.774,3.01-1.647
	c2.215,1.123,2.358,2.529,1.445,4.479l0.131-0.132c-2.269,1.386-3.263,3.878-4.497,5.943c-2.124,3.562-4.154,5.226-7.681,1.85
	c0.839-1.781,2.793-3.234,3.206-5.568L35.288,253.594z"/>
<path fill="#FEFEFE" d="M40.1,269.188c-6.805,2.201-13.488,0.549-20.036,1.312c-2.335,0.271-4.198-2.675-6.734-0.926
	c-0.05,0.029-0.67-0.48-0.674-0.743c-0.003-0.274,0.381-0.769,0.652-0.812c6.436-1.037,12.958-1.658,19.352-0.354
	C35.082,268.159,38.016,266.631,40.1,269.188z"/>
<path fill="#FEFEFE" d="M33.537,286.441c0,3.759,0.024,7.52-0.021,11.271c-0.011,0.851,0.46,2.06-1.138,2.156
	c-1.587,0.104-1.354-1.019-1.355-1.952c-0.009-7.938-0.009-15.872,0-23.811c0.001-0.938-0.22-2.062,1.361-1.943
	c1.596,0.104,1.122,1.314,1.132,2.162C33.562,278.366,33.537,282.402,33.537,286.441z"/>
<path fill="#FEFEFE" d="M21.777,299.498c-2.032-0.216-2.589-1.066-2.564-2.791c0.104-7.382,0.022-14.766,0.07-22.148
	c0.005-0.938-0.637-2.479,1.316-2.371c1.875,0.109,1.137,1.623,1.143,2.537C21.801,282.939,21.777,291.152,21.777,299.498z"/>
<path fill="#FEFEFE" d="M56.487,264.863c-0.746-2.268-3.449-0.116-5.1-2.783c5.674,0,10.688-0.123,15.689,0.07
	c1.687,0.062,4.781-1.188,4.834,1.104c0.061,2.65-3.021,1.139-4.656,1.271c-3.609,0.291-7.253,0.175-10.883,0.225L56.487,264.863z"
	/>
<path fill="#FEFEFE" d="M35.42,253.464c-2.023,0.716-2.556,2.778-3.733,4.238c-0.873,1.085-1.525,0.504-2.366,0.176
	c-1.382-0.541-0.13-1.301,0.037-1.469c3.037-3.048,4.242-7.322,7.14-10.509c1.019-1.119,1.199-1.786,2.633-0.69
	c1.565,1.194,0.185,2.088-0.289,2.638c-1.505,1.75-3.115,3.375-3.557,5.754C35.288,253.594,35.42,253.464,35.42,253.464z"/>
<path fill="#FEFEFE" d="M18.022,272.24c0,8.632,0,17.265,0,25.896c-0.279,0.003-0.56,0.003-0.841,0.005c0-8.631,0-17.266,0-25.896
	C17.463,272.243,17.743,272.24,18.022,272.24z"/>
<path fill="#FEFEFE" d="M36.039,272.221c0,3.836,0.464,7.746-0.122,11.491c-0.665,4.248-1.254,8.343,0.076,12.526
	c0.192,0.603,0.301,1.607-0.496,1.807c-1.356,0.34-1.104-0.857-1.104-1.589c-0.015-7.795-0.001-15.591,0.039-23.388
	c0.002-0.303,0.368-0.607,0.563-0.91C35.343,272.18,35.691,272.198,36.039,272.221z"/>
<path fill="#FEFEFE" d="M40.007,264c2.744-4.006,5.475-8.02,8.25-12.003c0.236-0.336,0.605-0.953,1.263-0.39
	c0.613,0.521,0.629,0.877,0.091,1.597c-2.856,3.837-5.61,7.749-8.399,11.635C40.809,264.561,40.408,264.277,40.007,264z"/>
<path fill="#FEFEFE" d="M39.95,266.824c-5.235-1.987-10.179-4.275-14.366-7.948C31.057,260.305,35.831,263.064,39.95,266.824z"/>
<path fill="#FEFEFE" d="M44.26,251.372c1.219,0.144,1.51-2.536,2.811-1.235c1.51,1.512-1.002,1.676-1.352,2.672
	c-1.139,3.229-3.829,5.479-5.446,8.405c-0.433,0.787-0.605,2.036-1.873,1.056c-1.179-0.916,0.23-1.254,0.566-1.812
	c1.832-3.062,4.734-5.49,5.43-9.222C44.392,251.24,44.26,251.372,44.26,251.372z"/>
<path fill="#FEFEFE" d="M15.217,295.954c0-8.034,0-16.072,0-24.106c0.14-0.002,0.279-0.002,0.42-0.006c0,8.049,0,16.1,0,24.147
	C15.496,295.979,15.355,295.966,15.217,295.954z"/>
<path fill="#FEFEFE" d="M14.058,271.875c0,6.914,0,13.825,0,20.736c-0.141,0-0.28,0.002-0.42,0.006c0-6.922,0-13.84,0-20.758
	C13.777,271.865,13.918,271.87,14.058,271.875z"/>
<path fill="#FEFEFE" d="M35.479,244.527c-2.779,3.754-4.289,8.416-8.126,11.402C29.81,251.945,31.867,247.688,35.479,244.527z"/>
<path fill="#FEFEFE" d="M86.42,270.548c1.08,2.663,0.937,5.341,0.63,9.078C84.879,275.919,85.721,273.23,86.42,270.548z"/>
<path fill="#808080" d="M48.453,265.917c0.828,4.999-4.597,3.16-5.351,5.937C43.151,268.38,47.105,268.766,48.453,265.917z"/>
<path fill="#FEFEFE" d="M84.815,277.207c-1.529-1.857-3.217-3.18-2.398-5.464c0.099-0.275,1.198-0.554,1.434-0.354
	C85.696,272.943,84.422,274.98,84.815,277.207z"/>
<path fill="#FEFEFE" d="M37.275,272.562c0.647,2.521,0.521,5.06,0.085,7.592C36.711,277.629,36.839,275.098,37.275,272.562z"/>
<path fill="#FEFEFE" d="M88.808,270.939c0,1.896,0,3.791,0,5.688c-0.127,0.012-0.253,0.021-0.38,0.031c0-1.863,0-3.729,0-5.592
	C88.555,271.023,88.681,270.98,88.808,270.939z"/>
<path fill="#FEFEFE" d="M83.489,269.473c-1.896,0-3.791,0-5.687,0c-0.01-0.127-0.02-0.256-0.027-0.382c1.855,0,3.714,0,5.57,0
	C83.394,269.217,83.441,269.344,83.489,269.473z"/>
<path fill="#FEFEFE" d="M38.983,277.365c-0.565-2.236-0.56-3.915,0.003-6.24C39.572,273.45,39.601,275.129,38.983,277.365z"/>
<path fill="#FEFEFE" d="M56.371,264.747c-0.926,1.505-2.233,1.89-3.994,1.301c1.188-1.239,2.45-1.847,4.102-1.192
	C56.487,264.863,56.371,264.747,56.371,264.747z"/>
<path d="M25.103,298.296c-0.555-0.317-1.16,1.183-1.523,0.095c-0.233-0.705-0.673-1.882,0.398-2.34
	c0.408-0.175,0.157,1.312,1.126,1.213C25.103,297.605,25.103,297.951,25.103,298.296z"/>
<path d="M61.936,252c-9.205,0-9.091,0-9.145-9.391c-0.018-3.064,0.833-4.315,4.023-4.104c3.475,0.233,6.979,0.138,10.465,0.021
	c2.302-0.062,3.439,0.769,3.225,3.146c-0.05,0.561,0,1.117-0.008,1.678C70.343,253.493,71.955,251.841,61.936,252z"/>
<path d="M61.676,256.523c2.914,0,5.827,0,8.742,0C67.545,258.586,64.722,256.087,61.676,256.523z"/>
<path fill="#FEFEFE" d="M91.446,259.497c1.435,0,2.87,0,4.304,0c-0.409,2.646,0.44,3.285,2.849,1.937
	c1.555-0.871,2.699,0.998,4.222,0.855c-1.186,1.729-2.929,1.491-4.594,1.465c-1.652-0.025-3.195,0.166-4.162,1.748
	c-0.312,0-0.622,0-0.934,0c-1.084-1.771-2.833-1.763-4.606-1.748c-1.783,0.014-3.649,0.333-4.991-1.357
	c1.658-0.465,3.149-1.646,5.404-0.465C90.629,262.827,90.224,259.98,91.446,259.497z"/>
<path fill="#FEFEFE" d="M59.27,240.424c-2.43,1.029-3.527,2.104-4.173,3.678C54.414,240.521,54.526,240.398,59.27,240.424z"/>
<g>
	<path fill="none" stroke="#000000" stroke-width="2" stroke-miterlimit="10" d="M133.836,351.174c0,2.211,7.155,4,15.997,4"/>
	<path fill="none" stroke="#000000" stroke-width="2" stroke-miterlimit="10" d="M276.175,359.175c0-2.211-7.153-4-15.995-4"/>
	<line fill="none" stroke="#000000" stroke-width="2" stroke-miterlimit="10" x1="149.833" y1="355.174" x2="260.18" y2="355.175"/>
</g>
<g>
	<path fill="none" stroke="#000000" stroke-width="2" stroke-miterlimit="10" d="M418.259,351.174c0,2.211-7.155,4-15.998,4"/>
	<path fill="none" stroke="#000000" stroke-width="2" stroke-miterlimit="10" d="M275.925,359.175c0-2.211,7.154-4,15.995-4"/>
	<line fill="none" stroke="#000000" stroke-width="2" stroke-miterlimit="10" x1="402.261" y1="355.174" x2="291.92" y2="355.175"/>
</g>
<path fill="#FFFFFF" stroke="#000000" stroke-miterlimit="10" d="M94.224,220.506c0,3.131-2.538,5.669-5.669,5.669H13.893
	c-3.131,0-5.669-2.538-5.669-5.669v-82.327c0-3.131,2.538-5.669,5.669-5.669h74.662c3.131,0,5.669,2.538,5.669,5.669V220.506z"/>
<path fill="#FFFFFF" stroke="#000000" stroke-width="3" stroke-miterlimit="10" d="M90.5,219.023c0,1.562-1.27,2.836-2.835,2.836
	H14.798c-1.565,0-2.834-1.271-2.834-2.836V139.36c0-1.565,1.269-2.834,2.834-2.834h72.867c1.565,0,2.835,1.269,2.835,2.834V219.023z
	"/>
<g>
	<path d="M19.48,153.029v-9h4.008c0.544,0,1.012,0.198,1.404,0.594s0.588,0.866,0.588,1.41v0.54c0,0.448-0.152,0.878-0.456,1.29
		c-0.304,0.412-0.816,0.618-1.536,0.618h0.996c0.272,0,0.506,0.098,0.702,0.294c0.196,0.196,0.294,0.434,0.294,0.714v3.54h-1.992v-3
		c0-0.272-0.098-0.506-0.294-0.702c-0.196-0.196-0.434-0.294-0.714-0.294h-0.996v3.996H19.48z M21.484,148.025h0.996
		c0.28,0,0.518-0.098,0.714-0.294c0.196-0.196,0.294-0.43,0.294-0.702v-0.996c0-0.28-0.098-0.518-0.294-0.714
		c-0.196-0.196-0.434-0.294-0.714-0.294h-0.996V148.025z"/>
	<path d="M33.484,150.029h-3.996v0.996c0,0.272,0.098,0.508,0.294,0.708c0.196,0.2,0.43,0.3,0.702,0.3h1.008
		c0.664,0,0.996-0.336,0.996-1.008h0.996c-0.152,1.336-0.816,2.004-1.992,2.004h-2.004c-0.544,0-1.014-0.196-1.41-0.588
		s-0.594-0.864-0.594-1.416v-3c0-0.544,0.198-1.012,0.594-1.404s0.866-0.588,1.41-0.588h2.004c0.544,0,1.012,0.196,1.404,0.588
		s0.588,0.86,0.588,1.404V150.029L33.484,150.029z M29.488,149.033h2.004v-1.008c0-0.272-0.098-0.506-0.294-0.702
		c-0.196-0.196-0.434-0.294-0.714-0.294c-0.272,0-0.506,0.098-0.702,0.294c-0.196,0.196-0.294,0.43-0.294,0.702V149.033z"/>
	<path d="M40.492,148.025h-0.996c-0.08-0.664-0.416-0.996-1.008-0.996c-0.272,0-0.506,0.098-0.702,0.294
		c-0.196,0.196-0.294,0.43-0.294,0.702v3c0,0.272,0.098,0.508,0.294,0.708c0.196,0.2,0.43,0.3,0.702,0.3
		c0.592,0,0.928-0.336,1.008-1.008h0.996c-0.08,1.336-0.748,2.004-2.004,2.004h-0.996c-0.544,0-1.014-0.196-1.41-0.588
		s-0.594-0.864-0.594-1.416v-3c0-0.544,0.198-1.012,0.594-1.404s0.866-0.588,1.41-0.588h0.996
		C39.751,146.033,40.42,146.697,40.492,148.025z"/>
	<path d="M44.488,146.033h2.004c0.544,0,1.012,0.196,1.404,0.588s0.588,0.86,0.588,1.404v3c0,0.544-0.196,1.014-0.588,1.41
		s-0.86,0.594-1.404,0.594h-2.004c-0.544,0-1.014-0.196-1.41-0.588s-0.594-0.864-0.594-1.416v-3c0-0.544,0.198-1.012,0.594-1.404
		S43.944,146.033,44.488,146.033z M44.488,148.025v3c0,0.272,0.098,0.508,0.294,0.708c0.196,0.2,0.43,0.3,0.702,0.3
		c0.28,0,0.518-0.1,0.714-0.3c0.196-0.2,0.294-0.436,0.294-0.708v-3c0-0.272-0.098-0.506-0.294-0.702
		c-0.196-0.196-0.434-0.294-0.714-0.294c-0.272,0-0.506,0.098-0.702,0.294C44.585,147.519,44.488,147.753,44.488,148.025z"/>
	<path d="M52.492,153.029h-2.004v-6.996h2.004v1.992c0.08-0.664,0.286-1.162,0.618-1.494c0.332-0.332,0.794-0.498,1.386-0.498h0.996
		v1.992h-2.004c-0.272,0-0.506,0.098-0.702,0.294c-0.196,0.196-0.294,0.434-0.294,0.714V153.029z"/>
	<path d="M62.488,153.029h-1.992v-0.996c-0.08,0.664-0.416,0.996-1.008,0.996h-0.996c-0.544,0-1.014-0.196-1.41-0.588
		s-0.594-0.864-0.594-1.416v-3c0-0.544,0.198-1.012,0.594-1.404s0.866-0.588,1.41-0.588h2.004v-2.004h1.992V153.029z
		 M60.496,147.029h-1.008c-0.272,0-0.506,0.098-0.702,0.294c-0.196,0.196-0.294,0.43-0.294,0.702v3c0,0.272,0.098,0.508,0.294,0.708
		c0.196,0.2,0.43,0.3,0.702,0.3c0.28,0,0.518-0.1,0.714-0.3c0.196-0.2,0.294-0.436,0.294-0.708V147.029z"/>
</g>
<g>
	<path d="M36.482,168.038v-9h4.008c0.544,0,1.012,0.198,1.404,0.594s0.588,0.866,0.588,1.41v0.996c0,0.544-0.196,1.014-0.588,1.41
		c-0.392,0.396-0.86,0.594-1.404,0.594h-2.004v3.996H36.482z M38.486,163.034h0.996c0.28,0,0.518-0.098,0.714-0.294
		c0.196-0.196,0.294-0.43,0.294-0.702v-0.996c0-0.28-0.098-0.518-0.294-0.714c-0.196-0.196-0.434-0.294-0.714-0.294h-0.996V163.034z
		"/>
	<path d="M44.486,168.038v-9h2.004v9H44.486z"/>
	<path d="M52.49,164.042v-1.008c0-0.272-0.098-0.506-0.294-0.702c-0.196-0.196-0.434-0.294-0.714-0.294h-0.996
		c-0.592,0-0.924,0.332-0.996,0.996h-1.008c0.16-1.328,0.828-1.992,2.004-1.992h2.004c0.544,0,1.012,0.196,1.404,0.588
		s0.588,0.86,0.588,1.404v5.004H52.49v-0.996c-0.08,0.664-0.416,0.996-1.008,0.996h-0.996c-0.544,0-1.014-0.196-1.41-0.588
		c-0.396-0.392-0.594-0.864-0.594-1.416c0-0.544,0.198-1.012,0.594-1.404s0.866-0.588,1.41-0.588H52.49z M52.49,165.038h-1.008
		c-0.272,0-0.506,0.098-0.702,0.294c-0.196,0.196-0.294,0.43-0.294,0.702s0.098,0.508,0.294,0.708c0.196,0.2,0.43,0.3,0.702,0.3
		c0.28,0,0.518-0.1,0.714-0.3c0.196-0.2,0.294-0.436,0.294-0.708V165.038z"/>
	<path d="M57.494,169.034c0.048,0.672,0.38,1.008,0.996,1.008h0.996c0.28,0,0.518-0.098,0.714-0.294
		c0.196-0.196,0.294-0.434,0.294-0.714v-1.992c-0.08,0.664-0.416,0.996-1.008,0.996H58.49c-0.544,0-1.014-0.196-1.41-0.588
		c-0.396-0.392-0.594-0.864-0.594-1.416v-4.992h2.004v4.992c0,0.272,0.098,0.508,0.294,0.708c0.196,0.2,0.43,0.3,0.702,0.3
		c0.28,0,0.518-0.1,0.714-0.3c0.196-0.2,0.294-0.436,0.294-0.708v-4.992h1.992v7.992c0,0.544-0.196,1.014-0.588,1.41
		s-0.86,0.594-1.404,0.594H58.49c-1.176,0-1.844-0.668-2.004-2.004H57.494z"/>
</g>
<g>
	<path d="M29.486,183.048v-9h5.004v0.996h-3v3h2.004v1.008H31.49v3h3v0.996H29.486z"/>
	<path d="M36.482,183.048v-6.996h2.004v0.996c0.04-0.336,0.144-0.586,0.312-0.75s0.396-0.246,0.684-0.246h1.008
		c0.544,0,1.012,0.196,1.404,0.588s0.588,0.86,0.588,1.404v5.004H40.49v-5.004c0-0.272-0.098-0.506-0.294-0.702
		c-0.196-0.196-0.434-0.294-0.714-0.294c-0.272,0-0.506,0.098-0.702,0.294c-0.196,0.196-0.294,0.43-0.294,0.702v5.004H36.482z"/>
	<path d="M45.494,174.048h1.992v2.004h1.008v0.996h-1.008v3.996c0,0.328,0.108,0.578,0.324,0.75
		c0.216,0.172,0.412,0.258,0.588,0.258h0.096v0.996h-1.008c-0.544,0-1.012-0.196-1.404-0.588s-0.588-0.864-0.588-1.416v-3.996
		h-1.008v-0.996h1.008V174.048z"/>
	<path d="M56.486,180.048H52.49v0.996c0,0.272,0.098,0.508,0.294,0.708c0.196,0.2,0.43,0.3,0.702,0.3h1.008
		c0.664,0,0.996-0.336,0.996-1.008h0.996c-0.152,1.336-0.816,2.004-1.992,2.004H52.49c-0.544,0-1.014-0.196-1.41-0.588
		s-0.594-0.864-0.594-1.416v-3c0-0.544,0.198-1.012,0.594-1.404s0.866-0.588,1.41-0.588h2.004c0.544,0,1.012,0.196,1.404,0.588
		s0.588,0.86,0.588,1.404V180.048L56.486,180.048z M52.49,179.052h2.004v-1.008c0-0.272-0.098-0.506-0.294-0.702
		c-0.196-0.196-0.434-0.294-0.714-0.294c-0.272,0-0.506,0.098-0.702,0.294c-0.196,0.196-0.294,0.43-0.294,0.702V179.052z"/>
	<path d="M60.494,183.048H58.49v-6.996h2.004v1.992c0.08-0.664,0.286-1.162,0.618-1.494s0.794-0.498,1.386-0.498h0.996v1.992H61.49
		c-0.272,0-0.506,0.098-0.702,0.294c-0.196,0.196-0.294,0.434-0.294,0.714V183.048z"/>
</g>
<g>
	<path d="M22.479,198.055v-8.998h4.008c0.544,0,1.012,0.198,1.404,0.593c0.392,0.396,0.588,0.866,0.588,1.411v4.99
		c0,0.545-0.196,1.014-0.588,1.409s-0.86,0.595-1.404,0.595H22.479z M24.482,197.059h0.996c0.28,0,0.518-0.1,0.714-0.3
		c0.196-0.2,0.294-0.437,0.294-0.708v-4.99c0-0.271-0.098-0.519-0.294-0.708c-0.196-0.196-0.434-0.294-0.714-0.294h-0.996V197.059z"
		/>
	<path d="M36.482,195.057h-3.996v0.994c0,0.271,0.098,0.508,0.294,0.708c0.196,0.2,0.43,0.3,0.702,0.3h1.008
		c0.664,0,0.996-0.336,0.996-1.008h0.996c-0.152,1.336-0.816,2.004-1.992,2.004h-2.004c-0.544,0-1.014-0.197-1.41-0.588
		c-0.396-0.393-0.594-0.863-0.594-1.416v-2.999c0-0.544,0.198-1.013,0.594-1.403c0.396-0.392,0.866-0.588,1.41-0.588h2.004
		c0.544,0,1.012,0.195,1.404,0.588c0.392,0.396,0.588,0.859,0.588,1.403V195.057z M32.486,194.061h2.004v-1.009
		c0-0.272-0.098-0.506-0.294-0.702c-0.196-0.195-0.434-0.293-0.714-0.293c-0.272,0-0.506,0.104-0.702,0.293
		c-0.196,0.196-0.294,0.43-0.294,0.702V194.061L32.486,194.061z"/>
	<path d="M38.486,198.055v-8.998h2.004v8.998H38.486z"/>
	<path d="M48.482,195.057h-3.996v0.994c0,0.271,0.098,0.508,0.294,0.708c0.196,0.2,0.43,0.3,0.702,0.3h1.008
		c0.664,0,0.996-0.336,0.996-1.008h0.996c-0.152,1.336-0.816,2.004-1.992,2.004h-2.004c-0.544,0-1.014-0.197-1.41-0.588
		c-0.396-0.393-0.594-0.863-0.594-1.416v-2.999c0-0.544,0.198-1.013,0.594-1.403c0.396-0.392,0.866-0.588,1.41-0.588h2.004
		c0.544,0,1.012,0.195,1.404,0.588c0.392,0.396,0.588,0.859,0.588,1.403V195.057z M44.486,194.061h2.004v-1.009
		c0-0.272-0.098-0.506-0.294-0.702c-0.196-0.195-0.434-0.293-0.714-0.293c-0.272,0-0.506,0.104-0.702,0.293
		c-0.196,0.196-0.294,0.43-0.294,0.702V194.061L44.486,194.061z"/>
	<path d="M51.494,189.057h1.992v2.003h1.008v0.996h-1.008v3.98c0,0.328,0.108,0.578,0.324,0.75c0.216,0.186,0.412,0.271,0.588,0.271
		h0.096v0.996h-1.008c-0.544,0-1.012-0.197-1.404-0.602c-0.392-0.396-0.588-0.854-0.588-1.416v-3.98h-1.008v-0.996h1.008V189.057z"
		/>
	<path d="M62.486,195.057H58.49v0.994c0,0.271,0.098,0.508,0.294,0.708c0.196,0.2,0.43,0.3,0.702,0.3h1.008
		c0.664,0,0.996-0.336,0.996-1.008h0.996c-0.152,1.336-0.816,2.004-1.992,2.004H58.49c-0.544,0-1.014-0.197-1.41-0.588
		c-0.396-0.393-0.594-0.863-0.594-1.416v-2.999c0-0.544,0.198-1.013,0.594-1.403c0.396-0.392,0.866-0.588,1.41-0.588h2.004
		c0.544,0,1.012,0.195,1.404,0.588c0.392,0.396,0.588,0.859,0.588,1.403V195.057L62.486,195.057z M58.49,194.061h2.004v-1.009
		c0-0.272-0.098-0.506-0.294-0.702c-0.196-0.195-0.434-0.293-0.714-0.293c-0.272,0-0.506,0.104-0.702,0.293
		c-0.196,0.196-0.294,0.43-0.294,0.702V194.061z"/>
</g>
<g>
	<path d="M33.482,213.062v-9h2.004v8.004h3v0.996H33.482z"/>
	<path d="M42.482,206.066h2.004c0.544,0,1.012,0.188,1.404,0.588c0.392,0.392,0.588,0.859,0.588,1.404v3
		c0,0.543-0.196,1.014-0.588,1.396c-0.392,0.396-0.86,0.604-1.404,0.604h-2.004c-0.544,0-1.014-0.194-1.41-0.588
		c-0.396-0.396-0.594-0.865-0.594-1.416v-3c0-0.548,0.198-1.021,0.594-1.404C41.468,206.264,41.938,206.066,42.482,206.066z
		 M42.482,208.059v3c0,0.271,0.098,0.508,0.294,0.709c0.196,0.199,0.43,0.299,0.702,0.299c0.28,0,0.518-0.1,0.714-0.299
		c0.196-0.201,0.294-0.438,0.294-0.709v-3c0-0.271-0.098-0.506-0.294-0.701c-0.196-0.188-0.434-0.295-0.714-0.295
		c-0.272,0-0.506,0.104-0.702,0.295C42.58,207.553,42.482,207.786,42.482,208.059z"/>
	<path d="M50.486,206.066h2.004c0.544,0,1.012,0.188,1.404,0.588c0.392,0.392,0.588,0.859,0.588,1.404v3
		c0,0.543-0.196,1.014-0.588,1.396c-0.392,0.396-0.86,0.604-1.404,0.604h-2.004c-0.544,0-1.014-0.194-1.41-0.588
		c-0.396-0.396-0.594-0.865-0.594-1.416v-3c0-0.548,0.198-1.021,0.594-1.404C49.472,206.264,49.942,206.066,50.486,206.066z
		 M50.486,208.059v3c0,0.271,0.098,0.508,0.294,0.709c0.196,0.199,0.43,0.299,0.702,0.299c0.28,0,0.518-0.1,0.714-0.299
		c0.196-0.201,0.294-0.438,0.294-0.709v-3c0-0.271-0.098-0.506-0.294-0.701c-0.196-0.188-0.434-0.295-0.714-0.295
		c-0.272,0-0.506,0.104-0.702,0.295C50.584,207.553,50.486,207.786,50.486,208.059z"/>
	<path d="M56.486,206.066h2.004v0.996c0-0.336,0.084-0.586,0.252-0.75s0.416-0.246,0.744-0.246h1.008
		c0.544,0,1.012,0.188,1.404,0.588c0.392,0.392,0.588,0.859,0.588,1.404v3c0,0.551-0.196,1.021-0.588,1.416
		c-0.392,0.392-0.86,0.588-1.404,0.588H58.49v2.002h-2.004V206.066z M58.49,212.066h0.996c0.28,0,0.518-0.104,0.714-0.295
		c0.196-0.195,0.294-0.438,0.294-0.713v-3c0-0.272-0.098-0.521-0.294-0.703c-0.196-0.195-0.434-0.293-0.714-0.293
		c-0.272,0-0.506,0.098-0.702,0.293c-0.196,0.188-0.294,0.431-0.294,0.703V212.066z"/>
</g>
<path fill="#FFFFFF" stroke="#000000" stroke-miterlimit="10" d="M94.224,59.409c0,3.131-2.538,5.669-5.669,5.669H13.893
	c-3.131,0-5.669-2.539-5.669-5.669V35.113c0-3.131,2.538-5.669,5.669-5.669h74.662c3.131,0,5.669,2.538,5.669,5.669V59.409z"/>
<path fill="#FFFFFF" stroke="#000000" stroke-width="3" stroke-miterlimit="10" d="M90.5,57.927c0,1.565-1.27,2.835-2.835,2.835
	H14.798c-1.565,0-2.834-1.27-2.834-2.835V36.296c0-1.565,1.269-2.834,2.834-2.834h72.867c1.565,0,2.835,1.269,2.835,2.834V57.927z"
	/>
<path fill="#FFFFFF" stroke="#000000" stroke-miterlimit="10" d="M49.196,88.428c0,3.131-2.538,5.669-5.669,5.669h-24.63
	c-3.131,0-5.669-2.539-5.669-5.669V77.141c0-3.131,2.538-5.669,5.669-5.669h24.63c3.131,0,5.669,2.538,5.669,5.669V88.428z"/>
<path fill="#FFFFFF" stroke="#000000" stroke-miterlimit="10" d="M89.221,88.428c0,3.131-2.538,5.669-5.669,5.669h-24.63
	c-3.131,0-5.669-2.539-5.669-5.669V77.141c0-3.131,2.538-5.669,5.669-5.669h24.63c3.131,0,5.669,2.538,5.669,5.669V88.428z"/>
<g>
	<ellipse stroke="#000000" stroke-miterlimit="10" cx="24.38" cy="53.565" rx="4.4" ry="2.91"/>
	<line fill="none" stroke="#000000" stroke-width="2" stroke-miterlimit="10" x1="28.78" y1="53.564" x2="28.782" y2="36.645"/>
	<line fill="none" stroke="#000000" stroke-width="2" stroke-miterlimit="10" x1="33.187" y1="47.001" x2="39.978" y2="47.001"/>
	<line fill="none" stroke="#000000" stroke-width="2" stroke-miterlimit="10" x1="33.187" y1="51.005" x2="39.978" y2="51.005"/>
</g>
<g>
	<path fill="none" stroke="#000000" stroke-width="2" stroke-miterlimit="10" d="M23.25,351.174c0,2.211,2.146,4,4.799,4"/>
	<path fill="none" stroke="#000000" stroke-width="2" stroke-miterlimit="10" d="M65.953,359.175c0-2.211-2.146-4-4.798-4"/>
	<line fill="none" stroke="#000000" stroke-width="2" stroke-miterlimit="10" x1="28.049" y1="355.174" x2="61.154" y2="355.175"/>
</g>
<g>
	<path fill="none" stroke="#000000" stroke-width="2" stroke-miterlimit="10" d="M108.581,351.174c0,2.211-2.146,4-4.8,4"/>
	<path fill="none" stroke="#000000" stroke-width="2" stroke-miterlimit="10" d="M65.877,359.175c0-2.211,2.146-4,4.799-4"/>
	<line fill="none" stroke="#000000" stroke-width="2" stroke-miterlimit="10" x1="103.78" y1="355.174" x2="70.676" y2="355.175"/>
</g>
<path stroke="#000000" stroke-width="2" stroke-miterlimit="10" d="M50.844,368.84h3v3c0,0.672-0.212,1.174-0.636,1.506
	s-0.876,0.498-1.356,0.498h-2.004c-0.544,0-1.014-0.195-1.41-0.588s-0.594-0.863-0.594-1.416v-4.992c0-0.543,0.194-1.014,0.582-1.41
	c0.388-0.396,0.862-0.594,1.422-0.594h2.004c1.256,0,1.92,0.668,1.992,2.004h-0.996c-0.08-0.672-0.412-1.008-0.996-1.008h-1.008
	c-0.272,0-0.506,0.098-0.702,0.294c-0.196,0.196-0.294,0.435-0.294,0.714v4.992c0,0.28,0.098,0.518,0.294,0.715
	c0.196,0.195,0.43,0.293,0.702,0.293c0.64-0.031,0.976-0.367,1.008-1.008v-1.992h-1.008L50.844,368.84L50.844,368.84z"/>
<path stroke="#000000" stroke-width="2" stroke-miterlimit="10" d="M57.852,373.844h-2.004v-6.996h2.004v1.992
	c0.08-0.664,0.286-1.162,0.618-1.494c0.332-0.332,0.794-0.498,1.386-0.498h0.996v1.992h-2.004c-0.272,0-0.506,0.098-0.702,0.294
	s-0.294,0.435-0.294,0.714V373.844z"/>
<path stroke="#000000" stroke-width="2" stroke-miterlimit="10" d="M63.852,366.848h2.004c0.544,0,1.012,0.196,1.404,0.588
	c0.392,0.396,0.588,0.86,0.588,1.404v3c0,0.544-0.196,1.014-0.588,1.41c-0.392,0.396-0.86,0.594-1.404,0.594h-2.004
	c-0.544,0-1.014-0.195-1.41-0.588s-0.594-0.863-0.594-1.416v-3c0-0.544,0.198-1.012,0.594-1.404
	C62.838,367.044,63.308,366.848,63.852,366.848z M63.852,368.84v3c0,0.271,0.098,0.508,0.294,0.708s0.43,0.3,0.702,0.3
	c0.28,0,0.518-0.1,0.714-0.3s0.294-0.437,0.294-0.708v-3c0-0.271-0.098-0.506-0.294-0.701c-0.196-0.197-0.434-0.295-0.714-0.295
	c-0.272,0-0.506,0.098-0.702,0.295C63.95,368.334,63.852,368.568,63.852,368.84z"/>
<path stroke="#000000" stroke-width="2" stroke-miterlimit="10" d="M75.852,366.848v6.996H73.86v-0.996
	c-0.08,0.664-0.416,0.996-1.008,0.996h-0.996c-0.544,0-1.014-0.195-1.41-0.588s-0.594-0.863-0.594-1.416v-4.992h2.004v4.992
	c0,0.271,0.098,0.508,0.294,0.708c0.196,0.2,0.43,0.3,0.702,0.3c0.28,0,0.518-0.1,0.714-0.3c0.196-0.2,0.294-0.437,0.294-0.708
	v-4.992H75.852z"/>
<path stroke="#000000" stroke-width="2" stroke-miterlimit="10" d="M77.856,366.848h2.004v0.996c0-0.336,0.084-0.586,0.252-0.75
	s0.416-0.246,0.744-0.246h1.008c0.544,0,1.012,0.196,1.404,0.588c0.392,0.396,0.588,0.86,0.588,1.404v3
	c0,0.553-0.196,1.023-0.588,1.416s-0.86,0.588-1.404,0.588H79.86v2.004h-2.004V366.848z M79.86,372.848h0.996
	c0.28,0,0.518-0.098,0.714-0.293c0.196-0.197,0.294-0.435,0.294-0.715v-3c0-0.271-0.098-0.506-0.294-0.701
	c-0.196-0.197-0.434-0.295-0.714-0.295c-0.272,0-0.506,0.098-0.702,0.295c-0.196,0.195-0.294,0.43-0.294,0.701V372.848z"/>
<path fill="#FFFFFF" d="M50.844,368.84h3v3c0,0.672-0.212,1.174-0.636,1.506s-0.876,0.498-1.356,0.498h-2.004
	c-0.544,0-1.014-0.195-1.41-0.588s-0.594-0.863-0.594-1.416v-4.992c0-0.543,0.194-1.014,0.582-1.41
	c0.388-0.396,0.862-0.594,1.422-0.594h2.004c1.256,0,1.92,0.668,1.992,2.004h-0.996c-0.08-0.672-0.412-1.008-0.996-1.008h-1.008
	c-0.272,0-0.506,0.098-0.702,0.294c-0.196,0.196-0.294,0.435-0.294,0.714v4.992c0,0.28,0.098,0.518,0.294,0.715
	c0.196,0.195,0.43,0.293,0.702,0.293c0.64-0.031,0.976-0.367,1.008-1.008v-1.992h-1.008L50.844,368.84L50.844,368.84z"/>
<path fill="#FFFFFF" d="M57.852,373.844h-2.004v-6.996h2.004v1.992c0.08-0.664,0.286-1.162,0.618-1.494
	c0.332-0.332,0.794-0.498,1.386-0.498h0.996v1.992h-2.004c-0.272,0-0.506,0.098-0.702,0.294s-0.294,0.435-0.294,0.714V373.844z"/>
<path fill="#FFFFFF" d="M63.852,366.848h2.004c0.544,0,1.012,0.196,1.404,0.588c0.392,0.396,0.588,0.86,0.588,1.404v3
	c0,0.544-0.196,1.014-0.588,1.41c-0.392,0.396-0.86,0.594-1.404,0.594h-2.004c-0.544,0-1.014-0.195-1.41-0.588
	s-0.594-0.863-0.594-1.416v-3c0-0.544,0.198-1.012,0.594-1.404C62.838,367.044,63.308,366.848,63.852,366.848z M63.852,368.84v3
	c0,0.271,0.098,0.508,0.294,0.708s0.43,0.3,0.702,0.3c0.28,0,0.518-0.1,0.714-0.3s0.294-0.437,0.294-0.708v-3
	c0-0.271-0.098-0.506-0.294-0.701c-0.196-0.197-0.434-0.295-0.714-0.295c-0.272,0-0.506,0.098-0.702,0.295
	C63.95,368.334,63.852,368.568,63.852,368.84z"/>
<path fill="#FFFFFF" d="M75.852,366.848v6.996H73.86v-0.996c-0.08,0.664-0.416,0.996-1.008,0.996h-0.996
	c-0.544,0-1.014-0.195-1.41-0.588s-0.594-0.863-0.594-1.416v-4.992h2.004v4.992c0,0.271,0.098,0.508,0.294,0.708
	c0.196,0.2,0.43,0.3,0.702,0.3c0.28,0,0.518-0.1,0.714-0.3c0.196-0.2,0.294-0.437,0.294-0.708v-4.992H75.852z"/>
<path fill="#FFFFFF" d="M77.856,366.848h2.004v0.996c0-0.336,0.084-0.586,0.252-0.75s0.416-0.246,0.744-0.246h1.008
	c0.544,0,1.012,0.196,1.404,0.588c0.392,0.396,0.588,0.86,0.588,1.404v3c0,0.553-0.196,1.023-0.588,1.416s-0.86,0.588-1.404,0.588
	H79.86v2.004h-2.004V366.848z M79.86,372.848h0.996c0.28,0,0.518-0.098,0.714-0.293c0.196-0.197,0.294-0.435,0.294-0.715v-3
	c0-0.271-0.098-0.506-0.294-0.701c-0.196-0.197-0.434-0.295-0.714-0.295c-0.272,0-0.506,0.098-0.702,0.295
	c-0.196,0.195-0.294,0.43-0.294,0.701V372.848z"/>
<g>
	<path stroke="#000000" stroke-width="2" stroke-miterlimit="10" d="M27.466,330.973v-6.996c0-0.553,0.198-1.021,0.594-1.416
		c0.396-0.393,0.866-0.588,1.41-0.588h2.004c0.544,0,1.012,0.197,1.404,0.594c0.392,0.397,0.588,0.865,0.588,1.41v6.996h-1.992
		v-3.996H29.47v3.996H27.466z M29.47,325.968h2.004v-1.991c0-0.281-0.098-0.519-0.294-0.715c-0.196-0.195-0.434-0.294-0.714-0.294
		c-0.272,0-0.506,0.099-0.702,0.294c-0.196,0.196-0.294,0.434-0.294,0.715V325.968z"/>
	<path fill="#FFFFFF" d="M27.466,330.973v-6.996c0-0.553,0.198-1.021,0.594-1.416c0.396-0.393,0.866-0.588,1.41-0.588h2.004
		c0.544,0,1.012,0.197,1.404,0.594c0.392,0.397,0.588,0.865,0.588,1.41v6.996h-1.992v-3.996H29.47v3.996H27.466z M29.47,325.968
		h2.004v-1.991c0-0.281-0.098-0.519-0.294-0.715c-0.196-0.195-0.434-0.294-0.714-0.294c-0.272,0-0.506,0.099-0.702,0.294
		c-0.196,0.196-0.294,0.434-0.294,0.715V325.968z"/>
</g>
<g>
	<path stroke="#000000" stroke-width="2" stroke-miterlimit="10" d="M50.478,330.973v-9h4.008c0.544,0,1.012,0.197,1.404,0.594
		c0.392,0.397,0.588,0.865,0.588,1.41v0.491c0,0.593-0.166,1.054-0.498,1.386s-0.83,0.539-1.494,0.619
		c0.664,0,1.162,0.201,1.494,0.605c0.332,0.402,0.498,0.869,0.498,1.396v0.479c0,0.544-0.196,1.021-0.588,1.408
		c-0.392,0.391-0.86,0.596-1.404,0.596h-4.008V330.973z M52.481,325.968h0.996c0.28,0,0.518-0.098,0.714-0.294
		c0.196-0.195,0.294-0.43,0.294-0.701v-0.996c0-0.281-0.098-0.519-0.294-0.715c-0.196-0.195-0.434-0.294-0.714-0.294h-0.996V325.968
		z M52.481,329.977h0.996c0.28,0,0.518-0.101,0.714-0.301c0.196-0.199,0.294-0.438,0.294-0.708v-0.995
		c0-0.664-0.336-0.996-1.008-0.996h-0.996V329.977z"/>
	<path fill="#FFFFFF" d="M50.478,330.973v-9h4.008c0.544,0,1.012,0.197,1.404,0.594c0.392,0.397,0.588,0.865,0.588,1.41v0.491
		c0,0.593-0.166,1.054-0.498,1.386s-0.83,0.539-1.494,0.619c0.664,0,1.162,0.201,1.494,0.605c0.332,0.402,0.498,0.869,0.498,1.396
		v0.479c0,0.544-0.196,1.021-0.588,1.408c-0.392,0.391-0.86,0.596-1.404,0.596h-4.008V330.973z M52.481,325.968h0.996
		c0.28,0,0.518-0.098,0.714-0.294c0.196-0.195,0.294-0.43,0.294-0.701v-0.996c0-0.281-0.098-0.519-0.294-0.715
		c-0.196-0.195-0.434-0.294-0.714-0.294h-0.996V325.968z M52.481,329.977h0.996c0.28,0,0.518-0.101,0.714-0.301
		c0.196-0.199,0.294-0.438,0.294-0.708v-0.995c0-0.664-0.336-0.996-1.008-0.996h-0.996V329.977z"/>
</g>
<g>
	<path stroke="#000000" stroke-width="2" stroke-miterlimit="10" d="M81.49,328.968c-0.08,1.337-0.744,2.005-1.992,2.005h-2.004
		c-0.544,0-1.014-0.197-1.41-0.589s-0.594-0.864-0.594-1.416v-4.991c0-0.545,0.194-1.015,0.582-1.41
		c0.388-0.396,0.862-0.594,1.422-0.594h2.004c1.256,0,1.92,0.668,1.992,2.004h-0.996c-0.08-0.672-0.412-1.009-0.996-1.009H78.49
		c-0.272,0-0.506,0.099-0.702,0.294c-0.196,0.196-0.294,0.434-0.294,0.715v4.991c0,0.271,0.098,0.509,0.294,0.708
		c0.196,0.2,0.43,0.301,0.702,0.301h1.008c0.592,0,0.924-0.336,0.996-1.009H81.49L81.49,328.968z"/>
	<path fill="#FFFFFF" d="M81.49,328.968c-0.08,1.337-0.744,2.005-1.992,2.005h-2.004c-0.544,0-1.014-0.197-1.41-0.589
		s-0.594-0.864-0.594-1.416v-4.991c0-0.545,0.194-1.015,0.582-1.41c0.388-0.396,0.862-0.594,1.422-0.594h2.004
		c1.256,0,1.92,0.668,1.992,2.004h-0.996c-0.08-0.672-0.412-1.009-0.996-1.009H78.49c-0.272,0-0.506,0.099-0.702,0.294
		c-0.196,0.196-0.294,0.434-0.294,0.715v4.991c0,0.271,0.098,0.509,0.294,0.708c0.196,0.2,0.43,0.301,0.702,0.301h1.008
		c0.592,0,0.924-0.336,0.996-1.009H81.49L81.49,328.968z"/>
</g>
<g>
	<path stroke="#000000" stroke-width="2" stroke-miterlimit="10" d="M98.501,330.973v-9h4.008c0.544,0,1.012,0.197,1.404,0.594
		c0.392,0.397,0.588,0.865,0.588,1.41v4.991c0,0.544-0.196,1.015-0.588,1.41s-0.86,0.595-1.404,0.595H98.501z M100.505,329.977
		h0.996c0.28,0,0.518-0.101,0.714-0.301c0.196-0.199,0.294-0.438,0.294-0.708v-4.991c0-0.281-0.098-0.519-0.294-0.715
		c-0.196-0.195-0.434-0.294-0.714-0.294h-0.996V329.977z"/>
	<path fill="#FFFFFF" d="M98.501,330.973v-9h4.008c0.544,0,1.012,0.197,1.404,0.594c0.392,0.397,0.588,0.865,0.588,1.41v4.991
		c0,0.544-0.196,1.015-0.588,1.41s-0.86,0.595-1.404,0.595H98.501z M100.505,329.977h0.996c0.28,0,0.518-0.101,0.714-0.301
		c0.196-0.199,0.294-0.438,0.294-0.708v-4.991c0-0.281-0.098-0.519-0.294-0.715c-0.196-0.195-0.434-0.294-0.714-0.294h-0.996
		V329.977z"/>
</g>
<path fill="#FFFFFF" stroke="#000000" stroke-miterlimit="10" d="M0,18.447v-7.109C0,5.077,5.077,0,11.338,0h487.325
	c6.262,0,11.338,5.077,11.338,11.338v267.271V18.447"/>
<line fill="none" stroke="#000000" stroke-miterlimit="10" x1="0" y1="18.447" x2="510.001" y2="18.447"/>
<g>
	
		<line fill="none" stroke="#000000" stroke-width="4" stroke-linecap="square" stroke-miterlimit="10" x1="108.791" y1="58.906" x2="115.991" y2="58.906"/>
	
		<line fill="none" stroke="#000000" stroke-width="4" stroke-linecap="square" stroke-miterlimit="10" x1="112.391" y1="58.906" x2="112.391" y2="71.118"/>
	
		<line fill="none" stroke="#000000" stroke-width="4" stroke-linecap="square" stroke-miterlimit="10" x1="108.791" y1="71.715" x2="115.991" y2="71.715"/>
	
		<line fill="none" stroke="#000000" stroke-width="5" stroke-linecap="square" stroke-miterlimit="10" x1="107.19" y1="57.306" x2="114.391" y2="57.306"/>
	
		<line fill="none" stroke="#000000" stroke-width="5" stroke-linecap="square" stroke-miterlimit="10" x1="110.791" y1="57.306" x2="110.791" y2="69.517"/>
	
		<line fill="none" stroke="#000000" stroke-width="5" stroke-linecap="square" stroke-miterlimit="10" x1="107.19" y1="70.114" x2="114.391" y2="70.114"/>
	
		<line fill="none" stroke="#FFFFFF" stroke-width="2" stroke-linecap="square" stroke-miterlimit="10" x1="107.19" y1="57.306" x2="114.391" y2="57.306"/>
	
		<line fill="none" stroke="#FFFFFF" stroke-width="2" stroke-linecap="square" stroke-miterlimit="10" x1="110.791" y1="57.306" x2="110.791" y2="69.517"/>
	
		<line fill="none" stroke="#FFFFFF" stroke-width="2" stroke-linecap="square" stroke-miterlimit="10" x1="107.19" y1="70.114" x2="114.391" y2="70.114"/>
</g>
<g>
	
		<line fill="none" stroke="#000000" stroke-width="4" stroke-linecap="square" stroke-miterlimit="10" x1="106.79" y1="128.951" x2="113.99" y2="128.951"/>
	
		<line fill="none" stroke="#000000" stroke-width="4" stroke-linecap="square" stroke-miterlimit="10" x1="110.39" y1="128.951" x2="110.39" y2="141.163"/>
	
		<line fill="none" stroke="#000000" stroke-width="4" stroke-linecap="square" stroke-miterlimit="10" x1="106.79" y1="141.76" x2="113.99" y2="141.76"/>
	
		<line fill="none" stroke="#000000" stroke-width="4" stroke-linecap="square" stroke-miterlimit="10" x1="110.793" y1="128.951" x2="117.993" y2="128.951"/>
	
		<line fill="none" stroke="#000000" stroke-width="4" stroke-linecap="square" stroke-miterlimit="10" x1="114.393" y1="128.951" x2="114.393" y2="141.163"/>
	
		<line fill="none" stroke="#000000" stroke-width="4" stroke-linecap="square" stroke-miterlimit="10" x1="110.793" y1="141.76" x2="117.993" y2="141.76"/>
	
		<line fill="none" stroke="#000000" stroke-width="5" stroke-linecap="square" stroke-miterlimit="10" x1="105.189" y1="127.351" x2="112.389" y2="127.351"/>
	
		<line fill="none" stroke="#000000" stroke-width="5" stroke-linecap="square" stroke-miterlimit="10" x1="108.789" y1="127.351" x2="108.789" y2="139.562"/>
	
		<line fill="none" stroke="#000000" stroke-width="5" stroke-linecap="square" stroke-miterlimit="10" x1="105.189" y1="140.159" x2="112.389" y2="140.159"/>
	
		<line fill="none" stroke="#000000" stroke-width="5" stroke-linecap="square" stroke-miterlimit="10" x1="109.192" y1="127.351" x2="116.392" y2="127.351"/>
	
		<line fill="none" stroke="#000000" stroke-width="5" stroke-linecap="square" stroke-miterlimit="10" x1="112.792" y1="127.351" x2="112.792" y2="139.562"/>
	
		<line fill="none" stroke="#000000" stroke-width="5" stroke-linecap="square" stroke-miterlimit="10" x1="109.192" y1="140.159" x2="116.392" y2="140.159"/>
	
		<line fill="none" stroke="#FFFFFF" stroke-width="2" stroke-linecap="square" stroke-miterlimit="10" x1="105.189" y1="127.351" x2="112.389" y2="127.351"/>
	
		<line fill="none" stroke="#FFFFFF" stroke-width="2" stroke-linecap="square" stroke-miterlimit="10" x1="108.789" y1="127.351" x2="108.789" y2="139.562"/>
	
		<line fill="none" stroke="#FFFFFF" stroke-width="2" stroke-linecap="square" stroke-miterlimit="10" x1="105.189" y1="140.159" x2="112.389" y2="140.159"/>
	
		<line fill="none" stroke="#FFFFFF" stroke-width="2" stroke-linecap="square" stroke-miterlimit="10" x1="109.192" y1="127.351" x2="116.392" y2="127.351"/>
	
		<line fill="none" stroke="#FFFFFF" stroke-width="2" stroke-linecap="square" stroke-miterlimit="10" x1="112.792" y1="127.351" x2="112.792" y2="139.562"/>
	
		<line fill="none" stroke="#FFFFFF" stroke-width="2" stroke-linecap="square" stroke-miterlimit="10" x1="109.192" y1="140.159" x2="116.392" y2="140.159"/>
</g>
<g>
	
		<line fill="none" stroke="#000000" stroke-width="4" stroke-linecap="square" stroke-miterlimit="10" x1="104.788" y1="201.996" x2="111.988" y2="201.996"/>
	
		<line fill="none" stroke="#000000" stroke-width="4" stroke-linecap="square" stroke-miterlimit="10" x1="108.388" y1="201.996" x2="108.388" y2="214.207"/>
	
		<line fill="none" stroke="#000000" stroke-width="4" stroke-linecap="square" stroke-miterlimit="10" x1="104.788" y1="214.805" x2="111.988" y2="214.805"/>
	
		<line fill="none" stroke="#000000" stroke-width="4" stroke-linecap="square" stroke-miterlimit="10" x1="108.792" y1="201.996" x2="115.991" y2="201.996"/>
	
		<line fill="none" stroke="#000000" stroke-width="4" stroke-linecap="square" stroke-miterlimit="10" x1="112.391" y1="201.996" x2="112.391" y2="214.207"/>
	
		<line fill="none" stroke="#000000" stroke-width="4" stroke-linecap="square" stroke-miterlimit="10" x1="108.792" y1="214.805" x2="115.991" y2="214.805"/>
	
		<line fill="none" stroke="#000000" stroke-width="4" stroke-linecap="square" stroke-miterlimit="10" x1="112.794" y1="201.996" x2="119.995" y2="201.996"/>
	
		<line fill="none" stroke="#000000" stroke-width="4" stroke-linecap="square" stroke-miterlimit="10" x1="116.394" y1="201.996" x2="116.394" y2="214.207"/>
	
		<line fill="none" stroke="#000000" stroke-width="4" stroke-linecap="square" stroke-miterlimit="10" x1="112.794" y1="214.805" x2="119.995" y2="214.805"/>
	
		<line fill="none" stroke="#000000" stroke-width="5" stroke-linecap="square" stroke-miterlimit="10" x1="103.187" y1="200.396" x2="110.387" y2="200.396"/>
	
		<line fill="none" stroke="#000000" stroke-width="5" stroke-linecap="square" stroke-miterlimit="10" x1="106.788" y1="200.396" x2="106.788" y2="212.605"/>
	
		<line fill="none" stroke="#000000" stroke-width="5" stroke-linecap="square" stroke-miterlimit="10" x1="103.187" y1="213.204" x2="110.387" y2="213.204"/>
	
		<line fill="none" stroke="#000000" stroke-width="5" stroke-linecap="square" stroke-miterlimit="10" x1="107.19" y1="200.396" x2="114.39" y2="200.396"/>
	
		<line fill="none" stroke="#000000" stroke-width="5" stroke-linecap="square" stroke-miterlimit="10" x1="110.791" y1="200.396" x2="110.791" y2="212.605"/>
	
		<line fill="none" stroke="#000000" stroke-width="5" stroke-linecap="square" stroke-miterlimit="10" x1="107.19" y1="213.204" x2="114.39" y2="213.204"/>
	
		<line fill="none" stroke="#000000" stroke-width="5" stroke-linecap="square" stroke-miterlimit="10" x1="111.194" y1="200.396" x2="118.393" y2="200.396"/>
	
		<line fill="none" stroke="#000000" stroke-width="5" stroke-linecap="square" stroke-miterlimit="10" x1="114.793" y1="200.396" x2="114.793" y2="212.605"/>
	
		<line fill="none" stroke="#000000" stroke-width="5" stroke-linecap="square" stroke-miterlimit="10" x1="111.194" y1="213.204" x2="118.393" y2="213.204"/>
	
		<line fill="none" stroke="#FFFFFF" stroke-width="2" stroke-linecap="square" stroke-miterlimit="10" x1="103.187" y1="200.396" x2="110.387" y2="200.396"/>
	
		<line fill="none" stroke="#FFFFFF" stroke-width="2" stroke-linecap="square" stroke-miterlimit="10" x1="106.788" y1="200.396" x2="106.788" y2="212.605"/>
	
		<line fill="none" stroke="#FFFFFF" stroke-width="2" stroke-linecap="square" stroke-miterlimit="10" x1="103.187" y1="213.204" x2="110.387" y2="213.204"/>
	
		<line fill="none" stroke="#FFFFFF" stroke-width="2" stroke-linecap="square" stroke-miterlimit="10" x1="107.19" y1="200.396" x2="114.39" y2="200.396"/>
	
		<line fill="none" stroke="#FFFFFF" stroke-width="2" stroke-linecap="square" stroke-miterlimit="10" x1="110.791" y1="200.396" x2="110.791" y2="212.605"/>
	
		<line fill="none" stroke="#FFFFFF" stroke-width="2" stroke-linecap="square" stroke-miterlimit="10" x1="107.19" y1="213.204" x2="114.39" y2="213.204"/>
	
		<line fill="none" stroke="#FFFFFF" stroke-width="2" stroke-linecap="square" stroke-miterlimit="10" x1="111.194" y1="200.396" x2="118.393" y2="200.396"/>
	
		<line fill="none" stroke="#FFFFFF" stroke-width="2" stroke-linecap="square" stroke-miterlimit="10" x1="114.793" y1="200.396" x2="114.793" y2="212.605"/>
	
		<line fill="none" stroke="#FFFFFF" stroke-width="2" stroke-linecap="square" stroke-miterlimit="10" x1="111.194" y1="213.204" x2="118.393" y2="213.204"/>
</g>
<g>
	
		<line fill="none" stroke="#000000" stroke-width="4" stroke-linecap="square" stroke-miterlimit="10" x1="104.788" y1="274.038" x2="111.988" y2="274.038"/>
	
		<line fill="none" stroke="#000000" stroke-width="4" stroke-linecap="square" stroke-miterlimit="10" x1="108.388" y1="274.038" x2="108.388" y2="286.247"/>
	
		<line fill="none" stroke="#000000" stroke-width="4" stroke-linecap="square" stroke-miterlimit="10" x1="104.788" y1="286.846" x2="111.988" y2="286.846"/>
	
		<line fill="none" stroke="#000000" stroke-width="4" stroke-linecap="square" stroke-miterlimit="10" x1="108.792" y1="274.038" x2="115.991" y2="274.038"/>
	
		<line fill="none" stroke="#000000" stroke-width="4" stroke-linecap="square" stroke-miterlimit="10" x1="110.791" y1="274.038" x2="113.192" y2="286.247"/>
	
		<line fill="none" stroke="#000000" stroke-width="4" stroke-linecap="square" stroke-miterlimit="10" x1="108.792" y1="286.846" x2="115.991" y2="286.846"/>
	
		<line fill="none" stroke="#000000" stroke-width="4" stroke-linecap="square" stroke-miterlimit="10" x1="112.794" y1="274.038" x2="119.995" y2="274.038"/>
	
		<line fill="none" stroke="#000000" stroke-width="4" stroke-linecap="square" stroke-miterlimit="10" x1="117.195" y1="274.038" x2="114.793" y2="286.247"/>
	
		<line fill="none" stroke="#000000" stroke-width="4" stroke-linecap="square" stroke-miterlimit="10" x1="112.794" y1="286.846" x2="119.995" y2="286.846"/>
	
		<line fill="none" stroke="#000000" stroke-width="5" stroke-linecap="square" stroke-miterlimit="10" x1="103.187" y1="272.438" x2="110.387" y2="272.438"/>
	
		<line fill="none" stroke="#000000" stroke-width="5" stroke-linecap="square" stroke-miterlimit="10" x1="106.788" y1="272.438" x2="106.788" y2="284.646"/>
	
		<line fill="none" stroke="#000000" stroke-width="5" stroke-linecap="square" stroke-miterlimit="10" x1="103.187" y1="285.245" x2="110.387" y2="285.245"/>
	
		<line fill="none" stroke="#000000" stroke-width="5" stroke-linecap="square" stroke-miterlimit="10" x1="107.19" y1="272.438" x2="114.39" y2="272.438"/>
	
		<line fill="none" stroke="#000000" stroke-width="5" stroke-linecap="square" stroke-miterlimit="10" x1="109.19" y1="272.438" x2="111.59" y2="284.646"/>
	
		<line fill="none" stroke="#000000" stroke-width="5" stroke-linecap="square" stroke-miterlimit="10" x1="107.19" y1="285.245" x2="114.39" y2="285.245"/>
	
		<line fill="none" stroke="#000000" stroke-width="5" stroke-linecap="square" stroke-miterlimit="10" x1="111.194" y1="272.438" x2="118.393" y2="272.438"/>
	
		<line fill="none" stroke="#000000" stroke-width="5" stroke-linecap="square" stroke-miterlimit="10" x1="115.594" y1="272.438" x2="113.193" y2="284.646"/>
	
		<line fill="none" stroke="#000000" stroke-width="5" stroke-linecap="square" stroke-miterlimit="10" x1="111.194" y1="285.245" x2="118.393" y2="285.245"/>
	
		<line fill="none" stroke="#FFFFFF" stroke-width="2" stroke-linecap="square" stroke-miterlimit="10" x1="103.187" y1="272.438" x2="110.387" y2="272.438"/>
	
		<line fill="none" stroke="#FFFFFF" stroke-width="2" stroke-linecap="square" stroke-miterlimit="10" x1="106.788" y1="272.438" x2="106.788" y2="284.646"/>
	
		<line fill="none" stroke="#FFFFFF" stroke-width="2" stroke-linecap="square" stroke-miterlimit="10" x1="103.187" y1="285.245" x2="110.387" y2="285.245"/>
	
		<line fill="none" stroke="#FFFFFF" stroke-width="2" stroke-linecap="square" stroke-miterlimit="10" x1="107.19" y1="272.438" x2="114.39" y2="272.438"/>
	
		<line fill="none" stroke="#FFFFFF" stroke-width="2" stroke-linecap="square" stroke-miterlimit="10" x1="109.19" y1="272.438" x2="111.59" y2="284.646"/>
	
		<line fill="none" stroke="#FFFFFF" stroke-width="2" stroke-linecap="square" stroke-miterlimit="10" x1="107.19" y1="285.245" x2="114.39" y2="285.245"/>
	
		<line fill="none" stroke="#FFFFFF" stroke-width="2" stroke-linecap="square" stroke-miterlimit="10" x1="111.194" y1="272.438" x2="118.393" y2="272.438"/>
	
		<line fill="none" stroke="#FFFFFF" stroke-width="2" stroke-linecap="square" stroke-miterlimit="10" x1="115.594" y1="272.438" x2="113.193" y2="284.646"/>
	
		<line fill="none" stroke="#FFFFFF" stroke-width="2" stroke-linecap="square" stroke-miterlimit="10" x1="111.194" y1="285.245" x2="118.393" y2="285.245"/>
</g>
<line fill="none" stroke="#FFFFFF" stroke-width="2" stroke-linecap="square" stroke-miterlimit="10" x1="430.267" y1="324.404" x2="436.027" y2="324.404"/>
<line fill="none" stroke="#FFFFFF" stroke-width="2" stroke-linecap="square" stroke-miterlimit="10" x1="433.146" y1="324.404" x2="433.146" y2="334.174"/>
<line fill="none" stroke="#FFFFFF" stroke-width="2" stroke-linecap="square" stroke-miterlimit="10" x1="430.267" y1="334.65" x2="436.027" y2="334.65"/>
<line fill="none" stroke="#FFFFFF" stroke-width="2" stroke-linecap="square" stroke-miterlimit="10" x1="469.688" y1="324.407" x2="475.446" y2="324.407"/>
<line fill="none" stroke="#FFFFFF" stroke-width="2" stroke-linecap="square" stroke-miterlimit="10" x1="472.565" y1="324.407" x2="472.565" y2="334.176"/>
<line fill="none" stroke="#FFFFFF" stroke-width="2" stroke-linecap="square" stroke-miterlimit="10" x1="469.688" y1="334.654" x2="475.446" y2="334.654"/>
<line fill="none" stroke="#FFFFFF" stroke-width="2" stroke-linecap="square" stroke-miterlimit="10" x1="472.889" y1="324.407" x2="478.647" y2="324.407"/>
<line fill="none" stroke="#FFFFFF" stroke-width="2" stroke-linecap="square" stroke-miterlimit="10" x1="475.769" y1="324.407" x2="475.769" y2="334.176"/>
<line fill="none" stroke="#FFFFFF" stroke-width="2" stroke-linecap="square" stroke-miterlimit="10" x1="472.889" y1="334.654" x2="478.647" y2="334.654"/>
<line fill="none" stroke="#FFFFFF" stroke-width="2" stroke-linecap="square" stroke-miterlimit="10" x1="427.064" y1="349.741" x2="432.824" y2="349.741"/>
<line fill="none" stroke="#FFFFFF" stroke-width="2" stroke-linecap="square" stroke-miterlimit="10" x1="429.945" y1="349.741" x2="429.945" y2="359.51"/>
<line fill="none" stroke="#FFFFFF" stroke-width="2" stroke-linecap="square" stroke-miterlimit="10" x1="427.064" y1="359.988" x2="432.824" y2="359.988"/>
<line fill="none" stroke="#FFFFFF" stroke-width="2" stroke-linecap="square" stroke-miterlimit="10" x1="430.267" y1="349.741" x2="436.027" y2="349.741"/>
<line fill="none" stroke="#FFFFFF" stroke-width="2" stroke-linecap="square" stroke-miterlimit="10" x1="433.146" y1="349.741" x2="433.146" y2="359.51"/>
<line fill="none" stroke="#FFFFFF" stroke-width="2" stroke-linecap="square" stroke-miterlimit="10" x1="430.267" y1="359.988" x2="436.027" y2="359.988"/>
<line fill="none" stroke="#FFFFFF" stroke-width="2" stroke-linecap="square" stroke-miterlimit="10" x1="433.47" y1="349.741" x2="439.229" y2="349.741"/>
<line fill="none" stroke="#FFFFFF" stroke-width="2" stroke-linecap="square" stroke-miterlimit="10" x1="436.35" y1="349.741" x2="436.35" y2="359.51"/>
<line fill="none" stroke="#FFFFFF" stroke-width="2" stroke-linecap="square" stroke-miterlimit="10" x1="433.47" y1="359.988" x2="439.229" y2="359.988"/>
<line fill="none" stroke="#FFFFFF" stroke-width="2" stroke-linecap="square" stroke-miterlimit="10" x1="468.089" y1="349.742" x2="473.849" y2="349.742"/>
<line fill="none" stroke="#FFFFFF" stroke-width="2" stroke-linecap="square" stroke-miterlimit="10" x1="470.97" y1="349.742" x2="470.97" y2="359.51"/>
<line fill="none" stroke="#FFFFFF" stroke-width="2" stroke-linecap="square" stroke-miterlimit="10" x1="468.089" y1="359.988" x2="473.849" y2="359.988"/>
<line fill="none" stroke="#FFFFFF" stroke-width="2" stroke-linecap="square" stroke-miterlimit="10" x1="471.291" y1="349.742" x2="477.052" y2="349.742"/>
<line fill="none" stroke="#FFFFFF" stroke-width="2" stroke-linecap="square" stroke-miterlimit="10" x1="472.892" y1="349.742" x2="474.812" y2="359.51"/>
<line fill="none" stroke="#FFFFFF" stroke-width="2" stroke-linecap="square" stroke-miterlimit="10" x1="471.291" y1="359.988" x2="477.052" y2="359.988"/>
<line fill="none" stroke="#FFFFFF" stroke-width="2" stroke-linecap="square" stroke-miterlimit="10" x1="474.494" y1="349.742" x2="480.253" y2="349.742"/>
<line fill="none" stroke="#FFFFFF" stroke-width="2" stroke-linecap="square" stroke-miterlimit="10" x1="478.014" y1="349.742" x2="476.093" y2="359.51"/>
<line fill="none" stroke="#FFFFFF" stroke-width="2" stroke-linecap="square" stroke-miterlimit="10" x1="474.494" y1="359.988" x2="480.253" y2="359.988"/>
<path fill="#FFFFFF" d="M93.217,118.61c0,1.564-1.27,2.835-2.835,2.835H12.05c-1.565,0-2.835-1.271-2.835-2.835v-11.722
	c0-1.562,1.27-2.835,2.835-2.835h78.332c1.565,0,2.835,1.271,2.835,2.835V118.61L93.217,118.61z"/>
<circle stroke="#000000" stroke-width="1.5" stroke-miterlimit="10" cx="59.202" cy="112.665" r="5.167"/>
<line fill="none" stroke="#FFFFFF" stroke-width="1.2" stroke-linecap="square" stroke-miterlimit="10" x1="59.202" y1="112.665" x2="61.744" y2="111.373"/>
<g>
	<ellipse fill="none" stroke="#000000" stroke-width="1.5" stroke-miterlimit="10" cx="18.68" cy="112.377" rx="2.812" ry="4.5"/>
	
		<line fill="none" stroke="#000000" stroke-width="1.5" stroke-linecap="square" stroke-miterlimit="10" x1="15.117" y1="117.127" x2="22.476" y2="107.877"/>
</g>
<line fill="none" stroke="#000000" stroke-width="3" stroke-miterlimit="10" x1="59.202" y1="105.982" x2="59.202" y2="109.663"/>
<line fill="none" stroke="#FFFFFF" stroke-width="1.2" stroke-linecap="square" stroke-miterlimit="10" x1="59.202" y1="108.873" x2="59.202" y2="112.665"/>
<path fill="#FFFFFF" d="M87.392,290.207C87.626,303,75.985,314.339,62.46,314.271c-13.171-0.067-24.872-11.231-24.668-24.369
	c0.193-12.428,11.364-23.7,24.971-23.637C76.013,266.331,87.535,277.445,87.392,290.207z"/>
<path stroke="#000000" stroke-miterlimit="10" d="M-31.801,280.511c0.267-0.241,0.604-0.44,0.789-0.733
	c0.623-0.979,1.159-2.521,2.511-1.979c1.367,0.537,1.228,2.312,0.646,3.293c-1.258,2.145-0.491,3.938,0.367,5.812
	c0.312,0.688,1.329,1.562,0.076,1.979c-1.022,0.342-1.832-0.65-1.864-1.703c-0.078-2.662-0.375-5.354,0.539-8.016
	c-2.345,2.514-4.123,5.279-5.387,9.672c-0.488-3.708,0.244-6.047,1.402-8.318C-32.413,280.636-32.106,280.629-31.801,280.511z"/>
<path stroke="#000000" stroke-miterlimit="10" d="M-22.322,288.264c-2.363,1.137-3.875,0.742-3.675-2.541
	c0.12-1.972,1.03-2.867,2.854-2.562c2.873,0.481,1.733,3.185,2.508,4.844c0.322,0.69,0.33,0.968-0.417,0.929
	C-21.411,288.914-21.751,288.577-22.322,288.264z"/>
<path stroke="#000000" stroke-miterlimit="10" d="M-36.981,281.367c0.595,3.059-2.114,4.796-2.805,8.513
	c-0.86-3.71,0.388-5.808,1.148-8.032c0.577-1.693-0.158-2.38-2.225-2.38c0.114-0.219,0.168-0.516,0.342-0.625
	c0.797-0.499,1.625-0.944,2.406-1.389c1.148,1.192-0.646,3.155,1.256,4.024L-36.981,281.367z"/>
<path stroke="#000000" stroke-miterlimit="10" d="M-14.693,283.404c-0.928,1.643-2.949-0.567-2.85,1.752
	c0.042,0.949-0.174,2.345,0.346,2.753c1.127,0.883,1.627-1.041,2.926-1.158c-0.104,2.519-1.903,2.533-3.433,2.155
	c-1.971-0.484-1.716-2.366-1.479-3.812C-18.754,282.447-16.886,283.105-14.693,283.404z"/>
<path stroke="#000000" stroke-miterlimit="10" d="M-31.801,280.511c-0.304,0.63-0.61,0.63-0.917,0.005c0-0.658,0-1.313,0-2.342
	c-1.865,0.747-2.486,2.821-4.262,3.193c-0.001,0,0.123,0.111,0.122,0.111c0.35-2.771,2.473-3.867,4.846-5.438
	C-31.926,277.854-31.865,279.184-31.801,280.511z"/>
<path fill="#FFFFFF" stroke="#000000" stroke-miterlimit="10" d="M-22.624,285.41c0.107,1.219-0.016,2.074-1.425,1.908
	c-0.583-0.068-1.271-0.326-0.972-0.873c0.461-0.838,0.344-2.274,1.649-2.379C-22.363,283.984-22.73,284.995-22.624,285.41z"/>
<path stroke="#000000" stroke-width="1.5" stroke-miterlimit="10" d="M46.892,290.505c0.636-0.097,1.391-0.168,2.219-0.168
	c1.499,0,2.566,0.349,3.274,1.009c0.72,0.658,1.14,1.594,1.14,2.901c0,1.319-0.408,2.397-1.164,3.142
	c-0.755,0.756-2.003,1.164-3.574,1.164c-0.744,0-1.367-0.035-1.895-0.097V290.505L46.892,290.505z M47.936,297.652
	c0.264,0.049,0.647,0.061,1.055,0.061c2.231,0,3.442-1.247,3.442-3.43c0.012-1.907-1.067-3.119-3.274-3.119
	c-0.54,0-0.947,0.049-1.223,0.107V297.652L47.936,297.652z"/>
<path stroke="#000000" stroke-width="1.5" stroke-miterlimit="10" d="M54.848,294.486c0-0.688-0.012-1.271-0.048-1.812h0.923
	l0.036,1.141h0.048c0.264-0.771,0.899-1.271,1.607-1.271c0.12,0,0.204,0.015,0.3,0.036v0.994c-0.108-0.023-0.216-0.035-0.359-0.035
	c-0.744,0-1.271,0.562-1.416,1.354c-0.024,0.146-0.048,0.312-0.048,0.49v3.096h-1.043V294.486z"/>
<path stroke="#000000" stroke-width="1.5" stroke-miterlimit="10" d="M63.63,296.898c0,0.604,0.012,1.127,0.048,1.582h-0.937
	l-0.06-0.94h-0.024c-0.275,0.468-0.887,1.073-1.918,1.073c-0.912,0-2.003-0.504-2.003-2.543v-3.396h1.056v3.217
	c0,1.104,0.336,1.849,1.295,1.849c0.707,0,1.2-0.486,1.391-0.962c0.061-0.148,0.096-0.348,0.096-0.538v-3.562h1.057L63.63,296.898
	L63.63,296.898z"/>
<path stroke="#000000" stroke-width="1.5" stroke-miterlimit="10" d="M65.385,294.247c0-0.601-0.013-1.093-0.048-1.571h0.923
	l0.048,0.936h0.036c0.323-0.551,0.864-1.062,1.823-1.062c0.791,0,1.391,0.479,1.643,1.163h0.023
	c0.181-0.324,0.408-0.574,0.647-0.756c0.349-0.27,0.731-0.407,1.283-0.407c0.769,0,1.907,0.504,1.907,2.521v3.418h-1.032v-3.284
	c0-1.111-0.408-1.784-1.259-1.784c-0.6,0-1.067,0.438-1.247,0.961c-0.048,0.146-0.084,0.335-0.084,0.521v3.586h-1.031v-3.479
	c0-0.923-0.407-1.595-1.211-1.595c-0.66,0-1.14,0.524-1.308,1.056c-0.061,0.155-0.084,0.336-0.084,0.52v3.505h-1.031L65.385,294.247
	L65.385,294.247z"/>
<path stroke="#000000" stroke-width="1.5" stroke-miterlimit="10" d="M75.247,297.4c0.312,0.203,0.865,0.42,1.393,0.42
	c0.768,0,1.127-0.383,1.127-0.863c0-0.504-0.3-0.779-1.079-1.066c-1.043-0.371-1.534-0.947-1.534-1.644
	c0-0.937,0.754-1.703,2.002-1.703c0.588,0,1.104,0.168,1.428,0.358l-0.264,0.769c-0.229-0.144-0.648-0.336-1.188-0.336
	c-0.624,0-0.973,0.36-0.973,0.792c0,0.479,0.349,0.695,1.104,0.982c1.007,0.385,1.522,0.889,1.522,1.752
	c0,1.02-0.791,1.738-2.17,1.738c-0.636,0-1.224-0.156-1.631-0.396L75.247,297.4z"/>
<path stroke="#000000" stroke-miterlimit="10" d="M46.892,290.505c0.636-0.097,1.391-0.168,2.219-0.168
	c1.499,0,2.566,0.349,3.274,1.009c0.72,0.658,1.14,1.594,1.14,2.901c0,1.319-0.408,2.397-1.164,3.142
	c-0.755,0.756-2.003,1.164-3.574,1.164c-0.744,0-1.367-0.035-1.895-0.097V290.505L46.892,290.505z M47.936,297.652
	c0.264,0.049,0.647,0.061,1.055,0.061c2.231,0,3.442-1.247,3.442-3.43c0.012-1.907-1.067-3.119-3.274-3.119
	c-0.54,0-0.947,0.049-1.223,0.107V297.652L47.936,297.652z"/>
<path stroke="#000000" stroke-miterlimit="10" d="M54.848,294.486c0-0.688-0.012-1.271-0.048-1.812h0.923l0.036,1.141h0.048
	c0.264-0.771,0.899-1.271,1.607-1.271c0.12,0,0.204,0.015,0.3,0.036v0.994c-0.108-0.023-0.216-0.035-0.359-0.035
	c-0.744,0-1.271,0.562-1.416,1.354c-0.024,0.146-0.048,0.312-0.048,0.49v3.096h-1.043V294.486z"/>
<path stroke="#000000" stroke-miterlimit="10" d="M63.63,296.898c0,0.604,0.012,1.127,0.048,1.582h-0.937l-0.06-0.94h-0.024
	c-0.275,0.468-0.887,1.073-1.918,1.073c-0.912,0-2.003-0.504-2.003-2.543v-3.396h1.056v3.217c0,1.104,0.336,1.849,1.295,1.849
	c0.707,0,1.2-0.486,1.391-0.962c0.061-0.148,0.096-0.348,0.096-0.538v-3.562h1.057L63.63,296.898L63.63,296.898z"/>
<path stroke="#000000" stroke-miterlimit="10" d="M65.385,294.247c0-0.601-0.013-1.093-0.048-1.571h0.923l0.048,0.936h0.036
	c0.323-0.551,0.864-1.062,1.823-1.062c0.791,0,1.391,0.479,1.643,1.163h0.023c0.181-0.324,0.408-0.574,0.647-0.756
	c0.349-0.27,0.731-0.407,1.283-0.407c0.769,0,1.907,0.504,1.907,2.521v3.418h-1.032v-3.284c0-1.111-0.408-1.784-1.259-1.784
	c-0.6,0-1.067,0.438-1.247,0.961c-0.048,0.146-0.084,0.335-0.084,0.521v3.586h-1.031v-3.479c0-0.923-0.407-1.595-1.211-1.595
	c-0.66,0-1.14,0.524-1.308,1.056c-0.061,0.155-0.084,0.336-0.084,0.52v3.505h-1.031L65.385,294.247L65.385,294.247z"/>
<path stroke="#000000" stroke-miterlimit="10" d="M75.247,297.4c0.312,0.203,0.865,0.42,1.393,0.42c0.768,0,1.127-0.383,1.127-0.863
	c0-0.504-0.3-0.779-1.079-1.066c-1.043-0.371-1.534-0.947-1.534-1.644c0-0.937,0.754-1.703,2.002-1.703
	c0.588,0,1.104,0.168,1.428,0.358l-0.264,0.769c-0.229-0.144-0.648-0.336-1.188-0.336c-0.624,0-0.973,0.36-0.973,0.792
	c0,0.479,0.349,0.695,1.104,0.982c1.007,0.385,1.522,0.889,1.522,1.752c0,1.02-0.791,1.738-2.17,1.738
	c-0.636,0-1.224-0.156-1.631-0.396L75.247,297.4z"/>
<path stroke="#000000" stroke-width="2" stroke-miterlimit="10" d="M228.253,373.9v-9h4.008c0.544,0,1.012,0.199,1.404,0.595
	s0.588,0.866,0.588,1.409v0.492c0,0.593-0.166,1.055-0.498,1.387s-0.83,0.537-1.494,0.617c0.664,0,1.162,0.203,1.494,0.606
	s0.498,0.869,0.498,1.397v0.492c0,0.543-0.196,1.014-0.588,1.41c-0.392,0.396-0.86,0.594-1.404,0.594H228.253L228.253,373.9z
	 M230.257,368.896h0.996c0.28,0,0.518-0.098,0.714-0.293c0.196-0.196,0.294-0.431,0.294-0.703v-0.996
	c0-0.279-0.098-0.518-0.294-0.713c-0.196-0.196-0.434-0.295-0.714-0.295h-0.996V368.896z M230.257,372.904h0.996
	c0.28,0,0.518-0.1,0.714-0.299c0.196-0.201,0.294-0.438,0.294-0.709V370.9c0-0.664-0.336-0.996-1.008-0.996h-0.996V372.904
	L230.257,372.904z"/>
<path stroke="#000000" stroke-width="2" stroke-miterlimit="10" d="M242.257,370.9h-3.996v0.996c0,0.271,0.098,0.508,0.294,0.709
	c0.196,0.199,0.43,0.299,0.702,0.299h1.008c0.664,0,0.996-0.336,0.996-1.008h0.996c-0.152,1.336-0.816,2.004-1.992,2.004h-2.004
	c-0.544,0-1.014-0.195-1.41-0.588c-0.396-0.392-0.594-0.863-0.594-1.416v-3c0-0.543,0.198-1.012,0.594-1.403s0.866-0.589,1.41-0.589
	h2.004c0.544,0,1.012,0.197,1.404,0.589c0.392,0.394,0.588,0.86,0.588,1.403V370.9z M238.261,369.904h2.004v-1.008
	c0-0.271-0.098-0.506-0.294-0.701c-0.196-0.196-0.434-0.295-0.714-0.295c-0.272,0-0.506,0.099-0.702,0.295
	c-0.196,0.195-0.294,0.431-0.294,0.701L238.261,369.904L238.261,369.904z"/>
<path stroke="#000000" stroke-width="2" stroke-miterlimit="10" d="M248.269,369.904v-1.008c0-0.271-0.098-0.506-0.294-0.701
	c-0.196-0.196-0.434-0.295-0.714-0.295h-0.996c-0.592,0-0.924,0.332-0.996,0.996h-1.008c0.16-1.328,0.828-1.992,2.004-1.992h2.004
	c0.544,0,1.012,0.197,1.404,0.589c0.392,0.394,0.588,0.86,0.588,1.403v5.004h-1.992v-0.996c-0.08,0.664-0.416,0.996-1.008,0.996
	h-0.996c-0.544,0-1.014-0.195-1.41-0.588c-0.396-0.392-0.594-0.863-0.594-1.416c0-0.543,0.198-1.012,0.594-1.403
	s0.866-0.589,1.41-0.589H248.269z M248.269,370.9h-1.008c-0.272,0-0.506,0.099-0.702,0.295c-0.196,0.195-0.294,0.431-0.294,0.701
	c0,0.271,0.098,0.508,0.294,0.709c0.196,0.199,0.43,0.299,0.702,0.299c0.28,0,0.518-0.1,0.714-0.299
	c0.196-0.201,0.294-0.438,0.294-0.709V370.9L248.269,370.9z"/>
<path stroke="#000000" stroke-width="2" stroke-miterlimit="10" d="M253.273,364.9h1.992v2.004h1.006v0.996h-1.006v3.996
	c0,0.328,0.108,0.578,0.324,0.75s0.412,0.258,0.588,0.258h0.097v0.996h-1.007c-0.544,0-1.012-0.195-1.404-0.588
	c-0.392-0.392-0.588-0.863-0.588-1.416V367.9h-1.008v-0.996h1.008L253.273,364.9L253.273,364.9z"/>
<path stroke="#000000" stroke-width="2" stroke-miterlimit="10" d="M261.266,373.9l4.008-9.996h0.996l-3.996,9.996H261.266z"/>
<path stroke="#000000" stroke-width="2" stroke-miterlimit="10" d="M271.261,373.9v-9h0.468l4.272,4.261l4.26-4.261h1.009v9h-2.004
	v-5.496l-3.505,3.505l-3.491-3.505v5.496H271.261z"/>
<path stroke="#000000" stroke-width="2" stroke-miterlimit="10" d="M289.261,370.9h-3.995v0.996c0,0.271,0.098,0.508,0.293,0.709
	c0.196,0.199,0.43,0.299,0.702,0.299h1.009c0.664,0,0.996-0.336,0.996-1.008h0.995c-0.151,1.336-0.815,2.004-1.991,2.004h-2.004
	c-0.545,0-1.015-0.195-1.41-0.588c-0.396-0.392-0.595-0.863-0.595-1.416v-3c0-0.543,0.198-1.012,0.595-1.403
	c0.396-0.392,0.865-0.589,1.41-0.589h2.004c0.543,0,1.012,0.197,1.403,0.589c0.392,0.394,0.588,0.86,0.588,1.403V370.9z
	 M285.266,369.904h2.004v-1.008c0-0.271-0.099-0.506-0.295-0.701c-0.195-0.196-0.434-0.295-0.713-0.295
	c-0.272,0-0.507,0.099-0.703,0.295c-0.195,0.195-0.293,0.431-0.293,0.701V369.904z"/>
<path stroke="#000000" stroke-width="2" stroke-miterlimit="10" d="M295.271,369.904v-1.008c0-0.271-0.098-0.506-0.293-0.701
	c-0.196-0.196-0.435-0.295-0.715-0.295h-0.996c-0.592,0-0.924,0.332-0.996,0.996h-1.008c0.16-1.328,0.828-1.992,2.004-1.992h2.004
	c0.545,0,1.013,0.197,1.404,0.589c0.393,0.394,0.588,0.86,0.588,1.403v5.004h-1.992v-0.996c-0.08,0.664-0.416,0.996-1.008,0.996
	h-0.996c-0.543,0-1.014-0.195-1.41-0.588c-0.396-0.392-0.594-0.863-0.594-1.416c0-0.543,0.198-1.012,0.594-1.403
	c0.396-0.392,0.867-0.589,1.41-0.589H295.271z M295.271,370.9h-1.008c-0.271,0-0.506,0.099-0.701,0.295
	c-0.196,0.195-0.295,0.431-0.295,0.701c0,0.271,0.099,0.508,0.295,0.709c0.195,0.199,0.43,0.299,0.701,0.299
	c0.28,0,0.519-0.1,0.715-0.299c0.195-0.2,0.293-0.438,0.293-0.709V370.9z"/>
<path stroke="#000000" stroke-width="2" stroke-miterlimit="10" d="M304.271,368.896h-0.996c-0.088-0.664-0.403-0.996-0.947-0.996
	c-0.352,0-0.616,0.07-0.792,0.211c-0.177,0.14-0.265,0.346-0.265,0.617c0,0.289,0.484,0.692,1.453,1.213
	c0.791,0.424,1.248,0.775,1.367,1.056c0.12,0.28,0.18,0.58,0.18,0.899c0,0.553-0.195,1.024-0.588,1.416
	c-0.393,0.393-0.863,0.588-1.416,0.588h-0.996c-1.336,0-2.004-0.668-2.004-2.004h1.008c0.08,0.672,0.393,1.008,0.938,1.008
	c0.359,0,0.628-0.069,0.805-0.209c0.176-0.141,0.264-0.35,0.264-0.631c0-0.279-0.484-0.68-1.452-1.199
	c-0.792-0.424-1.25-0.775-1.374-1.057s-0.186-0.58-0.186-0.899c0-0.552,0.197-1.023,0.594-1.416c0.396-0.392,0.865-0.589,1.41-0.589
	h0.996C303.523,366.904,304.191,367.568,304.271,368.896z"/>
<path stroke="#000000" stroke-width="2" stroke-miterlimit="10" d="M312.265,366.904v6.996h-1.991v-0.996
	c-0.08,0.664-0.416,0.996-1.009,0.996h-0.996c-0.544,0-1.014-0.195-1.409-0.588c-0.396-0.392-0.594-0.863-0.594-1.416v-4.992h2.003
	v4.992c0,0.271,0.099,0.508,0.295,0.709c0.195,0.199,0.43,0.299,0.701,0.299c0.28,0,0.519-0.1,0.714-0.299
	c0.196-0.2,0.295-0.438,0.295-0.709v-4.992H312.265z"/>
<path stroke="#000000" stroke-width="2" stroke-miterlimit="10" d="M316.272,373.9h-2.005v-6.996h2.005v1.992
	c0.079-0.664,0.285-1.162,0.617-1.494s0.794-0.497,1.387-0.497h0.996v1.991h-2.005c-0.271,0-0.506,0.099-0.701,0.295
	c-0.196,0.195-0.294,0.434-0.294,0.714V373.9z"/>
<path stroke="#000000" stroke-width="2" stroke-miterlimit="10" d="M326.269,370.9h-3.995v0.996c0,0.271,0.098,0.508,0.294,0.709
	c0.195,0.199,0.43,0.299,0.701,0.299h1.009c0.664,0,0.996-0.336,0.996-1.008h0.995c-0.151,1.336-0.815,2.004-1.991,2.004h-2.004
	c-0.545,0-1.015-0.195-1.41-0.588c-0.396-0.392-0.595-0.863-0.595-1.416v-3c0-0.543,0.198-1.012,0.595-1.403
	c0.396-0.392,0.865-0.589,1.41-0.589h2.004c0.544,0,1.012,0.197,1.403,0.589c0.393,0.394,0.588,0.86,0.588,1.403V370.9z
	 M322.272,369.904h2.004v-1.008c0-0.271-0.099-0.506-0.294-0.701c-0.196-0.196-0.435-0.295-0.715-0.295
	c-0.271,0-0.506,0.099-0.701,0.295c-0.196,0.195-0.294,0.431-0.294,0.701V369.904z"/>
<path fill="#FFFFFF" d="M228.253,373.9v-9h4.008c0.544,0,1.012,0.199,1.404,0.595s0.588,0.866,0.588,1.409v0.492
	c0,0.593-0.166,1.055-0.498,1.387s-0.83,0.537-1.494,0.617c0.664,0,1.162,0.203,1.494,0.606s0.498,0.869,0.498,1.397v0.492
	c0,0.543-0.196,1.014-0.588,1.41c-0.392,0.396-0.86,0.594-1.404,0.594H228.253L228.253,373.9z M230.257,368.896h0.996
	c0.28,0,0.518-0.098,0.714-0.293c0.196-0.196,0.294-0.431,0.294-0.703v-0.996c0-0.279-0.098-0.518-0.294-0.713
	c-0.196-0.196-0.434-0.295-0.714-0.295h-0.996V368.896z M230.257,372.904h0.996c0.28,0,0.518-0.1,0.714-0.299
	c0.196-0.201,0.294-0.438,0.294-0.709V370.9c0-0.664-0.336-0.996-1.008-0.996h-0.996V372.904L230.257,372.904z"/>
<path fill="#FFFFFF" d="M242.257,370.9h-3.996v0.996c0,0.271,0.098,0.508,0.294,0.709c0.196,0.199,0.43,0.299,0.702,0.299h1.008
	c0.664,0,0.996-0.336,0.996-1.008h0.996c-0.152,1.336-0.816,2.004-1.992,2.004h-2.004c-0.544,0-1.014-0.195-1.41-0.588
	c-0.396-0.392-0.594-0.863-0.594-1.416v-3c0-0.543,0.198-1.012,0.594-1.403s0.866-0.589,1.41-0.589h2.004
	c0.544,0,1.012,0.197,1.404,0.589c0.392,0.394,0.588,0.86,0.588,1.403V370.9z M238.261,369.904h2.004v-1.008
	c0-0.271-0.098-0.506-0.294-0.701c-0.196-0.196-0.434-0.295-0.714-0.295c-0.272,0-0.506,0.099-0.702,0.295
	c-0.196,0.195-0.294,0.431-0.294,0.701L238.261,369.904L238.261,369.904z"/>
<path fill="#FFFFFF" d="M248.269,369.904v-1.008c0-0.271-0.098-0.506-0.294-0.701c-0.196-0.196-0.434-0.295-0.714-0.295h-0.996
	c-0.592,0-0.924,0.332-0.996,0.996h-1.008c0.16-1.328,0.828-1.992,2.004-1.992h2.004c0.544,0,1.012,0.197,1.404,0.589
	c0.392,0.394,0.588,0.86,0.588,1.403v5.004h-1.992v-0.996c-0.08,0.664-0.416,0.996-1.008,0.996h-0.996
	c-0.544,0-1.014-0.195-1.41-0.588c-0.396-0.392-0.594-0.863-0.594-1.416c0-0.543,0.198-1.012,0.594-1.403s0.866-0.589,1.41-0.589
	H248.269z M248.269,370.9h-1.008c-0.272,0-0.506,0.099-0.702,0.295c-0.196,0.195-0.294,0.431-0.294,0.701
	c0,0.271,0.098,0.508,0.294,0.709c0.196,0.199,0.43,0.299,0.702,0.299c0.28,0,0.518-0.1,0.714-0.299
	c0.196-0.201,0.294-0.438,0.294-0.709V370.9L248.269,370.9z"/>
<path fill="#FFFFFF" d="M253.273,364.9h1.992v2.004h1.006v0.996h-1.006v3.996c0,0.328,0.108,0.578,0.324,0.75
	s0.412,0.258,0.588,0.258h0.097v0.996h-1.007c-0.544,0-1.012-0.195-1.404-0.588c-0.392-0.392-0.588-0.863-0.588-1.416V367.9h-1.008
	v-0.996h1.008L253.273,364.9L253.273,364.9z"/>
<path fill="#FFFFFF" d="M261.266,373.9l4.008-9.996h0.996l-3.996,9.996H261.266z"/>
<path fill="#FFFFFF" d="M271.261,373.9v-9h0.468l4.272,4.261l4.26-4.261h1.009v9h-2.004v-5.496l-3.505,3.505l-3.491-3.505v5.496
	H271.261z"/>
<path fill="#FFFFFF" d="M289.261,370.9h-3.995v0.996c0,0.271,0.098,0.508,0.293,0.709c0.196,0.199,0.43,0.299,0.702,0.299h1.009
	c0.664,0,0.996-0.336,0.996-1.008h0.995c-0.151,1.336-0.815,2.004-1.991,2.004h-2.004c-0.545,0-1.015-0.195-1.41-0.588
	c-0.396-0.392-0.595-0.863-0.595-1.416v-3c0-0.543,0.198-1.012,0.595-1.403c0.396-0.392,0.865-0.589,1.41-0.589h2.004
	c0.543,0,1.012,0.197,1.403,0.589c0.392,0.394,0.588,0.86,0.588,1.403V370.9z M285.266,369.904h2.004v-1.008
	c0-0.271-0.099-0.506-0.295-0.701c-0.195-0.196-0.434-0.295-0.713-0.295c-0.272,0-0.507,0.099-0.703,0.295
	c-0.195,0.195-0.293,0.431-0.293,0.701V369.904z"/>
<path fill="#FFFFFF" d="M295.271,369.904v-1.008c0-0.271-0.098-0.506-0.293-0.701c-0.196-0.196-0.435-0.295-0.715-0.295h-0.996
	c-0.592,0-0.924,0.332-0.996,0.996h-1.008c0.16-1.328,0.828-1.992,2.004-1.992h2.004c0.545,0,1.013,0.197,1.404,0.589
	c0.393,0.394,0.588,0.86,0.588,1.403v5.004h-1.992v-0.996c-0.08,0.664-0.416,0.996-1.008,0.996h-0.996
	c-0.543,0-1.014-0.195-1.41-0.588c-0.396-0.392-0.594-0.863-0.594-1.416c0-0.543,0.198-1.012,0.594-1.403
	c0.396-0.392,0.867-0.589,1.41-0.589H295.271z M295.271,370.9h-1.008c-0.271,0-0.506,0.099-0.701,0.295
	c-0.196,0.195-0.295,0.431-0.295,0.701c0,0.271,0.099,0.508,0.295,0.709c0.195,0.199,0.43,0.299,0.701,0.299
	c0.28,0,0.519-0.1,0.715-0.299c0.195-0.2,0.293-0.438,0.293-0.709V370.9z"/>
<path fill="#FFFFFF" d="M304.271,368.896h-0.996c-0.088-0.664-0.403-0.996-0.947-0.996c-0.352,0-0.616,0.07-0.792,0.211
	c-0.177,0.14-0.265,0.346-0.265,0.617c0,0.289,0.484,0.692,1.453,1.213c0.791,0.424,1.248,0.775,1.367,1.056
	c0.12,0.28,0.18,0.58,0.18,0.899c0,0.553-0.195,1.024-0.588,1.416c-0.393,0.393-0.863,0.588-1.416,0.588h-0.996
	c-1.336,0-2.004-0.668-2.004-2.004h1.008c0.08,0.672,0.393,1.008,0.938,1.008c0.359,0,0.628-0.069,0.805-0.209
	c0.176-0.141,0.264-0.35,0.264-0.631c0-0.279-0.484-0.68-1.452-1.199c-0.792-0.424-1.25-0.775-1.374-1.057s-0.186-0.58-0.186-0.899
	c0-0.552,0.197-1.023,0.594-1.416c0.396-0.392,0.865-0.589,1.41-0.589h0.996C303.523,366.904,304.191,367.568,304.271,368.896z"/>
<path fill="#FFFFFF" d="M312.265,366.904v6.996h-1.991v-0.996c-0.08,0.664-0.416,0.996-1.009,0.996h-0.996
	c-0.544,0-1.014-0.195-1.409-0.588c-0.396-0.392-0.594-0.863-0.594-1.416v-4.992h2.003v4.992c0,0.271,0.099,0.508,0.295,0.709
	c0.195,0.199,0.43,0.299,0.701,0.299c0.28,0,0.519-0.1,0.714-0.299c0.196-0.2,0.295-0.438,0.295-0.709v-4.992H312.265z"/>
<path fill="#FFFFFF" d="M316.272,373.9h-2.005v-6.996h2.005v1.992c0.079-0.664,0.285-1.162,0.617-1.494s0.794-0.497,1.387-0.497
	h0.996v1.991h-2.005c-0.271,0-0.506,0.099-0.701,0.295c-0.196,0.195-0.294,0.434-0.294,0.714V373.9z"/>
<path fill="#FFFFFF" d="M326.269,370.9h-3.995v0.996c0,0.271,0.098,0.508,0.294,0.709c0.195,0.199,0.43,0.299,0.701,0.299h1.009
	c0.664,0,0.996-0.336,0.996-1.008h0.995c-0.151,1.336-0.815,2.004-1.991,2.004h-2.004c-0.545,0-1.015-0.195-1.41-0.588
	c-0.396-0.392-0.595-0.863-0.595-1.416v-3c0-0.543,0.198-1.012,0.595-1.403c0.396-0.392,0.865-0.589,1.41-0.589h2.004
	c0.544,0,1.012,0.197,1.403,0.589c0.393,0.394,0.588,0.86,0.588,1.403V370.9z M322.272,369.904h2.004v-1.008
	c0-0.271-0.099-0.506-0.294-0.701c-0.196-0.196-0.435-0.295-0.715-0.295c-0.271,0-0.506,0.099-0.701,0.295
	c-0.196,0.195-0.294,0.431-0.294,0.701V369.904z"/>
<g>
	<path stroke="#000000" stroke-miterlimit="10" d="M56.774,288.522v0.075c-0.15,0.22-0.335,0.33-0.555,0.33
		c-0.17,0-0.315-0.075-0.435-0.226c-0.09-0.359-0.752-0.944-1.987-1.755c-1.235-0.81-2.053-1.215-2.453-1.215c-0.07,0-0.16,0-0.27,0
		c-0.14,0.01-0.235,0.015-0.285,0.015v0.585c0,0.2,0.025,0.465,0.075,0.795c0.05,0.4,0.105,0.646,0.165,0.735
		c0.18,0.24,0.27,0.39,0.27,0.45c0,0.18-0.07,0.327-0.21,0.442s-0.3,0.173-0.48,0.173c-0.38,0-0.675-0.136-0.885-0.405
		c-0.2-0.24-0.3-1.23-0.3-2.97c-0.21,0-0.43-0.065-0.66-0.195c-0.26-0.16-0.39-0.33-0.39-0.51c0-0.37,0.335-0.635,1.005-0.795
		c0.04-0.311,0.075-0.735,0.105-1.275c0.02-0.609,0.045-1.035,0.075-1.275c0.06-0.319,0.135-0.8,0.225-1.439h-0.12
		c-0.4,0.01-0.6-0.165-0.6-0.525c0-0.31,0.12-0.505,0.36-0.585c0.17-0.05,0.34-0.1,0.51-0.149c0.2-0.181,0.357-0.298,0.472-0.353
		c0.115-0.056,0.297-0.083,0.548-0.083c0.18,0,0.27,0.08,0.27,0.24c0,0.05,0.125,0.075,0.375,0.075c1.17,0,2.165,0.234,2.985,0.705
		c1.01,0.569,1.515,1.395,1.515,2.475c0,0.83-0.26,1.515-0.78,2.055c-0.35,0.37-0.97,0.785-1.86,1.245
		c0.71,0.45,1.415,0.9,2.115,1.351C56.384,287.122,56.784,287.793,56.774,288.522z M54.719,281.803c0-0.641-0.325-1.125-0.975-1.455
		c-0.52-0.271-1.13-0.405-1.83-0.405c-0.09,0-0.305,0.015-0.645,0.045c0.01,0.36-0.085,0.98-0.285,1.86
		c-0.11,0.53-0.185,1.305-0.225,2.324c0.58,0.2,0.94,0.301,1.08,0.301c0.12,0,0.295-0.035,0.525-0.105
		c0.66-0.2,1.2-0.505,1.62-0.915C54.474,282.982,54.719,282.433,54.719,281.803z"/>
	<path stroke="#000000" stroke-miterlimit="10" d="M63.314,286.228c0,1.29-0.04,2.2-0.12,2.729c-0.05,0.311-0.26,0.465-0.63,0.465
		c-0.56,0-0.81-0.279-0.75-0.84c-0.5,0.24-1.02,0.36-1.56,0.36c-0.52,0-1.015-0.13-1.485-0.39c-0.56-0.311-0.84-0.705-0.84-1.186
		c0-0.47,0.32-0.91,0.96-1.32c0.58-0.369,1.125-0.555,1.635-0.555h1.275v-0.359c0.01-1.051-0.3-1.575-0.93-1.575
		c-0.79,0-1.185,0.37-1.185,1.109c0,0.25-0.14,0.375-0.42,0.375c-0.17,0-0.348-0.077-0.533-0.232
		c-0.185-0.154-0.277-0.317-0.277-0.487c0-0.56,0.2-1.02,0.6-1.38c0.4-0.36,0.88-0.54,1.44-0.54
		C62.375,282.402,63.314,283.678,63.314,286.228z M61.799,286.768c0-0.2-0.15-0.3-0.45-0.3c-1.25,0-1.875,0.295-1.875,0.885
		c0,0.32,0.275,0.479,0.825,0.479c0.34,0,0.66-0.095,0.96-0.285C61.62,287.337,61.799,287.077,61.799,286.768z"/>
	<path stroke="#000000" stroke-miterlimit="10" d="M69.659,287.082c0,0.311-0.235,0.676-0.705,1.096
		c-0.42,0.39-0.798,0.635-1.133,0.734s-0.652,0.15-0.953,0.15c-0.79,0-1.407-0.25-1.852-0.75c-0.445-0.5-0.667-1.146-0.667-1.936
		c0-0.77,0.205-1.63,0.615-2.58c0.49-1.14,1.06-1.71,1.71-1.71c0.36,0,0.795,0.141,1.305,0.421c0.54,0.31,0.855,0.62,0.945,0.93
		c0.08,0.27,0.12,0.575,0.12,0.915c0,0.31-0.065,0.66-0.195,1.05c-0.16,0.5-0.36,0.75-0.6,0.75c-0.17,0-0.33-0.05-0.48-0.15
		c-0.18-0.109-0.27-0.244-0.27-0.404c0-0.01,0.045-0.125,0.135-0.346c0.05-0.1,0.075-0.375,0.075-0.824
		c0-0.37-0.015-0.61-0.045-0.721c-0.06-0.31-0.2-0.465-0.42-0.465c-0.49,0-0.87,0.426-1.14,1.275c-0.2,0.63-0.3,1.265-0.3,1.904
		c0,1.07,0.34,1.605,1.02,1.605c0.27,0,0.58-0.14,0.93-0.42c0.32-0.26,0.545-0.525,0.675-0.795c0.16-0.32,0.355-0.48,0.585-0.48
		c0.15,0,0.295,0.088,0.435,0.263S69.659,286.933,69.659,287.082z"/>
	<path stroke="#000000" stroke-miterlimit="10" d="M76.289,289.242c-0.38,0.28-0.68,0.42-0.9,0.42c-0.291,0-0.71-0.3-1.26-0.899
		c-0.39-0.42-0.775-0.846-1.155-1.275c-0.22-0.26-0.57-0.625-1.05-1.095l-0.045,0.029v1.32c0,0.08,0.032,0.197,0.098,0.353
		c0.065,0.155,0.098,0.277,0.098,0.367c0,0.141-0.073,0.263-0.218,0.368c-0.145,0.104-0.292,0.157-0.442,0.157
		c-0.26,0-0.475-0.085-0.645-0.255c-0.17-0.17-0.255-0.385-0.255-0.646v-1.979c0-0.12,0.015-0.303,0.045-0.548
		c0.03-0.245,0.045-0.427,0.045-0.547v-4.035c0-0.61-0.042-1.101-0.125-1.47c-0.037-0.17-0.056-0.301-0.056-0.391
		c0-0.189,0.115-0.359,0.345-0.51c0.2-0.14,0.4-0.21,0.6-0.21c0.15,0,0.312,0.058,0.487,0.173c0.175,0.114,0.263,0.242,0.263,0.382
		c0,0.04-0.032,0.181-0.096,0.42c-0.064,0.24-0.096,0.61-0.096,1.11c0,0.16-0.016,1.495-0.048,4.005
		c0.04-0.04,0.583-0.535,1.626-1.485c0.863-0.8,1.37-1.199,1.521-1.199c0.532,0,0.788,0.324,0.768,0.975v0.15
		c-0.432,0.25-0.99,0.645-1.673,1.185c-0.864,0.67-1.296,1.115-1.296,1.335c0,0.021,0.271,0.335,0.813,0.945
		c0.512,0.58,0.833,0.939,0.964,1.08c0.603,0.63,1.165,1.06,1.688,1.29V289.242z"/>
</g>
</svg>
