<?xml version="1.0" encoding="utf-8"?>
<!-- Generator: Adobe Illustrator 16.0.0, SVG Export Plug-In . SVG Version: 6.00 Build 0)  -->
<!DOCTYPE svg PUBLIC "-//W3C//DTD SVG 1.1//EN" "http://www.w3.org/Graphics/SVG/1.1/DTD/svg11.dtd">
<svg version="1.1"
	 id="svg12553" xmlns:dc="http://purl.org/dc/elements/1.1/" xmlns:cc="http://creativecommons.org/ns#" xmlns:rdf="http://www.w3.org/1999/02/22-rdf-syntax-ns#" xmlns:svg="http://www.w3.org/2000/svg" xmlns:sodipodi="http://sodipodi.sourceforge.net/DTD/sodipodi-0.dtd" xmlns:inkscape="http://www.inkscape.org/namespaces/inkscape" inkscape:version="0.92.2 5c3e80d, 2017-08-06" sodipodi:docname="SEQ3.svg"
	 xmlns="http://www.w3.org/2000/svg" xmlns:xlink="http://www.w3.org/1999/xlink" x="0px" y="0px" width="31.758px"
	 height="17.629px" viewBox="0 0 31.758 17.629" enable-background="new 0 0 31.758 17.629" xml:space="preserve">
<path stroke="#000000" stroke-width="3" stroke-miterlimit="10" d="M30.592,13.452c0,1.565-1.271,2.836-2.836,2.836H4.428
	c-1.566,0-2.836-1.271-2.836-2.836v-9.33c0-1.566,1.27-2.835,2.836-2.835h23.328c1.564,0,2.836,1.269,2.836,2.835V13.452z"/>
<path fill="#FFFFFF" d="M12.014,12.498c0.307-0.522,0.614-1.049,0.888-1.517c-1.645-0.631-3.327-1.276-5.109-1.961
	c0.31-0.729,0.487-1.145,0.775-1.822c0.777,0.478,1.43,0.88,2.364,1.458c0.765-0.58,1.64-1.244,2.579-1.956
	c4.094-1.352,7.178,1.112,10.485,3.471c-1.459,0.483-3.562,0.158-3.982,2.326c-0.666,0-1.332,0-2,0
	c0.301-0.521,0.6-1.045,1.012-1.761c-1.23,0-2.438,0-3.841,0c-0.318,0.479-0.744,1.119-1.168,1.761
	C13.347,12.498,12.68,12.498,12.014,12.498z"/>
<path fill="none" stroke="#FFFFFF" stroke-miterlimit="10" d="M30.592,13.452c0,1.565-1.271,2.836-2.836,2.836H4.428
	c-1.566,0-2.836-1.271-2.836-2.836v-9.33c0-1.566,1.27-2.835,2.836-2.835h23.328c1.564,0,2.836,1.269,2.836,2.835V13.452z"/>
</svg>
